<?xml version="1.0" encoding="UTF-8" standalone="no"?>
<!-- Generator: Adobe Illustrator 19.0.0, SVG Export Plug-In . SVG Version: 6.00 Build 0)  -->

<svg
   version="1.1"
   id="Capa_1"
   x="0px"
   y="0px"
   viewBox="0 0 512.002 512.002"
   style="enable-background:new 0 0 512.002 512.002;"
   xml:space="preserve"
   sodipodi:docname="arrow-d.svg"
   inkscape:version="1.1.2 (b8e25be833, 2022-02-05)"
   xmlns:inkscape="http://www.inkscape.org/namespaces/inkscape"
   xmlns:sodipodi="http://sodipodi.sourceforge.net/DTD/sodipodi-0.dtd"
   xmlns="http://www.w3.org/2000/svg"
   xmlns:svg="http://www.w3.org/2000/svg"><defs
   id="defs89" /><sodipodi:namedview
   id="namedview87"
   pagecolor="#505050"
   bordercolor="#eeeeee"
   borderopacity="1"
   inkscape:pageshadow="0"
   inkscape:pageopacity="0"
   inkscape:pagecheckerboard="0"
   showgrid="false"
   inkscape:zoom="1.5781188"
   inkscape:cx="247.44651"
   inkscape:cy="256.001"
   inkscape:window-width="1920"
   inkscape:window-height="1017"
   inkscape:window-x="-8"
   inkscape:window-y="-8"
   inkscape:window-maximized="1"
   inkscape:current-layer="Capa_1" />
<g
   id="g54"
   transform="rotate(90,256.00061,256.00105)">
	<g
   id="g52">
		<path
   fill="#323130"
   d="M 388.425,241.951 151.609,5.79 c -7.759,-7.733 -20.321,-7.72 -28.067,0.04 -7.74,7.759 -7.72,20.328 0.04,28.067 l 222.72,222.105 -222.728,222.104 c -7.759,7.74 -7.779,20.301 -0.04,28.061 3.883,3.89 8.97,5.835 14.057,5.835 5.074,0 10.141,-1.932 14.017,-5.795 L 388.425,270.052 c 3.737,-3.718 5.834,-8.778 5.834,-14.05 0,-5.272 -2.103,-10.326 -5.834,-14.051 z"
   id="path50" />
	</g>
</g>
<g
   id="g56">
</g>
<g
   id="g58">
</g>
<g
   id="g60">
</g>
<g
   id="g62">
</g>
<g
   id="g64">
</g>
<g
   id="g66">
</g>
<g
   id="g68">
</g>
<g
   id="g70">
</g>
<g
   id="g72">
</g>
<g
   id="g74">
</g>
<g
   id="g76">
</g>
<g
   id="g78">
</g>
<g
   id="g80">
</g>
<g
   id="g82">
</g>
<g
   id="g84">
</g>
<path
   style="fill:#c8ccd8;stroke:none;stroke-width:0.633666;fill-opacity:1"
   d="m 249.90658,392.98653 c -1.26083,-0.47148 -3.26923,-1.46093 -4.46311,-2.19879 C 244.24959,390.04988 189.53443,335.52558 123.85422,269.62261 26.909439,172.34904 4.0779058,149.1277 2.5346634,146.23173 c -1.66051928,-3.11604 -1.90099756,-4.21425 -1.90099756,-8.68144 0,-6.13792 1.58033956,-9.94581 5.84974516,-14.0952 5.497519,-5.34297 14.746749,-6.78429 21.857123,-3.40602 2.356013,1.11938 26.888031,25.37356 115.139916,113.83588 61.68031,61.82739 112.32454,112.41343 112.54275,112.41343 0.21821,0 50.75877,-50.4951 112.31235,-112.21134 88.00156,-88.23409 112.59984,-112.55977 115.11772,-113.84197 7.11985,-3.62568 16.42471,-2.27202 22.06532,3.21002 4.16687,4.04974 5.84196,7.98474 5.84622,13.73356 0.007,9.43123 11.13467,-2.52724 -122.68182,131.84131 -92.5797,92.96163 -121.02408,121.17016 -123.59324,122.56848 -3.97331,2.16254 -11.31673,2.8339 -15.18317,1.38809 z"
   id="path284" /><path
   style="fill:#c8ccd8;fill-opacity:1;stroke-width:0.633666"
   d="M 248.04617,391.62323 C 245.59251,390.39698 223.50672,368.62035 146.34496,291.34561 36.071113,180.91031 6.2644104,150.73244 3.4851621,146.70685 c -1.6897448,-2.4475 -1.9252052,-3.36502 -2.1188351,-8.25649 -0.1822537,-4.60409 0.012945,-6.03947 1.1949702,-8.78716 1.7400081,-4.04476 6.4601172,-8.45004 10.5454068,-9.84204 4.08858,-1.39312 10.615687,-1.28686 13.950501,0.22712 3.504954,1.59122 26.931321,24.67847 138.680435,136.67295 49.1595,49.26743 89.79219,89.57715 90.29487,89.57715 0.50268,0 50.38855,-49.44527 110.8575,-109.87839 60.46894,-60.43311 111.39329,-111.18454 113.16521,-112.78095 4.12419,-3.71568 6.85255,-4.82669 11.85307,-4.82669 10.60259,0 18.0726,6.96428 19.13573,17.84021 0.34137,3.4923 0.19773,4.63671 -0.83645,6.66386 -3.24649,6.36365 -12.39205,15.72615 -142.64424,146.02784 -93.69484,93.73045 -101.98746,101.86088 -104.8633,102.81228 -4.7853,1.58312 -10.86148,1.36198 -14.65386,-0.53331 z"
   id="path10145" /></svg>
