<?xml version="1.0" encoding="UTF-8" standalone="no"?>
<svg width="15px" height="24px" viewBox="0 0 15 24" version="1.1" xmlns="http://www.w3.org/2000/svg" xmlns:xlink="http://www.w3.org/1999/xlink">
    <!-- Generator: Sketch 41.2 (35397) - http://www.bohemiancoding.com/sketch -->
    <title>ic_attachment</title>
    <desc>Created with Sketch.</desc>
    <defs></defs>
    <g id="Icons" stroke="none" stroke-width="1" fill="none" fill-rule="evenodd" stroke-linecap="round" stroke-linejoin="round">
        <g id="24-px-Icons" transform="translate(-413.000000, -216.000000)" stroke="#414950">
            <g id="ic_attachment" transform="translate(408.000000, 216.000000)">
                <g id="attachment">
                    <g transform="translate(12.500000, 12.000000) rotate(-360.000000) translate(-12.500000, -12.000000) translate(5.000000, 1.000000)" stroke-width="2">
                        <path d="M14,7 C14,3.13400675 11.0898509,1.1937118e-12 7.5,1.1937118e-12 C3.91014913,1.1937118e-12 1,3.13400675 1,7" id="Oval-13"></path>
                        <path d="M1,7 L1,17" id="Line"></path>
                        <path d="M1,17 C1,19.4852814 3.01471863,21.5 5.5,21.5 L5.5,21.5 C7.98528137,21.5 10,19.4852814 10,17" id="Oval-13"></path>
                        <path d="M10,17 L10,7" id="Line"></path>
                        <path d="M10,7 C10,5.61928813 8.88071187,4.5 7.5,4.5 C6.11928813,4.5 5,5.61928813 5,7" id="Oval-13"></path>
                        <path d="M5,7 L5,16" id="Line"></path>
                        <path d="M14,7 L14,16" id="Line"></path>
                    </g>
                </g>
            </g>
        </g>
    </g>
</svg>