<?xml version="1.0" encoding="iso-8859-1"?>
<!-- Generator: Adobe Illustrator 16.0.0, SVG Export Plug-In . SVG Version: 6.00 Build 0)  -->
<!DOCTYPE svg PUBLIC "-//W3C//DTD SVG 1.1//EN" "http://www.w3.org/Graphics/SVG/1.1/DTD/svg11.dtd">
<svg version="1.1" id="Capa_1" xmlns="http://www.w3.org/2000/svg" xmlns:xlink="http://www.w3.org/1999/xlink" x="0px" y="0px"
	 width="60.614px" height="60.615px" viewBox="0 0 60.614 60.615" style="enable-background:new 0 0 60.614 60.615;"
	 xml:space="preserve">
<g>
	<g>
		<g>
			<path style="fill:#ffffff;" d="M50.752,47.941H13.72C6.155,47.941,0,41.787,0,34.221C0,26.656,6.154,20.5,13.72,20.5c1.233,0,2.466,0.171,3.673,0.511
				c2.143-5.025,7.094-8.338,12.611-8.338c3.961,0,7.659,1.68,10.27,4.637c1.212-0.511,2.521-0.779,3.834-0.779
				c5.438,0,9.861,4.424,9.861,9.862c0,0.763-0.092,1.524-0.271,2.275c4.065,1.271,6.916,5.067,6.916,9.411
				C60.614,43.517,56.189,47.941,50.752,47.941z M13.72,22.5C7.258,22.5,2,27.758,2,34.221c0,6.462,5.258,11.72,11.72,11.72h37.032
				c4.335,0,7.861-3.526,7.861-7.861c0-3.758-2.676-7.003-6.362-7.715c-0.286-0.057-0.534-0.233-0.679-0.487
				S51.4,29.319,51.5,29.044c0.311-0.868,0.469-1.759,0.469-2.65c0-4.335-3.527-7.862-7.861-7.862c-1.279,0-2.506,0.302-3.643,0.898
				c-0.428,0.224-0.953,0.111-1.25-0.268c-2.244-2.853-5.602-4.489-9.211-4.489c-4.992,0-9.441,3.176-11.072,7.902
				c-0.086,0.252-0.271,0.459-0.512,0.575c-0.24,0.115-0.518,0.131-0.77,0.041C16.366,22.732,15.042,22.5,13.72,22.5z"/>
		</g>
		
	</g>
</g>
<g>
</g>
<g>
</g>
<g>
</g>
<g>
</g>
<g>
</g>
<g>
</g>
<g>
</g>
<g>
</g>
<g>
</g>
<g>
</g>
<g>
</g>
<g>
</g>
<g>
</g>
<g>
</g>
<g>
</g>
</svg>
