<?xml version="1.0" ?><svg fill="none" height="27" viewBox="0 0 42 27" width="42" xmlns="http://www.w3.org/2000/svg"><path d="M40.7 19.1C40.7 15.5 37.2 12.5 32.8 12.3C32 9.29999 29.4 7.09998 26.2 7.09998C25.4 7.09998 24.6 7.3 23.8 7.5C22.5 4.2 19.2 1.90002 15.5 1.90002C10.5 1.90002 6.5 5.90002 6.5 10.9C6.5 11.4 6.50001 11.8 6.60001 12.3C3.60001 12.8 1.29999 15.5 1.29999 18.6C1.29999 21.5 2.70001 23.6 5.60001 25C6.20001 25.3 7.50001 25.9 8.60001 25.9H32.6C32.7 25.9 32.8 25.9 32.9 25.9C37.3 25.7 40.7 22.7 40.7 19.1Z" stroke="#ffffff" stroke-miterlimit="10" stroke-width="2"/></svg>