<?xml version="1.0" encoding="iso-8859-1"?>
<!-- Generator: Adobe Illustrator 19.0.0, SVG Export Plug-In . SVG Version: 6.00 Build 0)  -->
<svg version="1.1" id="Layer_1" xmlns="http://www.w3.org/2000/svg" xmlns:xlink="http://www.w3.org/1999/xlink" x="0px" y="0px"
	 viewBox="0 0 512.002 512.002" style="enable-background:new 0 0 512.002 512.002;" xml:space="preserve">
<g>
	<g>
		<g>
			<path style="fill:#ffffff" d="M426.665,458.669c-8.64,0-16.107,5.141-19.456,12.544c-7.403,3.349-12.544,10.795-12.544,19.456
				c0,11.776,9.536,21.333,21.333,21.333h10.667c11.797,0,21.333-9.557,21.333-21.333v-10.667
				C447.999,468.226,438.463,458.669,426.665,458.669z"/>
			<path style="fill:#ffffff" d="M210.269,469.336h-22.848c-11.797,0-21.333,9.557-21.333,21.333s9.536,21.333,21.333,21.333h22.848
				c11.797,0,21.333-9.557,21.333-21.333S222.066,469.336,210.269,469.336z"/>
			<path style="fill:#ffffff" d="M324.562,469.336h-22.848c-11.797,0-21.333,9.557-21.333,21.333s9.536,21.333,21.333,21.333h22.848
				c11.797,0,21.333-9.557,21.333-21.333S336.359,469.336,324.562,469.336z"/>
			<path style="fill:#ffffff" d="M426.665,156.565c-11.797,0-21.333,9.557-21.333,21.333v20.139c0,11.797,9.536,21.333,21.333,21.333
				s21.333-9.536,21.333-21.333v-20.139C447.999,166.123,438.463,156.565,426.665,156.565z"/>
			<path style="fill:#ffffff" d="M426.665,357.961c-11.797,0-21.333,9.557-21.333,21.333v20.139c0,11.797,9.536,21.333,21.333,21.333
				s21.333-9.536,21.333-21.333v-20.139C447.999,367.518,438.463,357.961,426.665,357.961z"/>
			<path style="fill:#ffffff" d="M426.665,257.263c-11.797,0-21.333,9.557-21.333,21.333v20.139c0,11.797,9.536,21.333,21.333,21.333
				s21.333-9.536,21.333-21.333v-20.139C447.999,266.82,438.463,257.263,426.665,257.263z"/>
			<path style="fill:#B5C2C8" d="M293.187,291.605c0.064-0.064,0.128-0.149,0.213-0.213l149.333-170.667c7.381-8.469,6.955-21.205-0.981-29.141
				l-6.549-6.549c-0.021,0-0.021-0.043-0.043-0.064L420.91,70.741l-0.021-0.021L363.95,13.803l-7.531-7.552
				C352.408,2.261,346.99,0,341.336,0H330.67H226.371h-26.069H96.003H85.336C73.539,0,64.003,9.557,64.003,21.333V32v94.315v23.573
				v94.336v23.573v94.315v23.573V480v10.667c0,2.624,0.619,5.12,1.515,7.488c0.277,0.725,0.64,1.365,1.003,2.069
				c0.811,1.579,1.771,3.008,2.923,4.352c0.533,0.597,1.024,1.195,1.621,1.728c1.429,1.301,3.051,2.368,4.843,3.264
				c0.491,0.256,0.917,0.597,1.429,0.811c0.128,0.064,0.235,0.149,0.341,0.213c2.517,0.96,5.099,1.408,7.659,1.408h10.667
				c11.797,0,21.333-9.557,21.333-21.333c0-1.088-0.32-2.091-0.469-3.157L293.187,291.605z"/>
		</g>
	</g>
</g>
<g>
</g>
<g>
</g>
<g>
</g>
<g>
</g>
<g>
</g>
<g>
</g>
<g>
</g>
<g>
</g>
<g>
</g>
<g>
</g>
<g>
</g>
<g>
</g>
<g>
</g>
<g>
</g>
<g>
</g>
</svg>
