<?xml version="1.0" encoding="iso-8859-1"?>
<!-- Generator: Adobe Illustrator 19.0.0, SVG Export Plug-In . SVG Version: 6.00 Build 0)  -->
<svg version="1.1" id="Layer_1" xmlns="http://www.w3.org/2000/svg" xmlns:xlink="http://www.w3.org/1999/xlink" x="0px" y="0px"
	 viewBox="0 0 469.333 469.333" style="enable-background:new 0 0 469.333 469.333;" xml:space="preserve">
<g>
	<g>
		<g>
			<path fill="#D0DFE5" d="M458.667,0h-64C388.771,0,384,4.771,384,10.667v32h-10.667c-5.896,0-10.667,4.771-10.667,10.667
				c0,5.896,4.771,10.667,10.667,10.667H384v10.667c0,5.896,4.771,10.667,10.667,10.667h10.667V96
				c0,5.896,4.771,10.667,10.667,10.667c5.896,0,10.667-4.771,10.667-10.667V85.333h32c5.896,0,10.667-4.771,10.667-10.667v-64
				C469.333,4.771,464.563,0,458.667,0z M448,64h-42.667V21.333H448V64z"/>
			<path fill="#D0DFE5" d="M458.667,384h-32v-10.667c0-5.896-4.771-10.667-10.667-10.667c-5.896,0-10.667,4.771-10.667,10.667V384h-10.667
				c-5.896,0-10.667,4.771-10.667,10.667v10.667h-10.667c-5.896,0-10.667,4.771-10.667,10.667c0,5.896,4.771,10.667,10.667,10.667
				H384v32c0,5.896,4.771,10.667,10.667,10.667h64c5.896,0,10.667-4.771,10.667-10.667v-64C469.333,388.771,464.563,384,458.667,384
				z M448,448h-42.667v-42.667H448V448z"/>
			<path fill="#D0DFE5" d="M96,42.667H85.333v-32C85.333,4.771,80.562,0,74.667,0h-64C4.771,0,0,4.771,0,10.667v64
				c0,5.896,4.771,10.667,10.667,10.667h32V96c0,5.896,4.771,10.667,10.667,10.667C59.229,106.667,64,101.896,64,96V85.333h10.667
				c5.896,0,10.667-4.771,10.667-10.667V64H96c5.896,0,10.667-4.771,10.667-10.667C106.667,47.437,101.896,42.667,96,42.667z M64,64
				H21.333V21.333H64V64z"/>
			<path fill="#D0DFE5" d="M304,42.667h-34.667c-5.896,0-10.667,4.771-10.667,10.667c0,5.896,4.771,10.667,10.667,10.667H304
				c5.896,0,10.667-4.771,10.667-10.667C314.667,47.437,309.896,42.667,304,42.667z"/>
			<path fill="#D0DFE5" d="M200,42.667h-34.667c-5.896,0-10.667,4.771-10.667,10.667c0,5.896,4.771,10.667,10.667,10.667H200
				c5.896,0,10.667-4.771,10.667-10.667C210.667,47.437,205.896,42.667,200,42.667z"/>
			<path fill="#D0DFE5" d="M405.333,304c0,5.896,4.771,10.667,10.667,10.667c5.896,0,10.667-4.771,10.667-10.667v-34.667
				c0-5.896-4.771-10.667-10.667-10.667c-5.896,0-10.667,4.771-10.667,10.667V304z"/>
			<path fill="#D0DFE5" d="M416,210.667c5.896,0,10.667-4.771,10.667-10.667v-34.667c0-5.896-4.771-10.667-10.667-10.667
				c-5.896,0-10.667,4.771-10.667,10.667V200C405.333,205.896,410.104,210.667,416,210.667z"/>
			<path fill="#D0DFE5" d="M304,405.333h-34.667c-5.896,0-10.667,4.771-10.667,10.667c0,5.896,4.771,10.667,10.667,10.667H304
				c5.896,0,10.667-4.771,10.667-10.667C314.667,410.104,309.896,405.333,304,405.333z"/>
			<path fill="#D0DFE5" d="M200,405.333h-34.667c-5.896,0-10.667,4.771-10.667,10.667c0,5.896,4.771,10.667,10.667,10.667H200
				c5.896,0,10.667-4.771,10.667-10.667C210.667,410.104,205.896,405.333,200,405.333z"/>
			<path fill="#D0DFE5" d="M96,405.333H85.333v-10.667c0-5.896-4.771-10.667-10.667-10.667H64v-10.667c0-5.896-4.771-10.667-10.667-10.667
				c-5.896,0-10.667,4.771-10.667,10.667V384h-32C4.771,384,0,388.771,0,394.667v64c0,5.896,4.771,10.667,10.667,10.667h64
				c5.896,0,10.667-4.771,10.667-10.667v-32H96c5.896,0,10.667-4.771,10.667-10.667C106.667,410.104,101.896,405.333,96,405.333z
				 M64,448H21.333v-42.667H64V448z"/>
			<path fill="#D0DFE5" d="M42.667,304c0,5.896,4.771,10.667,10.667,10.667C59.229,314.667,64,309.896,64,304v-34.667
				c0-5.896-4.771-10.667-10.667-10.667c-5.896,0-10.667,4.771-10.667,10.667V304z"/>
			<path fill="#D0DFE5" d="M53.333,210.667C59.229,210.667,64,205.896,64,200v-34.667c0-5.896-4.771-10.667-10.667-10.667
				c-5.896,0-10.667,4.771-10.667,10.667V200C42.667,205.896,47.437,210.667,53.333,210.667z"/>
		</g>
	</g>
</g>
<g>
</g>
<g>
</g>
<g>
</g>
<g>
</g>
<g>
</g>
<g>
</g>
<g>
</g>
<g>
</g>
<g>
</g>
<g>
</g>
<g>
</g>
<g>
</g>
<g>
</g>
<g>
</g>
<g>
</g>
</svg>
