<?xml version="1.0" ?><!DOCTYPE svg  PUBLIC '-//W3C//DTD SVG 1.1//EN'  'http://www.w3.org/Graphics/SVG/1.1/DTD/svg11.dtd'>
<svg height="100%" style="fill-rule:evenodd;clip-rule:evenodd;stroke-linejoin:round;stroke-miterlimit:2;" version="1.1" viewBox="0 0 24 24" width="100%" xml:space="preserve" xmlns="http://www.w3.org/2000/svg" xmlns:serif="http://www.serif.com/" xmlns:xlink="http://www.w3.org/1999/xlink"><g id="Icon">
<path style="fill:#ffffff;" d="M2.25,7l0,10c-0,1.26 0.5,2.468 1.391,3.359c0.891,0.891 2.099,1.391 3.359,1.391c2.977,0 7.023,0 10,0c2.623,0 4.75,-2.127 4.75,-4.75c0,-2.734 0,-6.131 -0,-7.672c-0,-0.729 -0.29,-1.428 -0.805,-1.944c-1.057,-1.057 -3.272,-3.272 -4.329,-4.329c-0.516,-0.515 -1.215,-0.805 -1.944,-0.805c-1.541,0 -4.938,0 -7.672,0c-2.623,0 -4.75,2.127 -4.75,4.75l0,0Zm14.5,13.25l0,-4.75c-0,-0.332 -0.132,-0.649 -0.366,-0.884c-0.235,-0.234 -0.552,-0.366 -0.884,-0.366c-1.986,-0 -5.014,-0 -7,0c-0.332,-0 -0.649,0.132 -0.884,0.366c-0.234,0.235 -0.366,0.552 -0.366,0.884l0,4.75l9.5,0Zm-10.5,-16.413c-1.433,0.339 -2.5,1.626 -2.5,3.163l-0,10c-0,0.862 0.342,1.689 0.952,2.298c0.303,0.303 0.66,0.54 1.048,0.702l0,-4.5c0,-0.729 0.29,-1.429 0.805,-1.945c0.516,-0.515 1.216,-0.805 1.945,-0.805c1.986,-0 5.014,-0 7,0c0.729,-0 1.429,0.29 1.945,0.805c0.515,0.516 0.805,1.216 0.805,1.945l0,4.501c1.175,-0.49 2,-1.649 2,-3.001c0,-2.734 0,-6.131 -0,-7.672c-0,-0.331 -0.132,-0.649 -0.366,-0.883l-4.134,-4.134l-0,2.189c-0,0.967 -0.784,1.75 -1.75,1.75c-1.537,-0 -4.463,-0 -6,0c-0.966,-0 -1.75,-0.783 -1.75,-1.75l0,-2.663Zm8,-0.087l-6.5,0l-0,2.75c0,0.138 0.112,0.25 0.25,0.25c1.537,-0 4.463,-0 6,0c0.138,-0 0.25,-0.112 0.25,-0.25l-0,-2.75Z"/></g></svg>