<?xml version="1.0"?>
<svg xmlns="http://www.w3.org/2000/svg" viewBox="0 0 64 64" width="512" height="512"><g id="Blueprint"><path fill="#D0DFE5" d="M55,6a1,1,0,0,0-1,1v5H10V7A1,1,0,0,0,9,6a7.008,7.008,0,0,0-7,7V51.21A6.8,6.8,0,0,0,8.79,58H55.21A6.8,6.8,0,0,0,62,51.206V13A7.008,7.008,0,0,0,55,6ZM4,13A5.008,5.008,0,0,1,8,8.1v35.97a6.991,6.991,0,0,0-4,2.034ZM60,51.21A4.8,4.8,0,0,1,55.21,56H8.79A4.8,4.8,0,0,1,4,51.206V51a5.006,5.006,0,0,1,5-5,1,1,0,0,0,1-1V14H54V45a1,1,0,0,0,1,1,5.006,5.006,0,0,1,5,5Zm0-5.105a6.991,6.991,0,0,0-4-2.034V8.1A5.008,5.008,0,0,1,60,13Z"/><path fill="#D0DFE5" d="M51,20H22a1,1,0,0,0-1,1v7H13a1,1,0,0,0-1,1V49a1,1,0,0,0,1,1H37a1,1,0,0,0,1-1V36h7a1,1,0,0,0,0-2H27a1,1,0,0,0-1,1v5a1,1,0,0,0,2,0V36h8V48H28V44a1,1,0,0,0-2,0v4H14V40h8a1,1,0,0,0,0-2H14V30h8a1,1,0,0,0,1-1V22H36v8a1,1,0,0,0,2,0V22h5.069A8.008,8.008,0,0,0,50,28.931V48H42a1,1,0,0,0,0,2h9a1,1,0,0,0,1-1V21A1,1,0,0,0,51,20Zm-5.91,2H50v4.91A6.008,6.008,0,0,1,45.09,22Z"/></g></svg>
