<?xml version="1.0" encoding="iso-8859-1"?>
<!-- Generator: Adobe Illustrator 19.0.0, SVG Export Plug-In . SVG Version: 6.00 Build 0)  -->
<svg version="1.1" id="Layer_1" xmlns="http://www.w3.org/2000/svg" xmlns:xlink="http://www.w3.org/1999/xlink" x="0px" y="0px"
	 viewBox="0 0 512 512" style="enable-background:new 0 0 512 512;" xml:space="preserve">
<circle style="fill:#D83E20;" cx="256" cy="256" r="256"/>
<g>
	<path style="fill:#C1321F;" d="M418.647,453.697L249.775,284.17l-55.094,42.229l-32.571-32.918l-31.03,87.435L261.96,511.924
		C321.407,510.566,375.849,488.948,418.647,453.697z"/>
	<path style="fill:#C1321F;" d="M453.441,418.961c35.181-42.577,56.851-96.723,58.458-155.881L380.923,131.084l0,0l-87.435,31.029
		l27.996,28.217l-37.733,59.864L453.441,418.961z"/>
</g>
<g>
	<polygon style="fill:#FFFFFF;" points="227.831,262.227 162.109,327.949 162.109,293.481 131.079,293.481 131.079,380.916 
		218.514,380.916 218.514,349.886 184.058,349.886 249.773,284.17 	"/>
	<polygon style="fill:#FFFFFF;" points="293.488,131.082 293.488,162.113 327.944,162.114 261.808,228.25 283.75,250.194 
		349.893,184.051 349.891,218.521 380.921,218.521 380.923,131.084 	"/>
</g>
<g>
	<polygon style="fill:#E6F3FF;" points="238.802,273.199 131.086,380.916 218.514,380.916 218.514,349.886 184.058,349.886 
		249.773,284.17 	"/>
	<polygon style="fill:#E6F3FF;" points="272.779,239.223 283.75,250.194 349.893,184.051 349.891,218.521 380.921,218.521 
		380.923,131.084 380.923,131.084 	"/>
</g>
<g>
</g>
<g>
</g>
<g>
</g>
<g>
</g>
<g>
</g>
<g>
</g>
<g>
</g>
<g>
</g>
<g>
</g>
<g>
</g>
<g>
</g>
<g>
</g>
<g>
</g>
<g>
</g>
<g>
</g>
</svg>
