<?xml version="1.0" encoding="iso-8859-1"?>
<!-- Generator: Adobe Illustrator 19.0.0, SVG Export Plug-In . SVG Version: 6.00 Build 0)  -->
<svg version="1.1" id="Layer_1" xmlns="http://www.w3.org/2000/svg" xmlns:xlink="http://www.w3.org/1999/xlink" x="0px" y="0px"
	 viewBox="0 0 512 512" style="enable-background:new 0 0 512 512;" xml:space="preserve">
<g>
	<g>
		<path style="fill:#FC3F1D;" d="M490.305,227.254h-52.068V43.932h11.932c11.932,0,21.695-9.763,21.695-21.695
			s-9.763-21.695-21.695-21.695h-33.627H306.983h-34.712c-11.932,0-21.695,9.763-21.695,21.695s9.763,21.695,21.695,21.695h13.017
			v183.322H21.695C9.763,227.254,0,237.017,0,248.949v240.814c0,11.932,9.763,21.695,21.695,21.695h98.712h84.61h101.966h84.61
			h98.712c11.932,0,20.61-8.678,21.695-21.695V248.949C512,237.017,502.237,227.254,490.305,227.254z M327.593,43.932h66.169
			v183.322h-66.169V43.932z M142.102,469.153V365.017h42.305v104.136H142.102z M327.593,469.153V365.017h42.305v104.136H327.593z
			 M468.61,469.153h-55.322v-125.83c0-11.932-9.763-21.695-21.695-21.695h-84.61c-11.932,0-21.695,9.763-21.695,21.695v125.83
			h-58.576v-125.83c0-11.932-9.763-21.695-21.695-21.695h-84.61c-11.932,0-21.695,9.763-21.695,21.695v125.83H43.39V270.644h263.593
			h108.475h53.153V469.153z"/>
	</g>
</g>
<g>
</g>
<g>
</g>
<g>
</g>
<g>
</g>
<g>
</g>
<g>
</g>
<g>
</g>
<g>
</g>
<g>
</g>
<g>
</g>
<g>
</g>
<g>
</g>
<g>
</g>
<g>
</g>
<g>
</g>
</svg>
