<svg xmlns="http://www.w3.org/2000/svg" xmlns:xlink="http://www.w3.org/1999/xlink" viewBox="0 0 40 40"><defs><style>.cls-1{fill:none;}.cls-2{clip-path:url(#clip-path);}.cls-3{fill:#fff;}.cls-4{fill:#6C757D;}.cls-5{fill:#6C757D;}</style><clipPath id="clip-path"><circle class="cls-1" cx="20" cy="20" r="20"/></clipPath></defs><g id="Capa_2" data-name="Capa 2"><g id="Capa_1-2" data-name="Capa 1"><g class="cls-2"><path class="cls-3" d="M66.47,20q0,10.52,0,21c0,.27-.07.34-.64.34H-13.81c-.59,0-.68-.07-.68-.36q0-21,0-42c0-.28.07-.36.68-.36q39.83,0,79.66,0c.56,0,.64.07.64.34Q66.46,9.49,66.47,20Z"/><path class="cls-4" d="M42.18,16.45c7.76,0,15.52,0,23.27,0,.75,0,.9.23.88.91,0,1.58,0,3.16,0,4.73,0,.69-.14.87-.85.87q-18.81,0-37.62,0c-3,0-6,0-9,0-.65,0-.83.15-.83.82,0,5.6,0,11.2,0,16.8,0,.7-.18.87-.87.85-1.63,0-3.26,0-4.89,0-.62,0-.79-.15-.79-.78,0-5.6,0-11.2,0-16.8,0-.74-.22-.89-.92-.89-8,0-16,0-24,0-.72,0-.85-.21-.83-.87,0-1.61.05-3.21,0-4.81,0-.65.14-.83.8-.83,8,0,16,0,24,0,.76,0,1-.17,1-.94,0-5.28,0-10.57,0-15.85,0-.75.22-.91.92-.89,1.63.05,3.26,0,4.89,0,.59,0,.74.15.74.74,0,5.34,0,10.68,0,16,0,.8.23.93,1,.93C26.72,16.44,34.45,16.45,42.18,16.45Z"/><path class="cls-5" d="M43.84,26.17q10.81,0,21.62,0c.65,0,.89.1.88.84,0,3.63,0,7.25,0,10.88a3.31,3.31,0,0,1-3.38,3.48h-.55q-20.07,0-40.15,0c-.76,0-.95-.18-.94-.94,0-4.47,0-8.94,0-13.41,0-.67.13-.88.85-.87C29.38,26.18,36.61,26.17,43.84,26.17Z"/><path class="cls-5" d="M43.81,13.2c-7.21,0-14.41,0-21.62,0-.74,0-.89-.21-.89-.91,0-4.26,0-8.52,0-12.78,0-.58.14-.74.73-.74q20.35,0,40.71,0A3.32,3.32,0,0,1,66.32,2.4c0,3.32,0,6.63,0,9.94,0,.76-.24.88-.92.88Q54.61,13.19,43.81,13.2Z"/><path class="cls-5" d="M-2.93,26.17c3.47,0,6.94,0,10.41,0,.58,0,.81.09.81.76q0,6.86,0,13.72c0,.59-.15.74-.74.74-6,0-12.1,0-18.14,0a3.32,3.32,0,0,1-3.57-3.6c0-3.55,0-7.1,0-10.64,0-.85.25-1,1-1C-9.76,26.19-6.35,26.17-2.93,26.17Z"/><path class="cls-5" d="M-2.94,13.2c-3.5,0-7,0-10.49,0-.59,0-.75-.13-.74-.73,0-3.39,0-6.79,0-10.18a3.3,3.3,0,0,1,3.58-3.5H4.49c1,0,2.1,0,3.15,0,.45,0,.65.08.64.6q0,6.62,0,13.25c0,.54-.24.57-.66.57Z"/></g></g></g></svg>