<?xml version="1.0" encoding="iso-8859-1"?>
<!-- Generator: Adobe Illustrator 18.1.1, SVG Export Plug-In . SVG Version: 6.00 Build 0)  -->
<svg version="1.1" id="Capa_1" xmlns="http://www.w3.org/2000/svg" xmlns:xlink="http://www.w3.org/1999/xlink" x="0px" y="0px"
	 viewBox="0 0 72 72" style="enable-background:new 0 0 72 72;" xml:space="preserve">
<g id="_x37_7_Essential_Icons_64_">
	<path style="fill:#ffffff;" id="Tag" d="M70.046,0h-27.4c-0.5,0-1,0.2-1.4,0.6l-40.6,40.5c-0.8,0.8-0.8,2.1,0,2.8l27.4,27.5c0.8,0.8,2,0.8,2.8,0
		l40.5-40.5c0.4-0.4,0.6-0.9,0.6-1.4V2C72.046,0.9,71.146,0,70.046,0z M68.046,28.6l-38.5,38.6l-24.7-24.6L43.446,4h24.6V28.6z
		 M54.046,9.9c-4.4,0-8,3.6-8,8s3.6,8,8,8s8-3.6,8-8S58.446,9.9,54.046,9.9z M56.846,20.8c-1.5,1.5-4.2,1.5-5.7,0
		c-1.6-1.6-1.6-4.1,0-5.7s4.1-1.6,5.7,0C58.446,16.7,58.446,19.2,56.846,20.8z"/>
</g>
<g>
</g>
<g>
</g>
<g>
</g>
<g>
</g>
<g>
</g>
<g>
</g>
<g>
</g>
<g>
</g>
<g>
</g>
<g>
</g>
<g>
</g>
<g>
</g>
<g>
</g>
<g>
</g>
<g>
</g>
</svg>
