<?xml version="1.0" encoding="iso-8859-1"?>
<!-- Generator: Adobe Illustrator 19.2.1, SVG Export Plug-In . SVG Version: 6.00 Build 0)  -->
<svg version="1.1" xmlns="http://www.w3.org/2000/svg" xmlns:xlink="http://www.w3.org/1999/xlink" x="0px" y="0px"
	 viewBox="0 0 32.001 32" style="enable-background:new 0 0 32.001 32;" xml:space="preserve">
<g id="Layer_39">
	<rect x="8" y="16" style="fill:#c8ccd8;" width="4" height="4"/>
	<rect x="14" y="12" style="fill:#c8ccd8;" width="4" height="8"/>
	<rect x="20" y="8" style="fill:#c8ccd8;" width="4" height="12"/>
	<path style="fill:#ffffff;" d="M28.999,0h-26C1.342,0.001,0,1.343,0,3c0,1.305,0,2.403,2,2.816V23c0,0.263,0.106,0.521,0.292,0.707
		C2.479,23.893,2.736,24,2.999,24H14v2.184c-2,0.413-1.999,1.511-2,2.816c0.002,1.658,1.343,2.998,3,3c1.656-0.002,2.999-1.342,3-3
		c-0.001-1.305,0-2.402-2-2.816V24h12.999c0.263,0,0.521-0.107,0.708-0.293C29.893,23.521,30,23.263,30,23V5.816
		C32,5.403,31.999,4.305,32,3C31.999,1.343,30.656,0.001,28.999,0z M14.999,30c-0.549-0.001-0.999-0.451-1-1
		c0.001-0.549,0.451-0.999,1-1c0.549,0.001,0.999,0.451,1,1C15.998,29.549,15.548,29.999,14.999,30z M28,22H4V6h24V22z M28.999,4
		h-26C2.447,3.999,2,3.552,1.999,3c0.001-0.552,0.448-0.999,1-1h26c0.552,0.001,0.999,0.448,1,1C29.998,3.552,29.551,3.999,28.999,4
		z"/>
	<rect x="0.001" style="fill:none;" width="32" height="32"/>
</g>
<g id="Layer_1">
</g>
</svg>
