<svg id="Capa_1" enable-background="new 0 0 508.568 508.568" height="512" viewBox="0 0 508.568 508.568" width="512" xmlns="http://www.w3.org/2000/svg"><g><path d="m481.306 254.275c0-52.596-18.401-103.87-51.815-144.375-32.962-39.958-78.906-67.664-129.37-78.014l-6.027 29.389c43.773 8.978 83.64 33.026 112.255 67.715 28.992 35.145 44.958 79.638 44.958 125.285 0 99.135-73.603 181.39-169.029 195.023l6.735-11.003-25.588-15.662-27.392 44.749 32.503 41.187 23.551-18.585-8.35-10.58c49.479-6.37 95.22-28.743 131.076-64.6 42.878-42.879 66.493-99.889 66.493-160.529z" fill="#c8ccd8"/><path d="m239.981 0-23.527 18.613 8.338 10.539c-49.463 6.378-95.189 28.748-131.036 64.595-42.879 42.878-66.493 99.889-66.493 160.528 0 52.596 18.401 103.87 51.815 144.375 32.962 39.958 78.906 67.664 129.37 78.014l6.027-29.389c-43.773-8.978-83.64-33.026-112.255-67.716-28.992-35.145-44.958-79.638-44.958-125.285 0-99.152 73.627-181.417 169.077-195.031l-6.747 11.052 25.605 15.631 27.336-44.782z" fill="#ffffff"/><path d="m224.532 254.276c0-16.433 13.319-29.752 29.752-29.752l7.646-43.636-7.646-46.612h-28.76l-5.038 36.298c-7.874 3.183-15.183 7.438-21.769 12.585l-33.977-13.785-28.76 49.805 28.929 22.532c-.575 4.106-.873 8.301-.873 12.565 0 4.265.298 8.46.873 12.565l-28.929 22.532 28.76 49.805 33.977-13.785c6.585 5.147 13.894 9.402 21.769 12.585l5.038 36.298h28.76l8.638-49.587-8.638-40.661c-16.433 0-29.752-13.319-29.752-29.752z" fill="#ffffff"/><path d="m344.532 254.276c0-4.265-.307-8.46-.873-12.565l28.929-22.532-28.76-49.805-33.977 13.785c-6.585-5.147-13.904-9.402-21.769-12.585l-5.038-36.298h-28.76v90.248c16.433 0 29.752 13.319 29.752 29.752s-13.319 29.752-29.752 29.752v90.248h28.76l5.038-36.298c7.864-3.183 15.183-7.438 21.769-12.585l33.977 13.785 28.76-49.805-28.929-22.532c.566-4.106.873-8.301.873-12.565z" fill="#c8ccd8"/></g></svg>