<svg id="Capa_1" enable-background="new 0 0 512 512" height="20" viewBox="0 0 512 512" width="20" xmlns="http://www.w3.org/2000/svg"><g fill="#505f79"><path d="m493.007 237.007c0-63.307-24.653-122.824-69.418-167.589s-104.282-69.418-167.589-69.418-122.824 24.653-167.589 69.418-69.418 104.282-69.418 167.589c0 49.864 15.311 97.573 44.277 137.969 28.339 39.521 67.422 69.017 113.025 85.298 7.8 2.782 16.384-1.282 19.17-9.083 2.786-7.803-1.281-16.385-9.083-19.171-24.339-8.689-46.549-21.701-65.799-38.383l25.304-25.304c5.858-5.857 5.858-15.355 0-21.213-5.857-5.857-15.355-5.857-21.213 0l-25.281 25.28c-4.115-4.768-8.036-9.737-11.744-14.906-22.37-31.197-35.403-67.4-38.116-105.487h64.028c8.284 0 15-6.716 15-15s-6.716-15-15-15h-64.021c3.297-45.815 21.562-87.55 49.928-120.319l25.206 25.206c2.929 2.929 6.768 4.394 10.606 4.394s7.678-1.465 10.606-4.394c5.858-5.857 5.858-15.355 0-21.213l-25.206-25.206c32.77-28.366 74.505-46.631 120.32-49.928v64.021c0 8.284 6.716 15 15 15s15-6.716 15-15v-64.021c45.815 3.297 87.55 21.562 120.318 49.928l-25.206 25.206c-5.858 5.857-5.858 15.354 0 21.213 2.929 2.93 6.768 4.394 10.606 4.394s7.678-1.465 10.606-4.394l25.206-25.206c28.366 32.769 46.631 74.504 49.928 120.319h-64.021c-8.284 0-15 6.716-15 15s6.716 15 15 15h64.021c-3.297 45.815-21.562 87.55-49.928 120.319l-25.206-25.206c-5.857-5.857-15.355-5.857-21.213 0s-5.858 15.355 0 21.213l25.206 25.206c-26.668 23.085-59.278 39.474-95.188 46.557l8.463-8.463c5.858-5.858 5.858-15.355 0-21.213-5.857-5.857-15.355-5.857-21.213 0l-37.987 37.987c-.016.016-.029.034-.046.05-.331.334-.648.684-.947 1.048-.146.178-.274.366-.411.55-.156.208-.317.412-.462.629s-.271.442-.404.665c-.118.198-.242.391-.351.594-.121.226-.223.458-.332.689-.101.213-.207.423-.298.641-.092.223-.167.452-.248.678-.084.235-.175.467-.247.708-.068.226-.118.455-.176.683-.062.247-.131.49-.181.741-.052.262-.083.527-.121.791-.031.22-.073.437-.095.66-.048.485-.073.971-.074 1.458 0 .007-.001.015-.001.022 0 .008.001.015.001.015.001.494.026.98.074 1.465.022.226.064.445.096.668.038.261.068.523.12.783.05.254.12.5.183.749.057.225.106.451.173.674.074.244.165.48.251.719.08.223.153.448.244.667.093.223.201.438.304.656.106.226.207.453.325.674.112.21.24.409.362.613.129.216.251.435.392.645.152.227.32.44.484.658.13.173.25.351.389.52.315.384.647.752.997 1.103l37.984 37.984c2.929 2.929 6.768 4.394 10.606 4.394s7.678-1.465 10.606-4.394c5.858-5.857 5.858-15.355 0-21.213l-14.772-14.772c50.475-7.168 97.078-30.336 133.768-67.026 44.769-44.765 69.422-104.283 69.422-167.589z"/><path d="m277.057 238.583c-13.57-4.797-28.579-10.592-36.993-17.191-2.645-2.074-3.789-6.824-2.848-11.819.469-2.491 2.664-10.821 11.183-13.388 13.991-4.216 23.58 1.374 27.055 3.973 6.637 4.962 16.035 3.603 20.996-3.031 4.96-6.635 3.604-16.035-3.031-20.996-3.149-2.354-11.035-7.516-22.342-10.022v-6.104c0-8.284-6.716-15-15-15s-15 6.716-15 15v7.083c-.443.124-.883.238-1.331.373-16.429 4.949-28.695 18.957-32.012 36.557-3.052 16.2 2.241 31.903 13.814 40.98 9.533 7.478 22.718 13.814 45.509 21.871 15.173 5.363 14.844 17.643 13.998 22.673-1.715 10.199-10.294 21.221-25.079 21.319-14.502.089-19.017-.621-30.156-7.907-6.933-4.536-16.229-2.591-20.764 4.341-4.535 6.933-2.591 16.229 4.341 20.765 12.014 7.859 20.878 11.047 31.679 12.209v6.856c0 8.284 6.716 15 15 15s15-6.716 15-15v-8.297c8.264-2.275 15.795-6.431 22.231-12.346 9.12-8.38 15.276-19.732 17.333-31.967 4.183-24.876-9.314-47.353-33.583-55.932z" fill="#505f79"/></g></svg>