<?xml version="1.0" encoding="iso-8859-1"?>
<!-- Generator: Adobe Illustrator 19.0.0, SVG Export Plug-In . SVG Version: 6.00 Build 0)  -->
<svg version="1.1" id="Layer_1" xmlns="http://www.w3.org/2000/svg" xmlns:xlink="http://www.w3.org/1999/xlink" x="0px" y="0px"
	 viewBox="0 0 512 512" style="enable-background:new 0 0 512 512;" xml:space="preserve">
<path style="fill:#DBE1E5;" d="M509.823,252.636L390.179,41.497c-2.961-5.237-8.524-8.477-14.546-8.477H136.367
	c-6.02,0-11.585,3.239-14.546,8.477L2.177,252.636c-2.961,5.227-2.896,11.628,0.163,16.789l119.644,201.372
	c3.016,5.074,8.481,8.182,14.382,8.182h239.266c5.901,0,11.366-3.108,14.382-8.182l119.644-201.372
	C512.719,264.264,512.785,257.862,509.823,252.636z M256,377.947c-64.552,0-117.064-52.516-117.064-117.064
	S191.448,143.82,256,143.82s117.064,52.516,117.064,117.064S320.553,377.947,256,377.947z"/>
<path style="fill:#C9D3D9;" d="M373.064,260.884c0,64.548-52.511,117.064-117.064,117.064v101.032h119.634
	c5.901,0,11.366-3.108,14.382-8.182l119.644-201.372c3.059-5.161,3.125-11.563,0.163-16.789L390.179,41.497
	c-2.961-5.237-8.524-8.477-14.546-8.477H256v110.798C320.553,143.82,373.064,196.336,373.064,260.884z"/>
<path style="fill:#C9D2D9;" d="M256,143.82c-64.552,0-117.064,52.516-117.064,117.064S191.448,377.947,256,377.947
	s117.064-52.516,117.064-117.064S320.553,143.82,256,143.82z M256,344.501c-46.109,0-83.617-37.508-83.617-83.617
	s37.508-83.617,83.617-83.617s83.617,37.508,83.617,83.617S302.109,344.501,256,344.501z"/>
<path style="fill:#B7C4CC;" d="M339.617,260.884c0,46.109-37.508,83.617-83.617,83.617v33.447
	c64.552,0,117.064-52.516,117.064-117.064S320.553,143.82,256,143.82v33.447C302.109,177.267,339.617,214.774,339.617,260.884z"/>
<g>
</g>
<g>
</g>
<g>
</g>
<g>
</g>
<g>
</g>
<g>
</g>
<g>
</g>
<g>
</g>
<g>
</g>
<g>
</g>
<g>
</g>
<g>
</g>
<g>
</g>
<g>
</g>
<g>
</g>
</svg>
