<?xml version="1.0" encoding="iso-8859-1"?>
<!-- Generator: Adobe Illustrator 19.0.0, SVG Export Plug-In . SVG Version: 6.00 Build 0)  -->
<svg version="1.1" id="Layer_1" xmlns="http://www.w3.org/2000/svg" xmlns:xlink="http://www.w3.org/1999/xlink" x="0px" y="0px"
	 viewBox="0 0 493.773 493.773" style="enable-background:new 0 0 493.773 493.773;" xml:space="preserve">
<path style="fill:#ACB5BC;" d="M479.256,485.896c0,4.356-3.521,7.877-7.877,7.877H22.394c-4.356,0-7.877-3.521-7.877-7.877v-13.785
	c0-4.356,3.521-7.877,7.877-7.877h448.985c4.356,0,7.877,3.521,7.877,7.877V485.896z"/>
<path style="fill:#6c757d;" d="M22.394,464.234c-4.001,0-7.168,3.033-7.68,6.892c0.512,3.86,3.679,6.892,7.68,6.892h448.985
	c4.001,0,7.168-3.033,7.68-6.892c-0.504-3.86-3.678-6.892-7.68-6.892H22.394z"/>
<path style="fill:#6c757d;" d="M424.125,169.031c-4.758,0-9.578-1.308-13.903-4.049L246.886,61.645L83.551,164.982
	c-12.17,7.696-28.247,4.08-35.935-8.074c-7.696-12.17-4.08-28.247,8.082-35.935L246.886,0l191.181,120.966
	c12.162,7.696,15.785,23.773,8.082,35.935C441.202,164.738,432.766,169.015,424.125,169.031z"/>
<path style="fill:#6c757d;" d="M83.551,164.982L246.886,61.645l163.336,103.337c4.324,2.741,9.137,4.049,13.903,4.049
	c7.712-0.016,15.116-3.584,20.181-9.893c-1.757-2.15-3.765-4.12-6.231-5.679L246.886,32.492L55.698,153.458
	c-2.481,1.567-4.529,3.568-6.286,5.742C57.604,169.401,72.224,172.15,83.551,164.982z"/>
<path style="fill:#6c757d;" d="M229.163,432.27c0,3.513-2.844,6.372-6.372,6.372H117.382c-3.521,0-6.372-2.851-6.372-6.372V326.853
	c0-3.513,2.844-6.372,6.372-6.372h105.417c3.521,0,6.372,2.851,6.372,6.372V432.27H229.163z"/>
<path style="fill:#BDC3C7;" d="M229.163,326.853V432.27c0,3.513-2.844,6.372-6.372,6.372H117.382"/>
<path style="fill:#6c757d;" d="M111.009,326.853c0-3.513,2.844-6.372,6.372-6.372h105.417c3.521,0,6.372,2.851,6.372,6.372V432.27
	c0,3.513-2.844,6.372-6.372,6.372"/>
<path style="fill:#6c757d;" d="M382.763,432.27c0,3.513-2.844,6.372-6.372,6.372H270.982c-3.521,0-6.372-2.851-6.372-6.372V326.853
	c0-3.513,2.844-6.372,6.372-6.372h105.417c3.521,0,6.372,2.851,6.372,6.372V432.27H382.763z"/>
<path style="fill:#BDC3C7;" d="M382.763,326.853V432.27c0,3.513-2.844,6.372-6.372,6.372H270.982"/>
<path style="fill:#6c757d;" d="M264.609,326.853c0-3.513,2.844-6.372,6.372-6.372h105.417c3.521,0,6.372,2.851,6.372,6.372V432.27
	c0,3.513-2.844,6.372-6.372,6.372"/>
<path style="fill:#6c757d;" d="M305.963,283.924c0,3.513-2.844,6.372-6.372,6.372H194.182c-3.521,0-6.372-2.851-6.372-6.372V178.507
	c0-3.513,2.844-6.372,6.372-6.372h105.417c3.521,0,6.372,2.851,6.372,6.372v105.417H305.963z"/>
<path style="fill:#BDC3C7;" d="M305.963,178.507v105.417c0,3.513-2.844,6.372-6.372,6.372H194.182"/>
<path style="fill:#6c757d;" d="M187.809,178.507c0-3.513,2.844-6.372,6.372-6.372h105.417c3.521,0,6.372,2.851,6.372,6.372v105.417
	c0,3.513-2.844,6.372-6.372,6.372"/>
<g>
</g>
<g>
</g>
<g>
</g>
<g>
</g>
<g>
</g>
<g>
</g>
<g>
</g>
<g>
</g>
<g>
</g>
<g>
</g>
<g>
</g>
<g>
</g>
<g>
</g>
<g>
</g>
<g>
</g>
</svg>
