<?xml version="1.0" encoding="iso-8859-1"?>
<!-- Generator: Adobe Illustrator 16.0.0, SVG Export Plug-In . SVG Version: 6.00 Build 0)  -->
<!DOCTYPE svg PUBLIC "-//W3C//DTD SVG 1.1//EN" "http://www.w3.org/Graphics/SVG/1.1/DTD/svg11.dtd">
<svg version="1.1" id="Capa_1" xmlns="http://www.w3.org/2000/svg" xmlns:xlink="http://www.w3.org/1999/xlink" x="0px" y="0px"
	 width="612px" height="612px" viewBox="0 0 612 612" style="enable-background:new 0 0 612 612;" xml:space="preserve">
<g>
	<g id="Marque_Tool">
		<g>
			<path fill="#39b8b6" d="M0,76.5v38.25h76.5c0-21.114,17.136-38.25,38.25-38.25V0H76.5C34.234,0,0,34.234,0,76.5z M191.25,76.5h76.5V0h-76.5V76.5
				z M76.5,497.25H0v38.25C0,577.767,34.234,612,76.5,612h38.25v-76.5C93.636,535.5,76.5,518.364,76.5,497.25z M76.5,344.25H0v76.5
				h76.5V344.25z M76.5,191.25H0v76.5h76.5V191.25z M191.25,612h76.5v-76.5h-76.5V612z M535.5,267.75H612v-76.5h-76.5V267.75z
				 M535.5,420.75H612v-76.5h-76.5V420.75z M535.5,0h-38.25v76.5c21.114,0,38.25,17.136,38.25,38.25H612V76.5
				C612,34.234,577.767,0,535.5,0z M344.25,612h76.5v-76.5h-76.5V612z M344.25,76.5h76.5V0h-76.5V76.5z M497.25,535.5V612h38.25
				c42.267,0,76.5-34.233,76.5-76.5v-38.25h-76.5C535.5,518.364,518.364,535.5,497.25,535.5z"/>
		</g>
	</g>
</g>
<g>
</g>
<g>
</g>
<g>
</g>
<g>
</g>
<g>
</g>
<g>
</g>
<g>
</g>
<g>
</g>
<g>
</g>
<g>
</g>
<g>
</g>
<g>
</g>
<g>
</g>
<g>
</g>
<g>
</g>
</svg>
