<?xml version="1.0" encoding="UTF-8" standalone="no"?>
<!-- Generator: Adobe Illustrator 19.0.0, SVG Export Plug-In . SVG Version: 6.00 Build 0)  -->

<svg
   version="1.1"
   id="Layer_1"
   x="0px"
   y="0px"
   viewBox="0 0 512 512"
   style="enable-background:new 0 0 512 512;"
   xml:space="preserve"
   sodipodi:docname="pipes-braw.svg"
   inkscape:version="1.1.2 (b8e25be833, 2022-02-05)"
   xmlns:inkscape="http://www.inkscape.org/namespaces/inkscape"
   xmlns:sodipodi="http://sodipodi.sourceforge.net/DTD/sodipodi-0.dtd"
   xmlns="http://www.w3.org/2000/svg"
   xmlns:svg="http://www.w3.org/2000/svg"><defs
   id="defs55" /><sodipodi:namedview
   id="namedview53"
   pagecolor="#505050"
   bordercolor="#eeeeee"
   borderopacity="1"
   inkscape:pageshadow="0"
   inkscape:pageopacity="0"
   inkscape:pagecheckerboard="0"
   showgrid="false"
   inkscape:zoom="1.4042969"
   inkscape:cx="255.64395"
   inkscape:cy="255.64395"
   inkscape:window-width="1920"
   inkscape:window-height="1017"
   inkscape:window-x="-8"
   inkscape:window-y="-8"
   inkscape:window-maximized="1"
   inkscape:current-layer="Layer_1" />
<g
   id="g20"
   transform="rotate(180,256,255.9995)">
	<path
   style="fill:#bdc3c7"
   d="M 168.896,419.309 H 343.1 c 5.526,0 10.002,-4.476 10.002,-10.002 v -32.962 c 0,-5.526 -4.476,-10.002 -10.002,-10.002 H 168.896 c -5.526,0 -10.002,4.476 -10.002,10.002 v 32.962 c 0.001,5.527 4.476,10.002 10.002,10.002"
   id="path2" />
	<g
   id="g12">
		<polygon
   style="fill:#ecf0f1"
   points="308.966,251.585 203.034,251.585 203.034,366.344 308.966,366.344 "
   id="polygon4" />
		<path
   style="fill:#ecf0f1"
   d="M 0,241.585 V 138.003 c 0,-5.526 4.476,-10.002 10.002,-10.002 H 70.621 V 251.587 H 10.002 C 4.476,251.587 0,247.103 0,241.585"
   id="path6" />
		<polygon
   style="fill:#ecf0f1"
   points="388.414,127.999 123.586,127.999 123.586,251.585 388.414,251.585 "
   id="polygon8" />
		<path
   style="fill:#ecf0f1"
   d="M 441.379,251.585 V 127.999 h 60.619 c 5.526,0 10.002,4.476 10.002,10.002 v 103.583 c 0,5.526 -4.476,10.002 -10.002,10.002 h -60.619 z"
   id="path10" />
	</g>
	<g
   id="g18">
		<path
   style="fill:#bdc3c7"
   d="M 388.414,276.896 V 102.692 c 0,-5.526 4.476,-10.002 10.002,-10.002 h 32.962 c 5.526,0 10.002,4.476 10.002,10.002 v 174.204 c 0,5.517 -4.476,10.002 -10.002,10.002 h -32.962 c -5.527,-0.001 -10.002,-4.485 -10.002,-10.002"
   id="path14" />
		<path
   style="fill:#bdc3c7"
   d="M 70.621,276.896 V 102.692 c 0,-5.526 4.476,-10.002 10.002,-10.002 h 32.962 c 5.526,0 10.002,4.476 10.002,10.002 v 174.204 c 0,5.517 -4.476,10.002 -10.002,10.002 H 80.622 c -5.526,-0.001 -10.001,-4.485 -10.001,-10.002"
   id="path16" />
	</g>
</g>
<g
   id="g22"
   transform="scale(-1)">
</g>
<g
   id="g24"
   transform="scale(-1)">
</g>
<g
   id="g26"
   transform="scale(-1)">
</g>
<g
   id="g28"
   transform="scale(-1)">
</g>
<g
   id="g30"
   transform="scale(-1)">
</g>
<g
   id="g32"
   transform="scale(-1)">
</g>
<g
   id="g34"
   transform="scale(-1)">
</g>
<g
   id="g36"
   transform="scale(-1)">
</g>
<g
   id="g38"
   transform="scale(-1)">
</g>
<g
   id="g40"
   transform="scale(-1)">
</g>
<g
   id="g42"
   transform="scale(-1)">
</g>
<g
   id="g44"
   transform="scale(-1)">
</g>
<g
   id="g46"
   transform="scale(-1)">
</g>
<g
   id="g48"
   transform="scale(-1)">
</g>
<g
   id="g50"
   transform="scale(-1)">
</g>
</svg>
