<?xml version="1.0" encoding="UTF-8" standalone="no"?>
<!-- Generator: Adobe Illustrator 19.0.0, SVG Export Plug-In . SVG Version: 6.00 Build 0)  -->

<svg
   version="1.1"
   id="Layer_1"
   x="0px"
   y="0px"
   viewBox="0 0 512 512"
   style="enable-background:new 0 0 512 512;"
   xml:space="preserve"
   sodipodi:docname="pipes-fwre.svg"
   inkscape:version="1.1.2 (b8e25be833, 2022-02-05)"
   xmlns:inkscape="http://www.inkscape.org/namespaces/inkscape"
   xmlns:sodipodi="http://sodipodi.sourceforge.net/DTD/sodipodi-0.dtd"
   xmlns="http://www.w3.org/2000/svg"
   xmlns:svg="http://www.w3.org/2000/svg"><defs
   id="defs51" /><sodipodi:namedview
   id="namedview49"
   pagecolor="#505050"
   bordercolor="#eeeeee"
   borderopacity="1"
   inkscape:pageshadow="0"
   inkscape:pageopacity="0"
   inkscape:pagecheckerboard="0"
   showgrid="false"
   inkscape:zoom="1.4042969"
   inkscape:cx="255.64395"
   inkscape:cy="255.64395"
   inkscape:window-width="1920"
   inkscape:window-height="1017"
   inkscape:window-x="-8"
   inkscape:window-y="-8"
   inkscape:window-maximized="1"
   inkscape:current-layer="Layer_1" />
<g
   id="g16"
   transform="rotate(90,255.9995,256)">
	<g
   id="g6">
		<path
   style="fill:#ecf0f1"
   d="M 325.447,512 H 186.553 c -5.526,0 -10.002,-4.476 -10.002,-10.002 v -60.619 h 158.897 v 60.619 c 0,5.526 -4.484,10.002 -10.001,10.002"
   id="path2" />
		<path
   style="fill:#ecf0f1"
   d="M 317.791,70.621 H 194.205 V 10.002 C 194.205,4.476 198.681,0 204.207,0 H 307.79 c 5.526,0 10.002,4.476 10.002,10.002 v 60.619 z"
   id="path4" />
	</g>
	<g
   id="g12">
		<path
   style="fill:#bdc3c7"
   d="M 343.102,123.586 H 168.898 c -5.526,0 -10.002,-4.476 -10.002,-10.002 V 80.622 c 0,-5.526 4.476,-10.002 10.002,-10.002 h 174.204 c 5.517,0 10.002,4.476 10.002,10.002 v 32.962 c -10e-4,5.527 -4.485,10.002 -10.002,10.002"
   id="path8" />
		<path
   style="fill:#bdc3c7"
   d="m 369.585,441.379 h -227.17 c -5.526,0 -10.002,-4.476 -10.002,-10.002 v -32.962 c 0,-5.526 4.476,-10.002 10.002,-10.002 h 227.169 c 5.517,0 10.002,4.476 10.002,10.002 v 32.962 c 0,5.527 -4.484,10.002 -10.001,10.002"
   id="path10" />
	</g>
	<path
   style="fill:#ecf0f1"
   d="M 346.477,234.474 C 332.697,201.309 326.615,165.451 326.615,129.54 v -5.959 H 185.373 v 5.959 c 0,35.911 -6.073,71.768 -19.853,104.934 -8.033,19.341 -15.457,48.905 -15.457,92.142 v 61.793 h 211.862 v -61.793 c 0,-43.237 -7.415,-72.801 -15.448,-92.142"
   id="path14" />
</g>
<g
   id="g18"
   transform="rotate(90)">
</g>
<g
   id="g20"
   transform="rotate(90)">
</g>
<g
   id="g22"
   transform="rotate(90)">
</g>
<g
   id="g24"
   transform="rotate(90)">
</g>
<g
   id="g26"
   transform="rotate(90)">
</g>
<g
   id="g28"
   transform="rotate(90)">
</g>
<g
   id="g30"
   transform="rotate(90)">
</g>
<g
   id="g32"
   transform="rotate(90)">
</g>
<g
   id="g34"
   transform="rotate(90)">
</g>
<g
   id="g36"
   transform="rotate(90)">
</g>
<g
   id="g38"
   transform="rotate(90)">
</g>
<g
   id="g40"
   transform="rotate(90)">
</g>
<g
   id="g42"
   transform="rotate(90)">
</g>
<g
   id="g44"
   transform="rotate(90)">
</g>
<g
   id="g46"
   transform="rotate(90)">
</g>
</svg>
