<?xml version="1.0" encoding="UTF-8" standalone="no"?>
<!-- Generator: Adobe Illustrator 19.0.0, SVG Export Plug-In . SVG Version: 6.00 Build 0)  -->

<svg
   version="1.1"
   id="Layer_1"
   x="0px"
   y="0px"
   viewBox="0 0 512 512"
   style="enable-background:new 0 0 512 512;"
   xml:space="preserve"
   sodipodi:docname="pipes-pipe.svg"
   inkscape:version="1.1.2 (b8e25be833, 2022-02-05)"
   xmlns:inkscape="http://www.inkscape.org/namespaces/inkscape"
   xmlns:sodipodi="http://sodipodi.sourceforge.net/DTD/sodipodi-0.dtd"
   xmlns="http://www.w3.org/2000/svg"
   xmlns:svg="http://www.w3.org/2000/svg"><defs
   id="defs51" /><sodipodi:namedview
   id="namedview49"
   pagecolor="#505050"
   bordercolor="#eeeeee"
   borderopacity="1"
   inkscape:pageshadow="0"
   inkscape:pageopacity="0"
   inkscape:pagecheckerboard="0"
   showgrid="false"
   inkscape:zoom="1.4042969"
   inkscape:cx="255.64395"
   inkscape:cy="255.64395"
   inkscape:window-width="1920"
   inkscape:window-height="1017"
   inkscape:window-x="3832"
   inkscape:window-y="-8"
   inkscape:window-maximized="1"
   inkscape:current-layer="Layer_1" />
<g
   id="g16"
   transform="rotate(90,256,256)">
	<g
   id="g8">
		<path
   style="fill:#ecf0f1"
   d="M 307.791,512 H 204.209 c -5.526,0 -10.002,-4.476 -10.002,-10.002 v -60.619 h 123.586 v 60.619 c 0,5.526 -4.484,10.002 -10.002,10.002"
   id="path2" />
		<polygon
   style="fill:#ecf0f1"
   points="317.791,388.414 317.791,123.586 194.205,123.586 194.205,388.414 "
   id="polygon4" />
		<path
   style="fill:#ecf0f1"
   d="M 317.791,70.621 H 194.205 V 10.002 C 194.205,4.476 198.681,0 204.207,0 H 307.79 c 5.526,0 10.002,4.476 10.002,10.002 v 60.619 z"
   id="path6" />
	</g>
	<g
   id="g14">
		<path
   style="fill:#bdc3c7"
   d="M 343.102,123.586 H 168.898 c -5.526,0 -10.002,-4.476 -10.002,-10.002 V 80.622 c 0,-5.526 4.476,-10.002 10.002,-10.002 h 174.204 c 5.517,0 10.002,4.476 10.002,10.002 v 32.962 c -10e-4,5.527 -4.485,10.002 -10.002,10.002"
   id="path10" />
		<path
   style="fill:#bdc3c7"
   d="M 343.102,441.379 H 168.898 c -5.526,0 -10.002,-4.476 -10.002,-10.002 v -32.962 c 0,-5.526 4.476,-10.002 10.002,-10.002 h 174.204 c 5.517,0 10.002,4.476 10.002,10.002 v 32.962 c -10e-4,5.527 -4.485,10.002 -10.002,10.002"
   id="path12" />
	</g>
</g>
<g
   id="g18"
   transform="rotate(90)">
</g>
<g
   id="g20"
   transform="rotate(90)">
</g>
<g
   id="g22"
   transform="rotate(90)">
</g>
<g
   id="g24"
   transform="rotate(90)">
</g>
<g
   id="g26"
   transform="rotate(90)">
</g>
<g
   id="g28"
   transform="rotate(90)">
</g>
<g
   id="g30"
   transform="rotate(90)">
</g>
<g
   id="g32"
   transform="rotate(90)">
</g>
<g
   id="g34"
   transform="rotate(90)">
</g>
<g
   id="g36"
   transform="rotate(90)">
</g>
<g
   id="g38"
   transform="rotate(90)">
</g>
<g
   id="g40"
   transform="rotate(90)">
</g>
<g
   id="g42"
   transform="rotate(90)">
</g>
<g
   id="g44"
   transform="rotate(90)">
</g>
<g
   id="g46"
   transform="rotate(90)">
</g>
</svg>
