<?xml version="1.0" encoding="iso-8859-1"?>
<!-- Generator: Adobe Illustrator 19.0.0, SVG Export Plug-In . SVG Version: 6.00 Build 0)  -->
<svg version="1.1" id="Layer_1" xmlns="http://www.w3.org/2000/svg" xmlns:xlink="http://www.w3.org/1999/xlink" x="0px" y="0px"
	 viewBox="0 0 512.002 512.002" style="enable-background:new 0 0 512.002 512.002;" xml:space="preserve">
<g>
	<path style="fill:#ECF0F1;" d="M160.491,512.002H37.126c-5.623,0-10.177-4.554-10.177-10.177v-61.683h143.719v61.683
		C170.668,507.448,166.105,512.002,160.491,512.002"/>
	<path style="fill:#BDC3C7;" d="M187.439,440.142H10.179c-5.623,0-10.177-4.554-10.177-10.177v-33.54
		c0-5.623,4.554-10.177,10.177-10.177h177.26c5.614,0,10.177,4.554,10.177,10.177v33.54
		C197.616,435.588,193.053,440.142,187.439,440.142"/>
	<path style="fill:#ECF0F1;" d="M512,37.124V160.49c0,5.623-4.554,10.177-10.177,10.177H440.14V26.947h61.683
		C507.446,26.947,512,31.51,512,37.124"/>
	<path style="fill:#BDC3C7;" d="M440.14,10.177v177.26c0,5.623-4.554,10.177-10.177,10.177h-33.54
		c-5.623,0-10.177-4.554-10.177-10.177V10.177C386.246,4.563,390.8,0,396.423,0h33.54C435.586,0,440.14,4.563,440.14,10.177"/>
	<path style="fill:#ECF0F1;" d="M26.947,386.247h134.737c0-124.12,100.442-224.561,224.561-224.561V26.949
		C187.652,26.949,26.947,187.654,26.947,386.247"/>
</g>
<g>
</g>
<g>
</g>
<g>
</g>
<g>
</g>
<g>
</g>
<g>
</g>
<g>
</g>
<g>
</g>
<g>
</g>
<g>
</g>
<g>
</g>
<g>
</g>
<g>
</g>
<g>
</g>
<g>
</g>
</svg>
