<?xml version="1.0" encoding="iso-8859-1"?>
<!-- Generator: Adobe Illustrator 19.0.0, SVG Export Plug-In . SVG Version: 6.00 Build 0)  -->
<svg version="1.1" id="Layer_1" xmlns="http://www.w3.org/2000/svg" xmlns:xlink="http://www.w3.org/1999/xlink" x="0px" y="0px"
	 viewBox="0 0 512 512" style="enable-background:new 0 0 512 512;" xml:space="preserve">
<g>
	<g>
		<polygon style="fill:#BDC3C7;" points="414.897,300.136 512,300.136 512,211.86 414.897,211.86 		"/>
		<path style="fill:#BDC3C7;" d="M361.931,343.102V168.898c0-5.526-4.476-10.002-10.002-10.002h-32.962
			c-5.526,0-10.002,4.476-10.002,10.002v174.204c0,5.517,4.476,10.002,10.002,10.002h32.962
			C357.455,353.103,361.931,348.619,361.931,343.102"/>
	</g>
	<g>
		<path style="fill:#95A5A5;" d="M414.897,316.619V195.381c0-5.526-4.476-10.002-10.002-10.002h-32.962
			c-5.526,0-10.002,4.476-10.002,10.002v121.238c0,5.517,4.476,10.002,10.002,10.002h32.962
			C410.421,326.621,414.897,322.136,414.897,316.619"/>
		<path style="fill:#95A5A5;" d="M203.034,360.757V151.243c0-5.526,4.476-10.002,10.002-10.002h32.962
			c5.526,0,10.002,4.476,10.002,10.002v209.514c0,5.517-4.476,10.002-10.002,10.002h-32.962
			C207.51,370.759,203.034,366.274,203.034,360.757"/>
	</g>
	<path style="fill:#7F8C8D;" d="M256,360.757V151.243c0-5.526,4.476-10.002,10.002-10.002h32.962
		c5.526,0,10.002,4.476,10.002,10.002v209.514c0,5.517-4.476,10.002-10.002,10.002h-32.962C260.476,370.759,256,366.274,256,360.757
		"/>
	<g>
		<polygon style="fill:#BDC3C7;" points="0,300.136 97.103,300.136 97.103,211.86 0,211.86 		"/>
		<path style="fill:#BDC3C7;" d="M150.069,343.102V168.898c0-5.526,4.476-10.002,10.002-10.002h32.962
			c5.526,0,10.002,4.476,10.002,10.002v174.204c0,5.517-4.476,10.002-10.002,10.002h-32.962
			C154.545,353.103,150.069,348.619,150.069,343.102"/>
	</g>
	<path style="fill:#95A5A5;" d="M97.103,316.619V195.381c0-5.526,4.476-10.002,10.002-10.002h32.962
		c5.526,0,10.002,4.476,10.002,10.002v121.238c0,5.517-4.476,10.002-10.002,10.002h-32.962
		C101.579,326.621,97.103,322.136,97.103,316.619"/>
</g>
<g>
</g>
<g>
</g>
<g>
</g>
<g>
</g>
<g>
</g>
<g>
</g>
<g>
</g>
<g>
</g>
<g>
</g>
<g>
</g>
<g>
</g>
<g>
</g>
<g>
</g>
<g>
</g>
<g>
</g>
</svg>
