<?xml version="1.0" encoding="iso-8859-1"?>
<!-- Generator: Adobe Illustrator 19.0.0, SVG Export Plug-In . SVG Version: 6.00 Build 0)  -->
<svg version="1.1" id="Layer_1" xmlns="http://www.w3.org/2000/svg" xmlns:xlink="http://www.w3.org/1999/xlink" x="0px" y="0px"
	 viewBox="0 0 512.003 512.003" style="enable-background:new 0 0 512.003 512.003;" xml:space="preserve">
<g>
	
	
	<path style="fill:#ECF0F1;" d="M442.123,133.184L354.738,45.8l42.858-42.867c3.902-3.911,10.24-3.911,14.151,0l73.234,73.242
		c3.911,3.902,3.911,10.24,0,14.151L442.123,133.184z"/>
	<g>
		<path style="fill:#BDC3C7;" d="M422.562,188.533l-123.18-123.18c-3.902-3.902-3.902-10.24,0-14.142l23.314-23.314
			c3.902-3.902,10.24-3.902,14.142,0l123.18,123.18c3.911,3.911,3.911,10.24,0,14.151l-23.305,23.305
			C432.802,192.435,426.463,192.435,422.562,188.533"/>

	</g>
	<polygon style="fill:#ECF0F1;" points="182.984,388.417 404.663,170.64 317.278,83.247 182.984,217.55 	"/>
</g>
<g>
</g>
<g>
</g>
<g>
</g>
<g>
</g>
<g>
</g>
<g>
</g>
<g>
</g>
<g>
</g>
<g>
</g>
<g>
</g>
<g>
</g>
<g>
</g>
<g>
</g>
<g>
</g>
<g>
</g>
</svg>
