<?xml version="1.0" encoding="iso-8859-1"?>
<!-- Generator: Adobe Illustrator 19.0.0, SVG Export Plug-In . SVG Version: 6.00 Build 0)  -->
<svg version="1.1" id="Layer_1" xmlns="http://www.w3.org/2000/svg" xmlns:xlink="http://www.w3.org/1999/xlink" x="0px" y="0px"
	 viewBox="0 0 507.235 507.235" style="enable-background:new 0 0 507.235 507.235;" xml:space="preserve">
<g>
	<path style="fill:#BDC3C7;" d="M283.165,436.615H108.962c-5.526,0-10.002-4.476-10.002-10.002v-32.962
		c0-5.526,4.476-10.002,10.002-10.002h174.204c5.517,0,10.002,4.476,10.002,10.002v32.962
		C293.167,432.139,288.683,436.615,283.165,436.615"/>
	<path style="fill:#ECF0F1;" d="M247.855,507.235H144.272c-5.526,0-10.002-4.476-10.002-10.002v-60.619h123.586v60.619
		C257.857,502.76,253.372,507.235,247.855,507.235"/>
	<path style="fill:#BDC3C7;" d="M347.618,158.235L237.98,56.426c-3.849-3.575-4.07-9.596-0.494-13.453l23.093-24.858
		c3.566-3.858,9.596-4.07,13.444-0.503l109.639,101.817c3.858,3.566,4.07,9.587,0.494,13.444l-23.093,24.858
		C357.496,161.589,351.476,161.81,347.618,158.235"/>
	<g>
		<path style="fill:#ECF0F1;" d="M370.764,107.446l31.311-28.319c7.989-7.221,8.298-19.65,0.689-27.26L356.419,5.523
			c-6.232-6.232-15.89-7.309-23.349-2.622c-9.913,6.232-24.735,16.358-41.887,30.649L370.764,107.446z"/>
		<path style="fill:#ECF0F1;" d="M252.532,69.938c-56.744,60.178-118.263,167.821-118.263,313.715h123.586
			c0-112.013,36.149-193.492,74.884-239.236L252.532,69.938z"/>
	</g>
</g>
<g>
</g>
<g>
</g>
<g>
</g>
<g>
</g>
<g>
</g>
<g>
</g>
<g>
</g>
<g>
</g>
<g>
</g>
<g>
</g>
<g>
</g>
<g>
</g>
<g>
</g>
<g>
</g>
<g>
</g>
</svg>
