<svg id="Layer_1" enable-background="new 0 0 512 512" height="512" viewBox="0 0 512 512" width="512" xmlns="http://www.w3.org/2000/svg"><g><path style="fill:#ffffff;" d="m454.333 132.5c-22.052-53.246-85.938-132.5-198.336-132.5-57.134 0-155.172 28.359-198.303 132.499-21.921 52.919-33.113 154.282 46.527 233.922l141.186 141.186c5.857 5.858 15.356 5.858 21.213 0l141.186-141.187c79.627-79.627 68.394-181.132 46.527-233.92zm-67.74 212.708-130.58 130.579-130.58-130.579c-68.352-68.354-58.991-155.437-40.023-201.229 18.973-45.81 73.986-113.979 170.619-113.979 49.268 0 133.54 24.53 170.587 113.98 18.974 45.803 28.285 132.919-40.023 201.228z"/><path style="fill:#ffffff;" d="m333.642 119.616c-5.857-5.858-15.355-5.858-21.213 0l-72.483 72.482-32.315-32.315c-5.859-5.859-15.361-5.852-21.213 0l-45.444 45.445c-5.858 5.858-5.858 15.355 0 21.213l88.366 88.367c5.858 5.858 15.361 5.853 21.213 0l128.534-128.534c5.858-5.858 5.858-15.355 0-21.213zm-93.696 163.371-67.153-67.153 24.231-24.231 32.315 32.315c5.86 5.859 15.361 5.852 21.213 0l72.483-72.482 24.231 24.231z"/></g></svg>