<?xml version="1.0" encoding="iso-8859-1"?>
<!-- Generator: Adobe Illustrator 19.0.0, SVG Export Plug-In . SVG Version: 6.00 Build 0)  -->
<svg version="1.1" id="Layer_1" xmlns="http://www.w3.org/2000/svg" xmlns:xlink="http://www.w3.org/1999/xlink" x="0px" y="0px"
	 viewBox="0 0 512 512" style="enable-background:new 0 0 512 512;" xml:space="preserve">
<path style="fill:#E0E0E0;" d="M176.552,70.621h158.897V0H176.552V70.621z"/>
<g>
	<path style="fill:#C3C7CB;" d="M291.31,512H220.69c-5.297,0-8.828-3.531-8.828-8.828V70.621h88.276v432.552
		C300.138,508.469,296.607,512,291.31,512"/>
	<path style="fill:#C3C7CB;" d="M176.552,70.621h-44.138c-5.297,0-8.828-3.531-8.828-8.828V8.828c0-5.297,3.531-8.828,8.828-8.828
		h44.138V70.621z"/>
	<path style="fill:#C3C7CB;" d="M379.586,70.621h-44.138V0h44.138c5.297,0,8.828,3.531,8.828,8.828v52.966
		C388.414,67.09,384.883,70.621,379.586,70.621"/>
</g>
<g>
	<path style="fill:#E0E0E0;" d="M317.793,485.517L317.793,485.517l-124.469-8.828c-5.297,0-8.828-4.414-7.945-9.71
		c0-4.414,4.414-8.828,9.71-7.945l123.586,8.828c5.297,0,8.828,4.414,7.945,9.71C326.621,481.986,322.207,485.517,317.793,485.517"
		/>
	<path style="fill:#E0E0E0;" d="M317.793,450.207L317.793,450.207l-124.469-8.828c-5.297,0-8.828-4.414-7.945-9.71
		c0-5.297,4.414-8.828,9.71-7.945l123.586,8.828c5.297,0,8.828,4.414,7.945,9.71C326.621,446.676,322.207,450.207,317.793,450.207"
		/>
	<path style="fill:#E0E0E0;" d="M317.793,414.897L317.793,414.897l-124.469-8.828c-5.297,0-8.828-4.414-7.945-9.71
		c0-5.297,4.414-8.828,9.71-7.945l123.586,8.828c5.297,0,8.828,4.414,7.945,9.71C326.621,411.366,322.207,414.897,317.793,414.897"
		/>
	<path style="fill:#E0E0E0;" d="M317.793,379.586L317.793,379.586l-124.469-8.828c-5.297,0-8.828-4.414-7.945-9.71
		c0-5.297,4.414-8.828,9.71-7.945l123.586,8.828c5.297,0,8.828,4.414,7.945,9.71C326.621,376.055,322.207,379.586,317.793,379.586"
		/>
	<path style="fill:#E0E0E0;" d="M317.793,344.276L317.793,344.276l-124.469-8.828c-5.297,0-8.828-4.414-7.945-9.71
		c0-5.297,4.414-8.828,9.71-7.945l123.586,8.828c5.297,0,8.828,4.414,7.945,9.71C326.621,340.745,322.207,344.276,317.793,344.276"
		/>
	<path style="fill:#E0E0E0;" d="M317.793,308.966L317.793,308.966l-124.469-8.828c-5.297,0-8.828-4.414-7.945-9.71
		c0-4.414,4.414-8.828,9.71-7.945l123.586,8.828c5.297,0,8.828,4.414,7.945,9.71C326.621,305.434,322.207,308.966,317.793,308.966"
		/>
	<path style="fill:#E0E0E0;" d="M317.793,273.655L317.793,273.655l-124.469-8.828c-5.297,0-8.828-4.414-7.945-9.71
		c0-5.297,4.414-8.828,9.71-7.945L318.676,256c5.297,0,8.828,4.414,7.945,9.71C326.621,270.124,322.207,273.655,317.793,273.655"/>
	<path style="fill:#E0E0E0;" d="M317.793,238.345L317.793,238.345l-124.469-8.828c-5.297,0-8.828-4.414-7.945-9.71
		c0-5.297,4.414-8.828,9.71-7.945l123.586,8.828c5.297,0,8.828,4.414,7.945,9.71C326.621,234.814,322.207,238.345,317.793,238.345"
		/>
</g>
<g>
</g>
<g>
</g>
<g>
</g>
<g>
</g>
<g>
</g>
<g>
</g>
<g>
</g>
<g>
</g>
<g>
</g>
<g>
</g>
<g>
</g>
<g>
</g>
<g>
</g>
<g>
</g>
<g>
</g>
</svg>
