<?xml version="1.0" encoding="iso-8859-1"?>
<!-- Generator: Adobe Illustrator 19.0.0, SVG Export Plug-In . SVG Version: 6.00 Build 0)  -->
<svg version="1.1" id="Layer_1" xmlns="http://www.w3.org/2000/svg" xmlns:xlink="http://www.w3.org/1999/xlink" x="0px" y="0px"
	 viewBox="0 0 512 512" style="enable-background:new 0 0 512 512;" xml:space="preserve">
<g>
	<g>
		<path style="fill:#365E7D;" d="M456.348,380.553v-52.205c0-27.618-22.469-50.087-50.087-50.087H272.696v-45.719
			c56.56-8.126,100.174-56.898,100.174-115.672C372.87,52.428,320.442,0,256,0S139.13,52.428,139.13,116.87
			c0,58.774,43.613,107.546,100.174,115.672v45.719H105.739c-27.618,0-50.087,22.469-50.087,50.087v52.205
			c-28.77,7.434-50.087,33.604-50.087,64.664C5.565,482.041,35.524,512,72.348,512s66.783-29.959,66.783-66.783
			c0-31.061-21.317-57.23-50.087-64.664v-52.205c0-9.206,7.49-16.696,16.696-16.696h133.565v68.896
			c-28.771,7.432-50.087,33.608-50.087,64.669C189.217,482.041,219.176,512,256,512s66.783-29.959,66.783-66.783
			c0-31.061-21.316-57.237-50.087-64.669v-68.896h133.565c9.206,0,16.696,7.49,16.696,16.696v52.205
			c-28.77,7.433-50.087,33.604-50.087,64.664c0,36.824,29.959,66.783,66.783,66.783s66.783-29.959,66.783-66.783
			C506.435,414.157,485.118,387.987,456.348,380.553z M105.739,445.217c0,18.412-14.979,33.391-33.391,33.391
			s-33.391-14.979-33.391-33.391c0-18.412,14.979-33.391,33.391-33.391S105.739,426.805,105.739,445.217z M289.391,445.217
			c0,18.412-14.979,33.391-33.391,33.391c-18.412,0-33.391-14.979-33.391-33.391c0-18.412,14.979-33.391,33.391-33.391
			S289.391,426.805,289.391,445.217z M256,200.348c-46.03,0-83.478-37.448-83.478-83.478S209.97,33.391,256,33.391
			s83.478,37.448,83.478,83.478S302.03,200.348,256,200.348z M439.652,478.609c-18.412,0-33.391-14.979-33.391-33.391
			c0-18.412,14.979-33.391,33.391-33.391c18.412,0,33.391,14.979,33.391,33.391C473.043,463.629,458.064,478.609,439.652,478.609z"
			/>
	</g>
</g>
<g>
</g>
<g>
</g>
<g>
</g>
<g>
</g>
<g>
</g>
<g>
</g>
<g>
</g>
<g>
</g>
<g>
</g>
<g>
</g>
<g>
</g>
<g>
</g>
<g>
</g>
<g>
</g>
<g>
</g>
</svg>
