<?xml version="1.0" encoding="iso-8859-1"?>
<!-- Generator: Adobe Illustrator 19.1.0, SVG Export Plug-In . SVG Version: 6.00 Build 0)  -->
<svg version="1.1" id="Capa_1" xmlns="http://www.w3.org/2000/svg" xmlns:xlink="http://www.w3.org/1999/xlink" x="0px" y="0px"
	 viewBox="0 0 488.326 488.326" style="enable-background:new 0 0 488.326 488.326;" xml:space="preserve">
<g>
	<g>
		<path style="fill:#E1E1E1;" d="M473.6,279.713v-42.9c0-15.8-13-29.3-29.3-29.3l-38.9-3.4l-34.4-51.9c-0.6-0.6-0.6-1.1-1.1-1.7
			c-5.1-7.3-14.1-12.4-23.7-12.4h-73.3H133.6c-14.7,0-27.1,11.3-28.8,25.4h-93c-6.2,0-11.8,5.1-11.8,11.8c0,6.2,5.1,11.8,11.8,11.8
			h106.6c0.6,0,1.1,0,1.7,0c5.6,0.6,10.1,5.6,10.1,11.3c0,6.2-5.1,11.8-11.8,11.8h-14.1H40c-6.2,0-11.8,5.1-11.8,11.8
			c0,6.2,5.1,11.8,11.8,11.8h64.3h52.4c6.2,0,11.8,5.1,11.8,11.8c0,6.2-5.1,11.8-11.8,11.8h-52.4H73.8c-6.2,0-11.8,5.1-11.8,11.8
			c0,6.2,5.1,11.8,11.8,11.8h30.4c-7.3,1.7-12.4,8.5-12.4,16.4v21.4c0,9,7.3,16.9,16.9,16.9h23.7c5.1,18.6,22.6,32.7,42.9,32.7
			s37.8-13.2,42.8-32.3h54.1h92.5c5.1,18.6,22.6,32.7,42.9,32.7s37.8-13.5,42.9-32.7h20.9c9,0,16.9-7.3,16.9-16.9v-21.4
			C488.8,287.613,482,280.213,473.6,279.713z M175.3,344.013c-12.4,0-22.6-10.1-22.6-22.6s10.1-22.6,22.6-22.6
			c12.4,0,22.6,10.1,22.6,22.6S187.7,344.013,175.3,344.013z M408.2,344.013c-12.4,0-22.6-10.1-22.6-22.6s10.1-22.6,22.6-22.6
			c12.4,0,22.6,10.1,22.6,22.6S420.6,344.013,408.2,344.013z"/>
		
		
	</g>
</g>
<g>
</g>
<g>
</g>
<g>
</g>
<g>
</g>
<g>
</g>
<g>
</g>
<g>
</g>
<g>
</g>
<g>
</g>
<g>
</g>
<g>
</g>
<g>
</g>
<g>
</g>
<g>
</g>
<g>
</g>
</svg>
