<?xml version="1.0" encoding="UTF-8" standalone="no"?>
<!-- Generator: Adobe Illustrator 19.0.0, SVG Export Plug-In . SVG Version: 6.00 Build 0)  -->

<svg
   version="1.1"
   id="Layer_1"
   x="0px"
   y="0px"
   viewBox="0 0 512 512"
   style="enable-background:new 0 0 512 512;"
   xml:space="preserve"
   sodipodi:docname="valve.svg"
   inkscape:version="1.1.2 (b8e25be833, 2022-02-05)"
   xmlns:inkscape="http://www.inkscape.org/namespaces/inkscape"
   xmlns:sodipodi="http://sodipodi.sourceforge.net/DTD/sodipodi-0.dtd"
   xmlns="http://www.w3.org/2000/svg"
   xmlns:svg="http://www.w3.org/2000/svg"><defs
   id="defs63" /><sodipodi:namedview
   id="namedview61"
   pagecolor="#505050"
   bordercolor="#eeeeee"
   borderopacity="1"
   inkscape:pageshadow="0"
   inkscape:pageopacity="0"
   inkscape:pagecheckerboard="0"
   showgrid="false"
   inkscape:zoom="1.4042969"
   inkscape:cx="255.64395"
   inkscape:cy="255.64395"
   inkscape:window-width="1920"
   inkscape:window-height="1017"
   inkscape:window-x="-8"
   inkscape:window-y="-8"
   inkscape:window-maximized="1"
   inkscape:current-layer="Layer_1" />
<g
   id="g28"
   transform="rotate(-90,256,256)">
	<path
   style="fill:#bdc3c7"
   d="m 397.241,264.828 h -35.31 c -4.882,0 -8.828,-3.955 -8.828,-8.828 0,-4.873 3.946,-8.828 8.828,-8.828 h 35.31 c 4.882,0 8.828,3.955 8.828,8.828 0,4.873 -3.946,8.828 -8.828,8.828"
   id="path2" />
	<g
   id="g10">
		<path
   style="fill:#ecf0f1"
   d="M 246,512 H 142.417 c -5.526,0 -10.002,-4.476 -10.002,-10.002 v -60.619 h 123.586 v 60.619 C 256.002,507.524 251.526,512 246,512"
   id="path4" />
		<polygon
   style="fill:#ecf0f1"
   points="132.414,123.586 132.414,388.414 256,388.414 256,123.586 "
   id="polygon6" />
		<path
   style="fill:#ecf0f1"
   d="M 256,70.621 H 132.414 V 10.002 C 132.414,4.476 136.889,0 142.415,0 H 245.998 C 251.524,0 256,4.476 256,10.002 Z"
   id="path8" />
	</g>
	<g
   id="g16">
		<path
   style="fill:#bdc3c7"
   d="M 281.31,123.586 H 107.107 c -5.526,0 -10.002,-4.476 -10.002,-10.002 V 80.622 c 0,-5.526 4.476,-10.002 10.002,-10.002 H 281.31 c 5.526,0 10.002,4.476 10.002,10.002 v 32.962 c 0,5.527 -4.475,10.002 -10.002,10.002"
   id="path12" />
		<path
   style="fill:#bdc3c7"
   d="M 281.31,441.379 H 107.107 c -5.526,0 -10.002,-4.476 -10.002,-10.002 v -32.962 c 0,-5.526 4.476,-10.002 10.002,-10.002 H 281.31 c 5.526,0 10.002,4.476 10.002,10.002 v 32.962 c 0,5.527 -4.475,10.002 -10.002,10.002"
   id="path14" />
	</g>
	<polygon
   style="fill:#ecf0f1"
   points="361.931,247.172 361.931,264.828 308.966,300.138 308.966,211.862 "
   id="polygon18" />
	<path
   style="fill:#d25627"
   d="m 414.897,388.414 v 0 c -9.71,0 -17.655,-7.945 -17.655,-17.655 V 141.241 c 0,-9.71 7.945,-17.655 17.655,-17.655 9.71,0 17.655,7.945 17.655,17.655 v 229.517 c 0,9.711 -7.945,17.656 -17.655,17.656"
   id="path20" />
	<g
   id="g26">
		<polygon
   style="fill:#bdc3c7"
   points="308.966,194.207 308.966,317.793 256,335.448 256,176.552 "
   id="polygon22" />
		<polygon
   style="fill:#bdc3c7"
   points="132.414,185.379 132.414,326.621 79.448,300.138 79.448,211.862 "
   id="polygon24" />
	</g>
</g>
<g
   id="g30"
   transform="rotate(-90)">
</g>
<g
   id="g32"
   transform="rotate(-90)">
</g>
<g
   id="g34"
   transform="rotate(-90)">
</g>
<g
   id="g36"
   transform="rotate(-90)">
</g>
<g
   id="g38"
   transform="rotate(-90)">
</g>
<g
   id="g40"
   transform="rotate(-90)">
</g>
<g
   id="g42"
   transform="rotate(-90)">
</g>
<g
   id="g44"
   transform="rotate(-90)">
</g>
<g
   id="g46"
   transform="rotate(-90)">
</g>
<g
   id="g48"
   transform="rotate(-90)">
</g>
<g
   id="g50"
   transform="rotate(-90)">
</g>
<g
   id="g52"
   transform="rotate(-90)">
</g>
<g
   id="g54"
   transform="rotate(-90)">
</g>
<g
   id="g56"
   transform="rotate(-90)">
</g>
<g
   id="g58"
   transform="rotate(-90)">
</g>
</svg>
