<?xml version="1.0"?>
<svg xmlns="http://www.w3.org/2000/svg" xmlns:xlink="http://www.w3.org/1999/xlink" xmlns:svgjs="http://svgjs.com/svgjs" version="1.1" width="16" height="16" x="0" y="0" viewBox="0 0 512.004 512.004" style="enable-background:new 0 0 512 512" xml:space="preserve"><g><g xmlns="http://www.w3.org/2000/svg"><path d="m17.626 494.337c-23.519-24.165-23.483-64.282 0-89.463l230.179-230.18c-14.599-47.529-1.911-99.644 33.62-135.174 37.209-37.21 93.146-49.434 142.505-31.134l22.329 8.277-52.628 50.951 9.979 39.805 39.453 11.261 52.893-51.777 8.018 22.214c8.585 23.787 10.325 49.461 5.032 74.246-5.437 25.463-18.081 48.691-36.564 67.176-25.811 25.811-60.366 39.567-95.564 39.565-13.256 0-26.607-1.952-39.61-5.946l-230.179 230.18c-12.332 12.333-28.532 17.665-44.731 17.665s-32.568-5.167-44.732-17.666zm311.998-264.962 9.127 3.556c38.852 15.138 83.001 5.872 112.479-23.605 22.758-22.759 33.518-54.663 30.102-85.939l-29.843 28.897-72.764-20.771-18.405-73.404 28.379-27.474c-31.314-3.479-63.224 7.262-86.061 30.099-29.478 29.478-38.743 73.628-23.606 112.479l3.556 9.126-243.749 243.748c-12.968 12.968-12.968 34.069 0 47.037 12.969 12.967 34.068 12.967 47.037 0z" fill="#ffffff" data-original="#000000" style=""/></g></g></svg>
