<?xml version="1.0" encoding="iso-8859-1"?>
<!-- Generator: Adobe Illustrator 16.0.0, SVG Export Plug-In . SVG Version: 6.00 Build 0)  -->
<!DOCTYPE svg PUBLIC "-//W3C//DTD SVG 1.1//EN" "http://www.w3.org/Graphics/SVG/1.1/DTD/svg11.dtd">
<svg  version="1.1" id="Capa_1" xmlns="http://www.w3.org/2000/svg" xmlns:xlink="http://www.w3.org/1999/xlink" x="0px" y="0px"
	 width="439.875px" height="439.875px" viewBox="0 0 439.875 439.875" fill="#ffffff" style="enable-background:new 0 0 439.875 439.875;"
	 xml:space="preserve">
<g>
	<g>
		<polygon points="191.25,153 172.125,153 172.125,286.875 267.75,286.875 267.75,267.75 191.25,267.75 		"/>
		<polygon points="133.875,153 105.188,202.725 76.5,153 57.375,153 95.625,219.938 57.375,286.875 76.5,286.875 105.188,237.15
			133.875,286.875 153,286.875 114.75,219.938 153,153 		"/>
		<path style="fill:#ffffff;" d="M382.5,95.625H57.375C24.862,95.625,0,120.487,0,153v133.875c0,32.513,24.862,57.375,57.375,57.375H382.5
			c32.513,0,57.375-24.862,57.375-57.375V153C439.875,120.487,415.013,95.625,382.5,95.625z M420.75,286.875
			c0,21.037-17.213,38.25-38.25,38.25H57.375c-21.038,0-38.25-17.213-38.25-38.25V153c0-21.038,17.212-38.25,38.25-38.25H382.5
			c21.037,0,38.25,17.212,38.25,38.25V286.875z"/>
		<path style="fill:#ffffff;" d="M325.125,172.125h19.125c11.475,0,19.125,9.562,19.125,19.125H382.5c0-21.038-17.213-38.25-38.25-38.25h-19.125
			c-21.037,0-38.25,17.212-38.25,38.25c0,21.037,17.213,38.25,38.25,38.25h19.125c11.475,0,19.125,7.65,19.125,19.125
			s-7.65,19.125-19.125,19.125h-19.125c-11.475,0-19.125-9.562-19.125-19.125l0,0h-19.125l0,0c0,21.037,17.213,38.25,38.25,38.25
			h19.125c21.037,0,38.25-17.213,38.25-38.25s-17.213-38.25-38.25-38.25h-19.125c-11.475,0-19.125-7.65-19.125-19.125
			S313.65,172.125,325.125,172.125z"/>
	</g>
</g>
<g>
</g>
<g>
</g>
<g>
</g>
<g>
</g>
<g>
</g>
<g>
</g>
<g>
</g>
<g>
</g>
<g>
</g>
<g>
</g>
<g>
</g>
<g>
</g>
<g>
</g>
<g>
</g>
<g>
</g>
</svg>
