<?xml version="1.0"?>
<svg xmlns="http://www.w3.org/2000/svg" xmlns:xlink="http://www.w3.org/1999/xlink" xmlns:svgjs="http://svgjs.com/svgjs" version="1.1" width="18" height="18" x="0" y="0" viewBox="0 0 416 416" style="enable-background:new 0 0 512 512" xml:space="preserve" class=""><g><g xmlns="http://www.w3.org/2000/svg" clip-rule="evenodd" fill-rule="evenodd"><path d="m208 85.333c-35.725 0-64 29.589-64 65.231 0 34.041 25.792 62.562 59.234 65.054-32.267.751-64.404 9.124-93.753 25.12-8.431 4.595-13.481 13.434-13.481 22.816v27.409c0 21.542 17.131 39.703 39.111 39.703h145.779c21.98 0 39.11-18.161 39.11-39.703v-27.409c0-9.382-5.05-18.221-13.481-22.816-29.348-15.996-61.487-24.369-93.754-25.12 33.443-2.492 59.235-31.012 59.235-65.054 0-35.641-28.275-65.231-64-65.231z" fill="#ffffff" data-original="#90a7b2" style="" class=""/><g fill="#2196f3"><path id="a" d="m208 32c-28.128 0-54.67 6.586-78.213 18.286-14.234 7.073-27.381 16.022-39.116 26.525-36.032 32.25-58.671 79.065-58.671 131.189 0 97.201 78.798 176 176 176 97.201 0 176-78.799 176-176 0-52.124-22.639-98.939-58.671-131.189-6.583-5.893-7.145-16.008-1.252-22.593 5.894-6.584 16.009-7.145 22.594-1.251 42.528 38.063 69.329 93.429 69.329 155.033 0 114.876-93.124 208-208 208-114.875 0-208-93.124-208-208 0-61.604 26.802-116.97 69.329-155.033 13.854-12.399 29.385-22.973 46.217-31.338 27.869-13.849 59.276-21.629 92.454-21.629 8.836 0 16 7.164 16 16s-7.164 16-16 16z" fill="#ffffff" data-original="#2196f3" style="" class=""/><path id="b" d="m331.582 48.913c8.836 0 16 7.163 16 16v60.34c0 8.837-7.164 16-16 16s-16-7.163-16-16v-60.34c0-8.836 7.164-16 16-16z" fill="#ffffff" data-original="#2196f3" style="" class=""/><path id="c" d="m315.582 64.915c0 8.836 7.164 16 16 16h60.341c8.836 0 16-7.164 16-16 0-8.837-7.164-16-16-16h-60.341c-8.836 0-16 7.163-16 16z" fill="#ffffff" data-original="#2196f3" style="" class=""/></g><path id="a_1_" d="m208 32c-28.128 0-54.67 6.586-78.213 18.286-14.234 7.073-27.381 16.022-39.116 26.525-36.032 32.25-58.671 79.065-58.671 131.189 0 97.201 78.798 176 176 176 97.201 0 176-78.799 176-176 0-52.124-22.639-98.939-58.671-131.189-6.583-5.893-7.145-16.008-1.252-22.593 5.894-6.584 16.009-7.145 22.594-1.251 42.528 38.063 69.329 93.429 69.329 155.033 0 114.876-93.124 208-208 208-114.875 0-208-93.124-208-208 0-61.604 26.802-116.97 69.329-155.033 13.854-12.399 29.385-22.973 46.217-31.338 27.869-13.849 59.276-21.629 92.454-21.629 8.836 0 16 7.164 16 16s-7.164 16-16 16z" fill="#ffffff" data-original="#000000" style="" class=""/><path id="b_1_" d="m331.582 48.913c8.836 0 16 7.163 16 16v60.34c0 8.837-7.164 16-16 16s-16-7.163-16-16v-60.34c0-8.836 7.164-16 16-16z" fill="#ffffff" data-original="#000000" style="" class=""/><path id="c_1_" d="m315.582 64.915c0 8.836 7.164 16 16 16h60.341c8.836 0 16-7.164 16-16 0-8.837-7.164-16-16-16h-60.341c-8.836 0-16 7.163-16 16z" fill="#ffffff" data-original="#000000" style="" class=""/><path d="m208 117.333c-17.293 0-32 14.494-32 33.231s14.707 33.231 32 33.231 32-14.494 32-33.231-14.707-33.231-32-33.231zm-64 33.231c0-35.642 28.275-65.231 64-65.231s64 29.589 64 65.231c0 34.041-25.792 62.562-59.234 65.054 32.267.751 64.405 9.124 93.754 25.12 8.43 4.595 13.48 13.434 13.48 22.816v27.409c0 21.542-17.131 39.703-39.11 39.703h-145.779c-21.98 0-39.111-18.161-39.111-39.703v-27.409c0-9.382 5.05-18.221 13.481-22.816 29.348-15.996 61.486-24.369 93.753-25.12-33.442-2.492-59.234-31.012-59.234-65.054zm-16 116.568v23.831c0 4.638 3.563 7.703 7.111 7.703h145.779c3.548 0 7.11-3.066 7.11-7.703v-23.831c-50.306-26.091-109.694-26.091-160 0z" fill="#ffffff" data-original="#000000" style="" class=""/></g></g></svg>
