<?xml version="1.0"?>
<svg xmlns="http://www.w3.org/2000/svg" xmlns:xlink="http://www.w3.org/1999/xlink" xmlns:svgjs="http://svgjs.com/svgjs" version="1.1" width="16" height="16" x="0" y="0" viewBox="0 0 512 512" style="enable-background:new 0 0 512 512" xml:space="preserve"><g>
<g xmlns="http://www.w3.org/2000/svg">
	<g>
		<path d="M437.019,74.98C388.667,26.629,324.38,0,256,0C187.619,0,123.332,26.629,74.98,74.98C26.629,123.332,0,187.619,0,256    s26.629,132.668,74.98,181.02C123.332,485.371,187.619,512,256,512c68.38,0,132.667-26.629,181.019-74.98    C485.371,388.668,512,324.38,512,256S485.371,123.332,437.019,74.98z M256,482C131.383,482,30,380.617,30,256S131.383,30,256,30    s226,101.383,226,226S380.617,482,256,482z" fill="#ffffff" data-original="#000000" style=""/>
	</g>
</g>
<g xmlns="http://www.w3.org/2000/svg">
	<g>
		<path d="M304.199,137.723c-8.284,0-15,6.716-15,15V359.28c0,8.284,6.716,15,15,15s15-6.716,15-15V152.723    C319.199,144.439,312.483,137.723,304.199,137.723z" fill="#ffffff" data-original="#000000" style=""/>
	</g>
</g>
<g xmlns="http://www.w3.org/2000/svg">
	<g>
		<path d="M207.799,137.723c-8.284,0-15,6.716-15,15V359.28c0,8.284,6.716,15,15,15s15-6.716,15-15V152.723    C222.799,144.439,216.083,137.723,207.799,137.723z" fill="#ffffff" data-original="#000000" style=""/>
	</g>
</g>
<g xmlns="http://www.w3.org/2000/svg">
</g>
<g xmlns="http://www.w3.org/2000/svg">
</g>
<g xmlns="http://www.w3.org/2000/svg">
</g>
<g xmlns="http://www.w3.org/2000/svg">
</g>
<g xmlns="http://www.w3.org/2000/svg">
</g>
<g xmlns="http://www.w3.org/2000/svg">
</g>
<g xmlns="http://www.w3.org/2000/svg">
</g>
<g xmlns="http://www.w3.org/2000/svg">
</g>
<g xmlns="http://www.w3.org/2000/svg">
</g>
<g xmlns="http://www.w3.org/2000/svg">
</g>
<g xmlns="http://www.w3.org/2000/svg">
</g>
<g xmlns="http://www.w3.org/2000/svg">
</g>
<g xmlns="http://www.w3.org/2000/svg">
</g>
<g xmlns="http://www.w3.org/2000/svg">
</g>
<g xmlns="http://www.w3.org/2000/svg">
</g>
</g></svg>
