<?xml version="1.0"?>
<svg xmlns="http://www.w3.org/2000/svg" xmlns:xlink="http://www.w3.org/1999/xlink" xmlns:svgjs="http://svgjs.com/svgjs" version="1.1" width="18" height="18" x="0" y="0" viewBox="0 0 447.998 447.998" style="enable-background:new 0 0 512 512" xml:space="preserve" class=""><g><path xmlns="http://www.w3.org/2000/svg" d="m223.999 0c-61.856 0-112 50.144-112 112s50.144 112 112 112 112-50.144 112-112-50.144-112-112-112z" fill="#ffffff" data-original="#90a7b2" style=""/><path xmlns="http://www.w3.org/2000/svg" d="m413.23 301.105c-118.319-62.876-260.143-62.876-378.462 0-11.549 6.138-18.768 18.148-18.768 31.228v78.332c0 20.619 16.715 37.333 37.333 37.333h341.333c20.619 0 37.333-16.715 37.333-37.333v-78.332c0-13.08-7.219-25.09-18.769-31.228z" fill="#ffffff" data-original="#90a7b2" style=""/><g xmlns="http://www.w3.org/2000/svg" clip-rule="evenodd" fill-rule="evenodd"><path d="m223.999 32c-44.183 0-80 35.817-80 80s35.817 80 80 80 80-35.817 80-80-35.817-80-80-80zm-112 80c0-61.856 50.144-112 112-112s112 50.144 112 112-50.144 112-112 112-112-50.144-112-112z" fill="#ffffff" data-original="#000000" style="" class=""/><path d="m398.213 329.363c-108.93-57.886-239.499-57.886-348.429 0-1.098.582-1.785 1.726-1.785 2.97v78.332c0 2.946 2.388 5.333 5.333 5.333h341.333c2.946 0 5.333-2.387 5.333-5.333v-78.332c.002-1.244-.685-2.387-1.785-2.97zm-363.445-28.258c118.32-62.876 260.143-62.876 378.462 0 11.55 6.138 18.769 18.148 18.769 31.228v78.332c0 20.619-16.715 37.333-37.333 37.333h-341.334c-20.619 0-37.333-16.715-37.333-37.333v-78.332c0-13.08 7.219-25.09 18.769-31.228z" fill="#ffffff" data-original="#000000" style="" class=""/></g></g></svg>
