<svg xmlns="http://www.w3.org/2000/svg" viewBox="0 0 2254.13 360.55"><defs><style>.cls-1{fill:#d3d8d9;}.cls-2{fill:#c8cdce;}.cls-3{fill:#a9bcc1;}.cls-4{fill:#d8d8d8;}.cls-5{fill:#b6c1c7;}.cls-6{fill:#bbbebf;}.cls-7{fill:#e4e3e3;}.cls-8{fill:#a6b5b9;}.cls-9{fill:#d7d8d8;}.cls-10{fill:#c7d0d3;}.cls-11{fill:#e4e7e8;}.cls-12{fill:#adb7bc;}.cls-13{fill:#455585;}.cls-14{fill:#edf3f4;}.cls-15{fill:#fff;}.cls-16{fill:#49696a;}.cls-17{fill:#e0e2e2;}.cls-18{fill:#dadcdc;}.cls-19{fill:#7aa7b5;}.cls-20{fill:#eaeaea;}.cls-21{fill:#82cdf4;}.cls-22{fill:#fbfbfb;}.cls-23{fill:#16485c;}</style></defs><g id="Слой_19" data-name="Слой 19"><g id="Слой_9" data-name="Слой 9"><polyline class="cls-1" points="410.21 99.59 303.3 218.01 257.33 160.81 185.97 92.18 410.21 99.59"/></g><g id="Слой_11" data-name="Слой 11"><polyline class="cls-2" points="185.97 92.18 132.21 78.38 0 99.59 39.87 135.56 123.81 135.56 185.97 92.18"/><polygon class="cls-3" points="203.99 279.09 205.05 302.04 218.72 312.15 203.99 279.09"/></g><g id="Слой_12" data-name="Слой 12"><polygon class="cls-4" points="132.21 78.38 0 99.59 15.74 69.98 132.21 78.38"/><polygon class="cls-5" points="240.04 224.99 257.03 254.56 202.55 248.06 240.04 224.99"/><polygon class="cls-6" points="167.56 237.06 202.55 248.06 180.06 276.05 167.56 237.06"/></g><g id="Слой_10" data-name="Слой 10"><polygon class="cls-7" points="306.34 96.16 185.97 92.18 256.3 161.15 305.13 97.98 306.34 96.16"/></g><g id="Слой_8-2" data-name="Слой 8"><polygon class="cls-8" points="429.83 208.97 330.41 241.02 380.53 241.02 429.83 208.97"/></g><g id="Слой_7" data-name="Слой 7"><polygon class="cls-5" points="467.97 201.4 300.4 215.73 317.07 241.02 329.57 241.02 467.97 201.4"/><polygon class="cls-9" points="180.06 276.05 202.55 248.06 205.05 302.04 180.06 276.05"/><polyline class="cls-10" points="274.97 182.76 410.21 99.59 303.3 218.01 274.97 182.76"/></g><g id="Слой_6" data-name="Слой 6"><polygon class="cls-1" points="527.55 149.01 520.6 76.09 410.21 99.59 467.97 201.4 527.55 149.01"/><polygon class="cls-11" points="410.21 99.59 467.97 201.4 303.3 218.01 410.21 99.59"/></g><g id="Слой_4" data-name="Слой 4"><polyline class="cls-7" points="696.93 78.14 708.57 62.35 672.33 70 631.78 61.19 634.27 64.35 659.28 91"/><path class="cls-12" d="M597.2,690.88l-62.64,17.59c0,15.1,7,72.92,7,72.92L624.44,698Z" transform="translate(-13.96 -632.38)"/><path class="cls-13" d="M541.8,706.44" transform="translate(-13.96 -632.38)"/></g><g id="Слой_5" data-name="Слой 5"><path class="cls-1" d="M673.25,723.39c-48.26-50.07-45.5-86.14-45.5-86.14L597.2,690.88Z" transform="translate(-13.96 -632.38)"/></g><g id="Слой_15" data-name="Слой 15"><polygon class="cls-14" points="348.95 276.05 348.95 333.91 396.19 327.59 348.95 276.05"/><polyline class="cls-15" points="257.03 254.56 303.3 218.01 330.41 241.02 313.42 312.15 257.03 254.56"/><path class="cls-16" d="M243.76,708.47" transform="translate(-13.96 -632.38)"/></g><g id="Слой_18" data-name="Слой 18"><path class="cls-16" d="M225.42,715.34" transform="translate(-13.96 -632.38)"/><polyline class="cls-4" points="185.97 92.18 229.79 76.09 240.04 93.97 185.97 92.18"/></g><g id="Слой_17" data-name="Слой 17"><polygon class="cls-14" points="240.04 224.99 114.14 205.79 167.56 237.06 202.55 248.06 240.04 224.99"/><polygon class="cls-14" points="240.04 224.99 274.97 182.76 303.3 218.01 257.03 254.56 240.04 224.99"/><polygon class="cls-17" points="348.95 261.92 348.95 333.91 313.42 312.15 330.41 241.02 348.95 261.92"/></g><g id="Слой_16" data-name="Слой 16"><polygon class="cls-15" points="39.87 135.56 96.87 156.63 240.04 224.99 114.14 205.79 39.87 135.56"/><polyline class="cls-18" points="185.97 92.18 120.94 135.54 39.87 135.56 185.97 92.18"/></g><g id="Слой_14" data-name="Слой 14"><polygon class="cls-19" points="192.92 144.65 181.29 153.8 200.24 153.8 192.92 144.65"/><path class="cls-19" d="M137.78,767.94" transform="translate(-13.96 -632.38)"/><path class="cls-20" d="M134.92,767.91l2,0L104.33,789,53.85,767.94Z" transform="translate(-13.96 -632.38)"/></g><g id="Слой_13" data-name="Слой 13"><polygon class="cls-21" points="192 146.8 185.06 152.64 198.94 155.09 192 146.8"/><polygon class="cls-22" points="257.33 160.81 274.97 182.76 240.04 224.99 90.86 156.63 185.97 92.18 257.33 160.81"/></g><g id="Слой_19-2" data-name="Слой 19"><polygon class="cls-23" points="192.92 144.65 181.29 153.8 200.24 153.8 192.92 144.65"/></g></g><g id="Слой_10-2" data-name="Слой 10"><path class="cls-15" d="M1518.37,939.26V923a7.13,7.13,0,0,1,7.13-7.13h.07a7.16,7.16,0,0,1,6.33,3.86c6.83,13.06,32.6,54.79,82.93,53.86,31.53-.58,67.85-23,78.37-58.63,7.15-24.21,1.78-51.71-10.91-67.67,0,0-10-12.51-38.73-33-.22-.16-.34-.23-.34-.23h0l-23.8-15.54c-54-35.24-64.31-42.32-73.3-57.18a90.06,90.06,0,0,1-8.76-19.37,77.68,77.68,0,0,1-3.24-27c.54-7.87,2.87-21.41,10.73-33.2,16.27-24.39,47.16-28,56.75-29,0,0,47.07-5.42,79.46,29.28a8.09,8.09,0,0,1,1.16,1.65,7.29,7.29,0,0,1,.77,2.87l.87,17a7.13,7.13,0,0,1-7.12,7.5h-.34a7.11,7.11,0,0,1-6.15-3.53c-13.36-22.94-25.41-31.9-35.94-35.35a59.44,59.44,0,0,0-7.06-1.8,69.67,69.67,0,0,0-20.84-1.37c-4.29.44-19.65,2-31,13.38a59,59,0,0,0-9.11,12.39,71.25,71.25,0,0,0-5.2,11.58,40.45,40.45,0,0,0-2.36,9.21,37.52,37.52,0,0,0-.06,8,41.39,41.39,0,0,0,1.75,8.89,39.27,39.27,0,0,0,4,8.68,89.62,89.62,0,0,0,8.94,13.46s.94,1.17,1.92,2.32a104.38,104.38,0,0,0,17.22,15.61c16.77,11.86,63.54,34.61,96.93,66.17,8.69,8.21,21.94,22.31,27.66,43.56a80.86,80.86,0,0,1,2.29,12.13c.29,2.94.58,6.64.69,10.91,0,0,.22,7.78-.35,15.3-.43,5.66-1.66,19.19-6.48,32.45-6.74,18.57-19.5,29.81-25,34.66-30.09,26.5-68.14,25.44-78.36,25.16-12.44-.35-41.78-1.16-67.33-22.6A95.38,95.38,0,0,1,1518.37,939.26Z" transform="translate(-13.96 -632.38)"/><path class="cls-15" d="M795,643.33v14.53c16.06,1.27,145.57,15.87,140.84,156.29C931.1,954.25,810.43,969.1,795,970.43v15.29s159.73,8.42,168.43-171.57S795,643.33,795,643.33Z" transform="translate(-13.96 -632.38)"/><path class="cls-15" d="M1381.75,642.57v15.18s92.2,11,88,94.69-87.2,94.56-87.2,94.56l.35-4.85-1.19-184.4V862.31s103.42-3.2,113-109.87S1381.75,642.57,1381.75,642.57Z" transform="translate(-13.96 -632.38)"/><path class="cls-15" d="M2097.67,634.16h-9.61l-170,350.07H1944L2007,856.57l170-.42,65.17,128.08h25.9Zm-87,203.78,82.45-181.68,76.61,184.4Z" transform="translate(-13.96 -632.38)"/><polyline class="cls-15" points="1996.67 205.56 2000.76 205.63 2079.11 48.27 2155.72 208.28 2079.11 23.88"/><path class="cls-15" d="M2014.73,838" transform="translate(-13.96 -632.38)"/><path class="cls-15" d="M827,814.91" transform="translate(-13.96 -632.38)"/><rect class="cls-15" x="998.81" y="10.2" width="26.33" height="343.15"/><rect class="cls-15" x="998.81" y="338.17" width="133.43" height="15.18"/><rect class="cls-15" x="998.81" y="10.2" width="133.43" height="15.18"/><rect class="cls-15" x="998.81" y="209.77" width="114.73" height="15.18"/><rect class="cls-15" x="1169.88" y="10.2" width="26.33" height="343.15"/><rect class="cls-15" x="1169.88" y="338.17" width="133.43" height="15.18"/><rect class="cls-15" x="1169.88" y="10.2" width="133.43" height="15.18"/><rect class="cls-15" x="1169.88" y="209.77" width="114.73" height="15.18"/><rect class="cls-15" x="1754.12" y="8.7" width="26.33" height="343.15"/><rect class="cls-15" x="1754.12" y="336.68" width="133.43" height="15.18"/><rect class="cls-15" x="1754.12" y="8.7" width="133.43" height="15.18"/><rect class="cls-15" x="1754.12" y="208.28" width="114.73" height="15.18"/><rect class="cls-15" x="1341.45" y="10.2" width="26.33" height="343.15"/><rect class="cls-15" x="754.69" y="10.96" width="26.33" height="343.15"/></g></svg>