<?xml version="1.0"?>
<svg xmlns="http://www.w3.org/2000/svg" xmlns:xlink="http://www.w3.org/1999/xlink" xmlns:svgjs="http://svgjs.com/svgjs" version="1.1" width="16" height="16" x="0" y="0" viewBox="0 0 512 512" style="enable-background:new 0 0 512 512" xml:space="preserve" class=""><g><g xmlns="http://www.w3.org/2000/svg"><path d="m476 120h-124.34a95.993 95.993 0 0 0 -191.32 0h-124.34a28.031 28.031 0 0 0 -28 28v296a28.031 28.031 0 0 0 28 28h440a28.031 28.031 0 0 0 28-28v-296a28.031 28.031 0 0 0 -28-28zm-220-72a80 80 0 1 1 -80 80 80.093 80.093 0 0 1 80-80zm-220 408a12.01 12.01 0 0 1 -12-12v-261.87l144.5 86.7-124.78 187.17zm26.95 0 119.28-178.93 69.65 41.79a8.015 8.015 0 0 0 8.24 0l69.64-41.79 118.36 178.93zm425.05-12a12.01 12.01 0 0 1 -12 12h-8.7l-123.8-187.17 144.5-86.7zm0-280.53-232 139.2-232-139.2v-15.47a12.01 12.01 0 0 1 12-12h124.34a95.993 95.993 0 0 0 191.32 0h124.34a12.01 12.01 0 0 1 12 12z" fill="#ffffff" data-original="#000000" style=""/><path d="m203.1 142.326 31 24a8 8 0 0 0 10.554-.669l64-64a8 8 0 0 0 -11.314-11.314l-59.014 59.017-25.426-19.686a8 8 0 1 0 -9.794 12.652z" fill="#ffffff" data-original="#000000" style=""/></g></g></svg>
