<?xml version="1.0" encoding="UTF-8"?>
<!DOCTYPE svg PUBLIC "-//W3C//DTD SVG 1.1//EN" "http://www.w3.org/Graphics/SVG/1.1/DTD/svg11.dtd">
<svg version="1.2" width="192.07mm" height="96.42mm" viewBox="0 0 19207 9642" preserveAspectRatio="xMidYMid" fill-rule="evenodd" stroke-width="28.222" stroke-linejoin="round" xmlns="http://www.w3.org/2000/svg" xmlns:ooo="http://xml.openoffice.org/svg/export" xmlns:xlink="http://www.w3.org/1999/xlink" xmlns:presentation="http://sun.com/xmlns/staroffice/presentation" xmlns:smil="http://www.w3.org/2001/SMIL20/" xmlns:anim="urn:oasis:names:tc:opendocument:xmlns:animation:1.0" xml:space="preserve">
 <defs class="ClipPathGroup">
  <clipPath id="presentation_clip_path" clipPathUnits="userSpaceOnUse">
   <rect x="0" y="0" width="19207" height="9642"/>
  </clipPath>
  <clipPath id="presentation_clip_path_shrink" clipPathUnits="userSpaceOnUse">
   <rect x="19" y="9" width="19169" height="9623"/>
  </clipPath>
 </defs>
 <defs class="TextShapeIndex">
  <g ooo:slide="id1" ooo:id-list="id3"/>
 </defs>
 <defs class="EmbeddedBulletChars">
  <g id="bullet-char-template-57356" transform="scale(0.00048828125,-0.00048828125)">
   <path d="M 580,1141 L 1163,571 580,0 -4,571 580,1141 Z"/>
  </g>
  <g id="bullet-char-template-57354" transform="scale(0.00048828125,-0.00048828125)">
   <path d="M 8,1128 L 1137,1128 1137,0 8,0 8,1128 Z"/>
  </g>
  <g id="bullet-char-template-10146" transform="scale(0.00048828125,-0.00048828125)">
   <path d="M 174,0 L 602,739 174,1481 1456,739 174,0 Z M 1358,739 L 309,1346 659,739 1358,739 Z"/>
  </g>
  <g id="bullet-char-template-10132" transform="scale(0.00048828125,-0.00048828125)">
   <path d="M 2015,739 L 1276,0 717,0 1260,543 174,543 174,936 1260,936 717,1481 1274,1481 2015,739 Z"/>
  </g>
  <g id="bullet-char-template-10007" transform="scale(0.00048828125,-0.00048828125)">
   <path d="M 0,-2 C -7,14 -16,27 -25,37 L 356,567 C 262,823 215,952 215,954 215,979 228,992 255,992 264,992 276,990 289,987 310,991 331,999 354,1012 L 381,999 492,748 772,1049 836,1024 860,1049 C 881,1039 901,1025 922,1006 886,937 835,863 770,784 769,783 710,716 594,584 L 774,223 C 774,196 753,168 711,139 L 727,119 C 717,90 699,76 672,76 641,76 570,178 457,381 L 164,-76 C 142,-110 111,-127 72,-127 30,-127 9,-110 8,-76 1,-67 -2,-52 -2,-32 -2,-23 -1,-13 0,-2 Z"/>
  </g>
  <g id="bullet-char-template-10004" transform="scale(0.00048828125,-0.00048828125)">
   <path d="M 285,-33 C 182,-33 111,30 74,156 52,228 41,333 41,471 41,549 55,616 82,672 116,743 169,778 240,778 293,778 328,747 346,684 L 369,508 C 377,444 397,411 428,410 L 1163,1116 C 1174,1127 1196,1133 1229,1133 1271,1133 1292,1118 1292,1087 L 1292,965 C 1292,929 1282,901 1262,881 L 442,47 C 390,-6 338,-33 285,-33 Z"/>
  </g>
  <g id="bullet-char-template-9679" transform="scale(0.00048828125,-0.00048828125)">
   <path d="M 813,0 C 632,0 489,54 383,161 276,268 223,411 223,592 223,773 276,916 383,1023 489,1130 632,1184 813,1184 992,1184 1136,1130 1245,1023 1353,916 1407,772 1407,592 1407,412 1353,268 1245,161 1136,54 992,0 813,0 Z"/>
  </g>
  <g id="bullet-char-template-8226" transform="scale(0.00048828125,-0.00048828125)">
   <path d="M 346,457 C 273,457 209,483 155,535 101,586 74,649 74,723 74,796 101,859 155,911 209,963 273,989 346,989 419,989 480,963 531,910 582,859 608,796 608,723 608,648 583,586 532,535 482,483 420,457 346,457 Z"/>
  </g>
  <g id="bullet-char-template-8211" transform="scale(0.00048828125,-0.00048828125)">
   <path d="M -4,459 L 1135,459 1135,606 -4,606 -4,459 Z"/>
  </g>
  <g id="bullet-char-template-61548" transform="scale(0.00048828125,-0.00048828125)">
   <path d="M 173,740 C 173,903 231,1043 346,1159 462,1274 601,1332 765,1332 928,1332 1067,1274 1183,1159 1299,1043 1357,903 1357,740 1357,577 1299,437 1183,322 1067,206 928,148 765,148 601,148 462,206 346,322 231,437 173,577 173,740 Z"/>
  </g>
 </defs>
 <defs class="TextEmbeddedBitmaps"/>
 <g class="SlideGroup">
  <g>
   <g id="container-id1">
    <g id="id1" class="Slide" clip-path="url(#presentation_clip_path)">
     <g class="Page">
      <g class="Graphic">
       <g id="id3">
        <rect class="BoundingBox" stroke="none" fill="none" x="0" y="0" width="19208" height="9643"/>
        <defs>
         <clipPath id="clip_path_1" clipPathUnits="userSpaceOnUse">
          <path d="M 0,0 L 19207,0 19207,9642 0,9642 0,0 Z"/>
         </clipPath>
        </defs>
        <g clip-path="url(#clip_path_1)"/>
        <defs>
         <clipPath id="clip_path_2" clipPathUnits="userSpaceOnUse">
          <path d="M 0,0 L 19207,0 19207,9642 0,9642 0,0 Z"/>
         </clipPath>
        </defs>
        <g clip-path="url(#clip_path_2)">
         <path fill="rgb(82,161,193)" stroke="none" d="M 10968,2523 L 4972,2325 6880,4153 8109,5676 10968,2523 Z"/>
         <path fill="rgb(59,112,133)" stroke="none" d="M 4972,2325 L 3310,3480 1066,3480 0,2523 3535,1958 4972,2325 Z"/>
         <path fill="rgb(20,71,91)" stroke="none" d="M 5848,8184 L 5482,7914 5454,7303 5848,8184 5848,8184 Z"/>
         <path fill="rgb(51,142,179)" stroke="none" d="M 421,1734 L 0,2523 3535,1958 421,1734 421,1734 Z"/>
         <path fill="rgb(20,71,91)" stroke="none" d="M 5415,6477 L 6872,6650 6418,5862 5415,6477 5415,6477 Z"/>
         <path fill="rgb(48,105,117)" stroke="none" d="M 4814,7222 L 5415,6477 4480,6184 4814,7222 4814,7222 Z"/>
         <path fill="rgb(67,122,140)" stroke="none" d="M 8158,2480 L 6853,4162 4972,2325 8191,2431 8158,2480 8158,2480 Z"/>
         <path fill="rgb(15,55,74)" stroke="none" d="M 10174,6289 L 8834,6289 11492,5436 10174,6289 10174,6289 Z"/>
         <path fill="rgb(20,71,91)" stroke="none" d="M 8812,6289 L 8477,6289 8032,5615 12512,5234 8812,6289 8812,6289 Z"/>
         <path fill="rgb(51,142,179)" stroke="none" d="M 5482,7914 L 5415,6477 4814,7222 5482,7914 5482,7914 Z"/>
         <path fill="rgb(82,161,193)" stroke="none" d="M 7352,4738 L 8109,5676 10968,2523 7352,4738 Z"/>
         <path fill="rgb(49,98,112)" stroke="none" d="M 12512,5234 L 10968,2523 13919,1897 14105,3839 12512,5234 12512,5234 Z"/>
         <path fill="rgb(59,112,133)" stroke="none" d="M 8109,5676 L 12512,5234 10968,2523 8109,5676 8109,5676 Z"/>
         <path fill="rgb(55,146,181)" stroke="none" d="M 17627,2294 L 16958,1584 16892,1500 17976,1734 18945,1531 18634,1951 Z"/>
         <path fill="rgb(15,55,74)" stroke="none" d="M 16322,1618 L 14105,3839 C 14105,3839 13920,2299 13920,1897 L 15594,1428 16322,1618 Z"/>
         <path fill="rgb(51,120,142)" stroke="none" d="M 15594,1428 L 16411,0 C 16411,0 16337,961 17628,2294 L 15594,1428 Z"/>
         <path fill="rgb(65,110,127)" stroke="none" d="M 10593,8595 L 9330,8763 9330,7222 10593,8595 10593,8595 Z"/>
         <path fill="rgb(75,163,199)" stroke="none" d="M 6872,6650 L 8380,8184 8834,6289 8109,5676 6872,6650 Z"/>
         <path fill="rgb(59,112,133)" stroke="none" d="M 4972,2325 L 6418,2373 6144,1897 4972,2325 Z"/>
         <path fill="rgb(96,197,232)" stroke="none" d="M 5415,6477 L 4480,6184 3052,5351 6418,5862 5415,6477 5415,6477 Z"/>
         <path fill="rgb(85,173,201)" stroke="none" d="M 6872,6650 L 8109,5676 7352,4738 6418,5862 6872,6650 6872,6650 Z"/>
         <path fill="rgb(62,131,153)" stroke="none" d="M 8834,6289 L 8380,8184 9330,8763 9330,6846 8834,6289 8834,6289 Z"/>
         <path fill="rgb(142,210,234)" stroke="none" d="M 3052,5351 L 6418,5862 2590,4042 1066,3480 3052,5351 3052,5351 Z"/>
         <path fill="rgb(73,132,150)" stroke="none" d="M 4972,2325 L 1066,3480 3233,3480 4972,2325 Z"/>
         <path fill="rgb(121,167,181)" stroke="none" d="M 5354,3966 L 4847,3966 5158,3723 5354,3966 5354,3966 Z"/>
         <path fill="rgb(63,158,187)" stroke="none" d="M 1066,3481 L 2415,4042 3288,3481 3234,3481 1066,3481 Z"/>
         <path fill="rgb(128,205,244)" stroke="none" d="M 5319,4001 L 4948,3935 5133,3780 5319,4001 5319,4001 Z"/>
         <path fill="rgb(86,192,225)" stroke="none" d="M 4972,2325 L 2429,4042 6418,5862 7352,4738 6880,4153 4972,2325 4972,2325 Z"/>
         <path fill="rgb(20,71,91)" stroke="none" d="M 5354,3966 L 4847,3966 5158,3723 5354,3966 5354,3966 Z"/>
         <path fill="rgb(15,55,74)" stroke="none" d="M 20668,311 L 20668,697 C 21093,731 24519,1117 24394,4832 24269,8538 21077,8932 20668,8966 L 20668,9371 C 20668,9371 24894,9594 25124,4832 25354,70 20668,311 20668,311 L 20668,311 Z"/>
         <path fill="rgb(15,55,74)" stroke="none" d="M 36192,291 L 36192,693 C 36192,693 38631,984 38520,3198 38409,5412 36213,5699 36213,5699 L 36223,5571 36191,693 36191,6104 C 36191,6104 38927,6020 39181,3198 39434,376 36192,291 36192,291 L 36192,291 Z"/>
         <path fill="rgb(15,55,74)" stroke="none" d="M 55132,69 L 54878,69 50381,9330 51065,9330 52734,5953 57231,5942 58956,9330 59641,9330 55132,69 Z M 52831,5460 L 55012,653 57039,5532 52831,5460 Z"/>
         <path fill="rgb(15,55,74)" stroke="none" d="M 52830,5460 L 52938,5461 55011,1298 57037,5532 55011,653 Z"/>
         <path fill="rgb(15,55,74)" stroke="none" d="M 39858,8222 L 39858,7791 39858,7791 C 39858,7756 39866,7727 39883,7697 39901,7667 39922,7645 39952,7628 39982,7610 40012,7602 40047,7602 L 40047,7602 40048,7602 40048,7602 C 40083,7602 40113,7610 40143,7628 40173,7645 40194,7667 40212,7697 40213,7699 40214,7702 40216,7704 40397,8050 41078,9154 42410,9129 43244,9114 44205,8521 44483,7578 44672,6937 44530,6210 44195,5788 44195,5788 43930,5457 43170,4915 43164,4911 43161,4909 43161,4909 L 43161,4909 42531,4498 C 41103,3565 40830,3378 40592,2985 L 40592,2985 C 40584,2971 40577,2959 40569,2946 40478,2788 40415,2646 40360,2472 L 40360,2472 C 40298,2268 40271,2088 40271,1874 40271,1833 40272,1799 40275,1758 40289,1550 40351,1192 40559,880 40989,234 41806,140 42060,111 42060,111 43305,-32 44162,886 L 44162,886 C 44173,898 44181,909 44189,923 44190,925 44191,927 44193,930 L 44193,930 C 44205,954 44211,978 44213,1006 L 44236,1455 44236,1455 C 44236,1459 44236,1462 44236,1465 44236,1500 44228,1530 44211,1560 44194,1590 44172,1611 44142,1629 44112,1646 44083,1654 44048,1654 44048,1654 44048,1654 44048,1654 L 44039,1654 44039,1654 C 44039,1654 44038,1654 44038,1654 44004,1654 43974,1646 43944,1629 43915,1611 43893,1590 43876,1561 43523,952 43204,717 42925,625 L 42925,625 C 42861,605 42805,591 42738,578 L 42738,578 C 42602,548 42484,535 42344,535 42289,535 42242,537 42187,542 42074,553 41667,594 41367,895 L 41367,895 C 41276,991 41208,1081 41142,1195 41136,1205 41131,1213 41126,1223 L 41126,1223 C 41068,1326 41027,1418 40988,1529 L 40988,1529 C 40957,1612 40938,1685 40926,1773 L 40926,1773 C 40921,1813 40920,1846 40920,1886 40920,1921 40921,1950 40924,1985 L 40924,1985 C 40932,2069 40945,2139 40971,2220 L 40971,2220 C 40995,2295 41022,2356 41061,2423 41066,2433 41071,2440 41077,2450 L 41077,2450 C 41087,2470 41097,2487 41108,2507 41172,2617 41233,2706 41313,2805 41393,2905 41338,2837 41364,2867 L 41364,2867 C 41507,3029 41644,3153 41819,3280 42263,3593 43500,4196 44384,5030 44614,5247 44964,5621 45115,6183 L 45115,6183 C 45145,6294 45163,6389 45176,6504 45184,6582 45191,6680 45194,6792 45194,6792 45200,6998 45185,7197 45174,7347 45141,7705 45014,8056 44835,8547 44498,8844 44352,8972 43556,9673 42550,9646 42279,9638 41950,9629 41174,9607 40498,9040 L 40498,9040 C 40262,8842 40092,8638 39938,8371 39908,8320 39884,8276 39858,8222 L 39858,8222 Z"/>
         <path fill="rgb(15,55,74)" stroke="none" d="M 26779,9370 L 26431,9370 26431,291 27127,291 27127,9370 26779,9370 Z"/>
         <path fill="rgb(15,55,74)" stroke="none" d="M 28196,9370 L 26431,9370 26431,8968 29960,8968 29960,9370 28196,9370 Z"/>
         <path fill="rgb(15,55,74)" stroke="none" d="M 28196,693 L 26431,693 26431,291 29960,291 29960,693 28196,693 Z"/>
         <path fill="rgb(15,55,74)" stroke="none" d="M 27948,5973 L 26431,5973 26431,5571 29466,5571 29466,5973 27948,5973 Z"/>
         <path fill="rgb(15,55,74)" stroke="none" d="M 31305,9370 L 30957,9370 30957,291 31653,291 31653,9370 31305,9370 Z"/>
         <path fill="rgb(15,55,74)" stroke="none" d="M 32721,9370 L 30957,9370 30957,8968 34486,8968 34486,9370 32721,9370 Z"/>
         <path fill="rgb(15,55,74)" stroke="none" d="M 32721,693 L 30957,693 30957,291 34486,291 34486,693 32721,693 Z"/>
         <path fill="rgb(15,55,74)" stroke="none" d="M 32474,5973 L 30957,5973 30957,5571 33992,5571 33992,5973 32474,5973 Z"/>
         <path fill="rgb(15,55,74)" stroke="none" d="M 46761,9330 L 46413,9330 46413,252 47109,252 47109,9330 46761,9330 Z"/>
         <path fill="rgb(15,55,74)" stroke="none" d="M 48178,9330 L 46413,9330 46413,8928 49943,8928 49943,9330 48178,9330 Z"/>
         <path fill="rgb(15,55,74)" stroke="none" d="M 48178,653 L 46413,653 46413,252 49943,252 49943,653 48178,653 Z"/>
         <path fill="rgb(15,55,74)" stroke="none" d="M 47930,5933 L 46413,5933 46413,5532 49448,5532 49448,5933 47930,5933 Z"/>
         <path fill="rgb(15,55,74)" stroke="none" d="M 35844,9370 L 35495,9370 35495,291 36192,291 36192,9370 35844,9370 Z"/>
         <path fill="rgb(15,55,74)" stroke="none" d="M 20321,9390 L 19972,9390 19972,311 20669,311 20669,9390 20321,9390 Z"/>
        </g>
        <g clip-path="url(#clip_path_1)"/>
       </g>
      </g>
     </g>
    </g>
   </g>
  </g>
 </g>
</svg>