<svg xmlns="http://www.w3.org/2000/svg" viewBox="0 0 2254.39 364.46"><defs><style>.cls-1{fill:#52a1c1;}.cls-2{fill:#3b7085;}.cls-3{fill:#14475b;}.cls-4{fill:#338eb3;}.cls-5{fill:#306975;}.cls-6{fill:#437a8c;}.cls-7{fill:#0f374a;}.cls-8{fill:#316270;}.cls-9{fill:#3792b5;}.cls-10{fill:#445483;}.cls-11{fill:#33788e;}.cls-12{fill:#416e7f;}.cls-13{fill:#4ba3c7;}.cls-14{fill:#486869;}.cls-15{fill:#60c5e8;}.cls-16{fill:#55adc9;}.cls-17{fill:#3e8399;}.cls-18{fill:#8ed2ea;}.cls-19{fill:#498496;}.cls-20{fill:#79a7b5;}.cls-21{fill:#3f9ebb;}.cls-22{fill:#80cdf4;}.cls-23{fill:#56c0e1;}.cls-24{fill:#edefef;}</style></defs><g id="Слой_20" data-name="Слой 20"><polyline class="cls-1" points="414.58 95.35 187.94 87.89 260.06 156.97 306.52 214.56 414.58 95.35"/><polyline class="cls-2" points="187.94 87.89 125.13 131.56 40.3 131.56 0 95.35 133.61 74 187.94 87.89"/><polygon class="cls-3" points="221.04 309.33 207.23 299.15 206.16 276.05 221.04 309.33"/><polygon class="cls-4" points="15.91 65.55 0 95.35 133.61 74 15.91 65.55"/><polygon class="cls-3" points="204.7 244.81 259.76 251.35 242.59 221.59 204.7 244.81"/><polygon class="cls-5" points="181.97 272.99 204.7 244.81 169.34 233.74 181.97 272.99"/><polygon class="cls-6" points="308.37 93.73 259.03 157.32 187.94 87.89 309.6 91.89 308.37 93.73"/><polygon class="cls-7" points="384.58 237.72 333.92 237.72 434.4 205.46 384.58 237.72"/><polygon class="cls-3" points="333.08 237.72 320.44 237.72 303.59 212.26 472.94 197.84 333.08 237.72"/><polygon class="cls-4" points="207.23 299.15 204.7 244.81 181.97 272.99 207.23 299.15"/><polyline class="cls-1" points="277.89 179.08 306.52 214.56 414.58 95.35 277.89 179.08"/><polygon class="cls-8" points="472.94 197.84 414.58 95.35 526.14 71.7 533.16 145.1 472.94 197.84"/><polygon class="cls-2" points="306.52 214.56 472.94 197.84 414.58 95.35 306.52 214.56"/><polyline class="cls-9" points="666.3 86.7 641.02 59.87 638.5 56.69 679.48 65.56 716.1 57.86 704.35 73.76"/><path class="cls-7" d="M628.73,125.81l-83.81,83.94s-7-58.2-7-73.4l63.3-17.71Z" transform="translate(-11.76 -64.65)"/><path class="cls-10" d="M545.21,134.3" transform="translate(-11.76 -64.65)"/><path class="cls-11" d="M601.2,118.64l30.88-54s-2.8,36.32,46,86.71Z" transform="translate(-11.76 -64.65)"/><polygon class="cls-12" points="400.4 324.87 352.66 331.24 352.66 272.99 400.4 324.87"/><polyline class="cls-13" points="259.76 251.35 316.75 309.33 333.92 237.72 306.52 214.56 259.76 251.35"/><path class="cls-14" d="M244,136.35" transform="translate(-11.76 -64.65)"/><path class="cls-14" d="M225.47,143.26" transform="translate(-11.76 -64.65)"/><polyline class="cls-2" points="187.94 87.89 242.59 89.69 232.23 71.7 187.94 87.89"/><polygon class="cls-15" points="204.7 244.81 169.34 233.74 115.36 202.27 242.59 221.59 204.7 244.81"/><polygon class="cls-16" points="259.76 251.35 306.52 214.56 277.89 179.08 242.59 221.59 259.76 251.35"/><polygon class="cls-17" points="333.92 237.72 316.75 309.33 352.66 331.24 352.66 258.76 333.92 237.72"/><polygon class="cls-18" points="115.36 202.27 242.59 221.59 97.89 152.77 40.3 131.56 115.36 202.27"/><polyline class="cls-19" points="187.94 87.89 40.3 131.56 122.22 131.54 187.94 87.89"/><polygon class="cls-20" points="202.37 149.93 183.22 149.93 194.97 140.71 202.37 149.93"/><path class="cls-20" d="M136.89,196.22" transform="translate(-11.76 -64.65)"/><path class="cls-21" d="M52.06,196.22l51,21.2,33-21.2-2.06,0Z" transform="translate(-11.76 -64.65)"/><polygon class="cls-22" points="201.06 151.22 187.02 148.75 194.04 142.88 201.06 151.22"/><polygon class="cls-23" points="187.94 87.89 91.82 152.77 242.59 221.59 277.89 179.08 260.06 156.97 187.94 87.89"/><polygon class="cls-3" points="202.37 149.93 183.22 149.93 194.97 140.71 202.37 149.93"/></g><g id="Слой_6" data-name="Слой 6"><path class="cls-7" d="M793,76.42V91c16.06,1.27,145.56,15.87,140.84,156.28-4.72,140.1-125.39,155-140.84,156.28v15.3s159.73,8.42,168.43-171.58S793,76.42,793,76.42Z" transform="translate(-11.76 -64.65)"/><path class="cls-7" d="M1379.81,75.66V90.84s92.2,11,88,94.69-87.2,94.55-87.2,94.55l.35-4.84-1.19-184.4V295.39s103.42-3.2,113-109.86S1379.81,75.66,1379.81,75.66Z" transform="translate(-11.76 -64.65)"/><path class="cls-7" d="M2095.73,67.24h-9.61l-170,350.08H1942l63.08-127.66,170-.42,65.17,128.08h25.89Zm-87,203.79,82.44-181.69,76.62,184.41Z" transform="translate(-11.76 -64.65)"/><polyline class="cls-7" points="1996.93 206.37 2001.02 206.44 2079.37 49.08 2155.98 209.09 2079.37 24.69"/><path class="cls-7" d="M2012.78,271.1" transform="translate(-11.76 -64.65)"/><path class="cls-24" d="M678.06,306.13" transform="translate(-11.76 -64.65)"/><path class="cls-7" d="M825.06,248" transform="translate(-11.76 -64.65)"/><path class="cls-7" d="M1518.37,375.44v-16.3a7.13,7.13,0,0,1,7.13-7.13h.07a7.14,7.14,0,0,1,6.33,3.86c6.83,13.06,32.6,54.79,82.93,53.86,31.53-.58,67.85-23,78.37-58.64,7.15-24.21,1.78-51.71-10.91-67.66,0,0-10-12.51-38.73-33-.22-.16-.34-.23-.34-.23h0l-23.8-15.54c-54-35.24-64.31-42.32-73.3-57.18a90.11,90.11,0,0,1-8.76-19.38,77.65,77.65,0,0,1-3.24-27c.54-7.86,2.87-21.4,10.73-33.19,16.27-24.4,47.16-27.95,56.75-29.06,0,0,47.07-5.42,79.46,29.29a8.09,8.09,0,0,1,1.16,1.65,7.07,7.07,0,0,1,.76,2.87l.88,17a7.12,7.12,0,0,1-7.12,7.5h-.34a7.1,7.1,0,0,1-6.15-3.52c-13.36-23-25.41-31.9-35.94-35.36a61.5,61.5,0,0,0-7.06-1.79,69.33,69.33,0,0,0-20.84-1.37c-4.29.43-19.65,2-31,13.37a59,59,0,0,0-9.11,12.4,71.42,71.42,0,0,0-5.2,11.57,40.59,40.59,0,0,0-2.36,9.21,37.6,37.6,0,0,0-.06,8,41.39,41.39,0,0,0,1.75,8.89,39.71,39.71,0,0,0,4,8.68,89.11,89.11,0,0,0,8.94,13.45s.94,1.18,1.92,2.33a103.88,103.88,0,0,0,17.22,15.6c16.77,11.86,63.54,34.62,96.93,66.17,8.69,8.21,21.94,22.32,27.66,43.57a81,81,0,0,1,2.29,12.12c.29,2.95.58,6.65.69,10.92,0,0,.22,7.78-.35,15.3-.43,5.66-1.66,19.19-6.48,32.45-6.74,18.56-19.5,29.81-25,34.65-30.09,26.5-68.14,25.45-78.36,25.16-12.44-.34-41.78-1.16-67.33-22.59A95.48,95.48,0,0,1,1518.37,375.44Z" transform="translate(-11.76 -64.65)"/><path class="cls-7" d="M1728.86,336.83" transform="translate(-11.76 -64.65)"/><path class="cls-7" d="M1544.86,221.16" transform="translate(-11.76 -64.65)"/><path class="cls-7" d="M1635,265.77" transform="translate(-11.76 -64.65)"/><path class="cls-7" d="M1600.41,150.32" transform="translate(-11.76 -64.65)"/><path class="cls-7" d="M1576.18,142.29" transform="translate(-11.76 -64.65)"/><path class="cls-7" d="M1583.45,150.37" transform="translate(-11.76 -64.65)"/><path class="cls-7" d="M1610.37,107.94" transform="translate(-11.76 -64.65)"/></g><g id="Слой_5" data-name="Слой 5"><rect class="cls-7" x="999.06" y="11.01" width="26.33" height="343.15"/><rect class="cls-7" x="999.06" y="338.98" width="133.43" height="15.18"/><rect class="cls-7" x="999.06" y="11.01" width="133.43" height="15.18"/><rect class="cls-7" x="999.06" y="210.58" width="114.73" height="15.18"/><rect class="cls-7" x="1170.14" y="11.01" width="26.33" height="343.15"/><rect class="cls-7" x="1170.14" y="338.98" width="133.43" height="15.18"/><rect class="cls-7" x="1170.14" y="11.01" width="133.43" height="15.18"/><rect class="cls-7" x="1170.14" y="210.58" width="114.73" height="15.18"/><rect class="cls-7" x="1754.38" y="9.51" width="26.33" height="343.15"/><rect class="cls-7" x="1754.38" y="337.49" width="133.43" height="15.18"/><rect class="cls-7" x="1754.38" y="9.51" width="133.43" height="15.18"/><rect class="cls-7" x="1754.38" y="209.09" width="114.73" height="15.18"/><rect class="cls-7" x="1341.71" y="11.01" width="26.33" height="343.15"/><rect class="cls-7" x="754.94" y="11.77" width="26.33" height="343.15"/></g></svg>