<?xml version="1.0" encoding="UTF-8"?>
<!DOCTYPE svg PUBLIC "-//W3C//DTD SVG 1.1//EN" "http://www.w3.org/Graphics/SVG/1.1/DTD/svg11.dtd">
<!-- Creator: CorelDRAW 2021 (64-Bit) -->
<svg xmlns="http://www.w3.org/2000/svg" xml:space="preserve" width="4.2332mm" height="4.2332mm" version="1.1" style="shape-rendering:geometricPrecision; text-rendering:geometricPrecision; image-rendering:optimizeQuality; fill-rule:evenodd; clip-rule:evenodd"
viewBox="0 0 42332 42332"
 xmlns:xlink="http://www.w3.org/1999/xlink"
 xmlns:xodm="http://www.corel.com/coreldraw/odm/2003">
 <defs>
  <style type="text/css">
   <![CDATA[
    .fil0 {fill:#10374B}
   ]]>
  </style>
 </defs>
 <g id="Слой_x0020_1">
  <metadata id="CorelCorpID_0Corel-Layer"/>
  <g id="_2826010890656">
   <path class="fil0" d="M38379 20348c-79,0 -98,-3 -114,63 -155,0 -53,42 -189,51 -84,5 -42,31 -113,50 -54,15 -39,27 -82,45 -47,19 -75,-9 -82,56 -94,0 -75,22 -171,56 -72,27 -17,26 -64,49 -30,15 -22,3 -50,13 -45,18 -31,29 -91,48 -29,9 -10,0 -27,11 -47,30 18,6 -84,42 -29,10 -38,33 -71,43 -58,18 -65,-13 -72,53 -182,0 -97,4 -172,43 -11,5 -50,7 -93,46 -30,27 4,9 -40,23l-67 33c-22,17 -4,8 -34,17 -4,1 -17,3 -21,4 -3,1 -7,1 -10,3 -32,11 -43,34 -71,42 -3,1 -7,1 -11,2 -55,14 -43,-27 -61,52l-89 0c-11,23 -9,16 -12,50 -115,0 -78,29 -140,49 -101,34 -48,40 -135,67 -50,15 -31,32 -80,46 -44,13 -59,-1 -74,53 -25,0 -82,-4 -102,-1 -45,5 -45,6 -49,51 -31,0 -57,-5 -81,8 -43,21 -1,4 -26,24 -22,17 -4,7 -34,17 -76,23 -11,-13 -69,31l-71 30c-57,27 -22,35 -95,56 -61,17 -32,31 -103,49 -44,11 -34,-23 -51,50l-88 0c-11,23 -10,16 -12,50 -128,0 -75,29 -141,49 -14,4 -16,0 -32,5 -37,13 -30,3 -42,47 -112,0 -123,-14 -164,63l-88 0 -14 50 -87 1c-11,23 -10,15 -12,50l-73 4c-29,10 -22,20 -41,33 -46,30 -12,-11 -76,26 -15,8 -24,21 -27,23l-146 69c-85,29 -33,52 -104,60 -58,5 -107,-25 -113,50 -31,0 -57,-5 -81,7 -38,19 -19,28 -60,41l-67 34c-31,23 -74,26 -103,48 -22,17 -2,8 -32,18l-69 33c-49,36 -100,5 -118,84l-88 0c-12,23 -10,15 -13,50l-88 13c-37,24 10,1 -26,24l-48 16c-80,25 7,48 -178,48 -38,57 -8,36 -64,50 -57,14 -56,-8 -62,51 -138,0 -77,39 -153,61 -85,24 -87,95 -137,27 46,-4 46,-4 50,-50 56,-5 40,-16 55,-34l184 -182c27,-25 21,6 26,-49 46,-4 47,-4 50,-51 56,-4 40,-15 55,-33l184 -182c27,-25 22,6 26,-49 47,-4 47,-4 51,-51 43,-3 21,-1 37,-13l136 -141c3,-3 11,-9 14,-12l25 -38c4,-18 2,-42 2,-61 57,-6 34,-15 92,-72 1,-2 4,-4 6,-6 2,-2 4,-5 6,-7l272 -270c1,-2 4,-4 6,-6 27,-28 22,-12 33,-55 19,-70 24,-61 76,-113 18,-17 34,-34 51,-50l160 -155c2,-2 5,-5 7,-7 25,-29 9,-4 18,-32l208 -246c37,-37 94,-79 109,-130 33,-108 142,-146 200,-229 31,-43 6,-58 41,-98 2,-2 5,-4 6,-6 39,-38 73,-81 121,-106l0 -88c50,-12 67,-43 98,-78l39 -37c4,-2 21,-8 27,-11 0,-94 33,-102 91,-161 26,-26 2,-27 60,-41l0 -88 128 -112c8,-7 13,-9 19,-18 32,-46 3,3 17,-47 12,-38 6,-26 26,-49l101 -101c47,-53 -2,-62 94,-146 36,-31 33,-28 44,-69 21,-83 -18,39 4,-21 17,-45 28,-1 46,-68l25 0c22,83 80,29 143,60 71,35 -8,41 173,41 6,59 4,37 62,51 56,13 25,-7 64,50 197,0 85,45 214,50 135,6 4,51 227,51 19,83 65,63 164,63 10,37 5,20 25,50 255,0 54,43 201,52 24,1 63,-1 89,-1 10,37 5,20 25,50 28,0 87,-4 110,4 47,16 31,33 79,47l44 19c27,20 -19,9 36,28 22,7 94,3 122,3 19,83 65,63 164,63 10,37 5,21 25,51 255,0 54,42 201,51 24,2 63,-1 89,-1 7,77 88,50 151,50 10,38 6,21 26,51 22,0 56,-3 76,-1 82,5 30,16 83,43 49,24 46,-13 80,33 -42,12 -38,36 -78,48 -59,18 -66,-13 -73,53zm-1160 -10325l0 504c-53,5 -49,7 -52,62l2 354 -50 14 -1 302c-125,29 -33,211 -63,302 -36,50 -50,12 -51,113 -1,54 1,110 1,164 -38,10 -21,6 -51,26l0 239c-37,10 -20,5 -50,25l0 164c-24,72 -51,-67 -51,227 -37,10 -20,5 -50,25l0 127c-40,21 -55,20 -62,76 -5,37 -1,110 -1,150 -81,9 -50,132 -50,202 -38,10 -21,5 -51,25l0 139c-77,6 -50,88 -50,151 -38,10 -21,5 -51,26 0,146 12,95 -25,138 -37,43 -25,-9 -25,152 -83,19 -63,64 -63,163 -38,10 -21,6 -51,26l0 126c-44,12 -34,4 -47,41l-22 66c-37,47 -32,-19 -32,157l-49 15c-5,203 -18,84 -51,200 -17,56 4,18 -32,56 -61,63 -13,58 -35,129 -20,63 -10,-4 -37,51 -16,30 -10,40 -10,79 -58,6 -37,5 -51,63 -13,55 7,25 -50,63 0,21 3,84 -1,100 -6,30 -1,12 -17,33l-13 12c-18,24 -2,-7 -14,24l-37 76c-21,27 -19,57 -19,95 -66,16 -63,35 -63,114 -67,7 -36,57 -77,112l-26 62c-14,39 -27,31 -40,60 -14,32 -1,8 -8,31 -10,36 -27,30 -52,111 -24,73 -49,33 -49,141 -66,15 -63,34 -63,113 -68,8 -36,58 -77,112l-26 62c-14,39 -27,31 -40,61 -14,31 -2,7 -8,30 -10,37 -27,30 -53,111 -23,73 -48,33 -48,141 -47,11 -92,48 -108,93 -9,24 -5,45 -5,71 -69,8 -33,40 -61,91 -19,37 -27,32 -42,84 -22,73 -68,42 -101,151 -16,53 -34,17 -58,93l-104 123 0 88c-39,4 -24,0 -50,13l0 88c-107,25 5,39 -101,63l0 89c-113,59 -95,84 -119,145l-34 43c-87,83 -38,53 -70,119 -2,5 -6,10 -10,15 -23,30 -65,50 -78,86l-17 58c-55,89 -101,45 -101,177 -46,3 -47,4 -50,50 -47,4 -47,4 -51,50 -39,4 -24,0 -50,13l0 88c-60,14 -34,14 -53,35l-24 27c-15,15 -14,-8 -30,45l-122 156c-50,48 -18,63 -54,110 -38,49 -66,53 -85,117 -16,55 -132,149 -175,191l-33 42c-1,4 -1,7 -2,10l-146 183c-52,52 -70,43 -70,143 -47,4 -47,4 -51,51 -46,4 -46,4 -50,50 -108,9 10,37 -101,63l0 88 -79 60c-2,2 -5,5 -7,6l-12 13c-3,2 -10,11 -12,13l-56 58c-34,35 -46,65 -99,77l0 89c-74,39 -136,120 -197,181l-89 87c-53,55 -8,66 -73,129l-147 143c-15,15 -16,19 -30,33l-170 170c-11,10 -14,12 -27,24l-12 13c-2,1 -5,4 -7,6l-99 102c-86,89 22,50 -221,271 -92,84 -791,814 -840,837 -49,24 -40,-10 -89,37 -2,2 -4,5 -6,7l-432 437c-286,289 -148,88 -255,200l-258 258c-1,2 -4,5 -6,7 -2,3 -10,10 -12,13 -56,58 -50,25 -109,55 -31,16 -31,28 -57,56 -2,2 -4,5 -6,7l-188 190c0,1 -24,26 -24,26 -26,24 -47,19 -81,33 -40,15 -85,72 -119,108l-77 100 -88 0c-35,65 -103,118 -156,171l-45 43c-41,39 -18,34 -76,50 -4,1 -8,1 -11,2l-41 23c-46,41 -82,108 -139,125 -62,17 -17,-21 -70,31l-111 116c-8,8 -57,56 -57,56l-17 9c-60,21 60,-17 -21,4 -63,16 -57,27 -127,100 0,0 -31,31 -31,31l-53 24c-72,22 -34,14 -74,51 -2,2 -5,4 -7,6l-45 43c-23,22 -32,22 -41,60l-88 0c-12,23 -10,16 -13,51 -64,5 -29,4 -61,39 -48,54 -32,-10 -40,61 -107,0 -117,40 -176,101l-188 140c-44,39 -58,7 -105,47 -17,14 -1,1 -18,19 -12,13 -12,11 -25,26l-61 65c-52,51 -70,11 -128,73 -9,9 -17,19 -25,26 -57,57 -61,12 -128,74 -51,48 -34,-8 -41,60 -54,0 -76,0 -105,33 -27,28 -49,38 -59,80l-88 0 -69 82c-8,8 -16,16 -19,19 -30,31 -30,38 -65,49 -73,21 -52,31 -101,50 -28,11 -19,-5 -56,20l-37 39c-32,35 -47,46 -92,58 -49,14 -47,29 -85,67 -50,49 -62,13 -111,53 -53,43 37,-36 -12,13l-19 19c-33,36 -20,-21 -28,48 -53,0 -75,1 -105,33 -26,29 -49,38 -58,81 -52,0 -66,-5 -95,18 -46,36 -75,24 -114,63l-24 26c-3,3 -10,11 -12,13l-37 26c-63,23 -52,6 -97,55 -63,72 -87,47 -138,89 -29,24 -57,25 -101,25l-51 75c-29,26 -58,26 -100,26 -23,46 -40,76 -93,96 -34,13 -21,-4 -58,18 -44,26 -35,38 -76,50 -46,13 -42,33 -91,48 -89,28 -32,8 -112,77 -24,20 -12,14 -50,26l-20 4c-28,11 -2,-2 -25,13l-36 28c-55,22 -75,-15 -82,56 -84,0 -89,14 -137,65l-27 48c-119,0 -69,21 -131,46l-65 23c-55,42 -78,20 -128,74 -81,88 -107,31 -155,122l-89 0 -14 50 -86 0c-12,23 -10,16 -13,51 -11,0 -42,-2 -51,-1 -65,9 -23,19 -71,43l-59 17c-26,13 -29,30 -61,40 -55,16 -56,-11 -73,52l-177 0c-14,-54 -29,-40 -73,-52 -58,-17 -19,-40 -90,-49 -21,-3 -77,0 -102,0 -9,-37 -5,-20 -25,-50 -197,0 -85,-45 -214,-51 -115,-5 -41,-15 -96,-43 -32,-16 -91,-7 -131,-7 -38,-79 -8,-63 -164,-63 -10,-37 -5,-21 -25,-51 -22,0 -57,3 -77,2 -82,-6 -26,4 -62,-27 -43,-37 9,-25 -151,-25 -10,-37 -5,-20 -25,-50 -28,0 -87,4 -110,-4 -47,-16 -31,-33 -79,-47l-44 -19c-27,-21 19,-9 -36,-28 -22,-8 -94,-3 -122,-3 -20,-84 -65,-63 -164,-63 -10,-38 -5,-21 -25,-51 -22,0 -57,3 -77,1 -82,-5 -26,5 -62,-26 -43,-37 9,-25 -151,-25 -8,-96 -60,-29 -135,-54 -69,-23 11,-21 -58,-43 -68,-23 -55,22 -129,-35 -2,-2 -4,-5 -7,-6l-16 -9c-55,-21 -20,20 -73,-28 -25,-22 1,-29 -62,-39 -23,-3 -74,0 -100,0 -10,-38 -5,-21 -25,-51l-126 0c-10,-37 -6,-20 -26,-50l-138 0c-7,-78 -88,-51 -152,-51 -10,-37 -5,-20 -25,-50 -280,0 -1,-51 -277,-51 -40,-59 -28,-63 -126,-63 -5,-44 -9,-44 -51,-50 -21,-3 -76,0 -101,0 -9,-37 -5,-21 -25,-51 -146,0 -96,12 -138,-25 -43,-37 9,-25 -152,-25l-14 -50c-55,-1 -107,11 -144,-19 -45,-37 17,-32 -144,-32 -43,-80 -60,-63 -177,-63 -8,-75 -90,-50 -151,-50 -10,-38 -5,-21 -25,-51 -21,0 -45,2 -65,1l-61 -13c-38,-26 8,-38 -114,-38 -8,-100 -72,-22 -144,-58 -52,-26 18,-25 -58,-42 -17,-4 -80,-1 -100,-1 -53,-100 -50,-36 -148,-67 -63,-20 8,-24 -69,-44 -23,-6 -85,-2 -111,-2 -10,-38 -5,-21 -25,-51 -294,0 22,-50 -290,-50 -8,-95 -59,-30 -136,-54 -60,-20 2,-14 -54,-47 -35,-21 -41,-6 -87,-13 -84,-13 2,1 -65,-36 -55,-31 -36,-2 -74,-27 -68,-47 6,-38 -164,-38 -8,-66 -46,-47 -101,-50 -119,-6 -13,-31 -102,-49 -23,-5 -51,2 -73,-3 -62,-12 -24,-13 -45,-30 -43,-35 -69,-19 -146,-19 -18,-79 -95,-63 -164,-63 -15,-57 -11,-37 -62,-51 -56,-15 -24,9 -64,-50l-138 0c-4,-45 -4,-46 -50,-52 -20,-2 -77,2 -102,2 -10,-38 -5,-21 -25,-51 -255,0 -54,-42 -200,-51 -25,-2 -64,1 -90,1 -19,-83 -65,-63 -164,-63 -10,-37 -5,-21 -25,-51l-126 0c-10,-37 -5,-20 -25,-50l-139 0c-3,-39 0,-24 -13,-50l-88 0 -14 -50c-41,-1 -98,3 -138,0 -83,-5 -35,-28 -102,-49 -77,-24 -27,-17 -86,-53 -33,-20 -87,-12 -139,-12 -8,-75 -91,-51 -151,-51 -10,-37 -5,-20 -25,-50 -255,0 -54,-43 -201,-52 -24,-1 -63,1 -89,1l-14 -50c-231,-4 -69,-8 -211,-53 -54,-16 -53,-55 -129,-60 -13,-1 -23,0 -36,-2 -30,-6 -12,-1 -34,-16 -17,-13 -1,-24 -56,-32 -22,-4 -75,-1 -100,-1 -10,-37 -5,-20 -25,-50 -23,0 -57,2 -77,1 -156,-10 68,-52 -213,-52 -9,-100 -73,-22 -144,-58 -54,-26 24,-43 -159,-43 -53,-99 -50,-36 -147,-67 -64,-20 10,-46 -181,-46 -15,-58 -12,-37 -63,-51 -55,-15 -23,9 -63,-50 -294,0 22,-50 -290,-50l-14 -50c-248,-4 -85,-52 -226,-63 -23,-2 -36,2 -58,-5 -69,-22 -1,-46 -181,-46 -10,-38 -5,-21 -25,-51l-126 0c-10,-37 -5,-20 -25,-50l-100 -1c-60,-14 -9,-50 -140,-50l-14 -50c-249,-3 -84,-50 -226,-62 -147,-13 -42,-51 -239,-51 -8,-75 -91,-51 -151,-51 -10,-37 -5,-20 -26,-50 -293,0 22,-51 -290,-51l-14 -50 -86 0c-12,-23 -10,-16 -13,-51 -54,-4 -78,-12 -151,-12 -10,-38 -5,-21 -25,-51 -294,0 22,-50 -290,-50 -10,-37 -6,-21 -26,-51 -146,0 -96,12 -138,-25 -43,-37 9,-25 -152,-25 -10,-129 -153,28 -164,-101 -11,-1 -67,-10 -74,-13 -28,-10 -36,-27 -52,-50 -293,0 22,-50 -290,-50 -6,-75 -24,-47 -101,-50 -116,-5 -13,-32 -102,-50 -22,-4 -50,2 -73,-2 -86,-18 -4,-45 -101,-51 -24,-1 -63,1 -89,1 -19,-83 -65,-63 -164,-63 -10,-37 -5,-20 -25,-50 -294,0 22,-50 -290,-50 -6,-59 -24,-49 -89,-51 -106,-3 -41,-14 -96,-42 -30,-15 -22,-2 -50,-13 -29,-11 -15,-15 -42,-33 -14,-9 -2,-6 -27,-12l-112 -1c-20,-83 -65,-63 -164,-63 -10,-37 -5,-20 -25,-50l-126 0c-10,-38 -5,-21 -26,-51l-138 0c-7,-77 -88,-50 -152,-50 -9,-37 -5,-21 -25,-50 -163,0 -97,-3 -152,-38 -2,-1 -5,-3 -7,-5l-40 -10c-44,-14 -10,5 -40,-23 -48,-44 -89,-38 -164,-38 -8,-75 -91,-50 -151,-50 -10,-38 -6,-21 -26,-51 -22,0 -56,3 -76,1 -105,-6 -20,-46 -124,-52 -24,-2 -63,1 -90,1l-14 -50c-55,-1 -107,10 -144,-19 -45,-37 17,-32 -144,-32 -43,-81 -59,-63 -177,-63 -6,-59 -5,-37 -62,-51 -56,-13 -26,7 -64,-50 -146,0 -96,12 -138,-25 -43,-37 9,-25 -152,-25 -8,-101 -72,-23 -144,-58 -53,-27 25,-43 -158,-43 -53,-100 -50,-37 -148,-67 -63,-20 8,-25 -69,-44 -22,-6 -85,-3 -111,-3 16,-22 -4,4 19,-19 1,-1 4,-4 6,-6 73,-76 47,-21 113,-64 36,-23 -11,0 26,-24 26,-18 54,-13 88,-13l14 -50 87 0c26,-54 57,-46 63,-101 92,0 86,-30 160,-54 77,-24 47,-43 105,-60l20 -4c44,-17 -7,-13 101,-50 31,-11 3,2 32,-19 56,-43 82,-20 141,-86 27,-31 13,26 21,-42 90,0 93,-33 160,-54 41,-13 19,-1 48,-28 35,-33 58,-22 95,-44 6,-4 68,-72 75,-76l48 -15c47,-13 12,-4 55,-33 39,-26 57,-16 94,-45 25,-18 -10,-1 23,-15 21,-9 13,-2 31,-7 46,-13 103,-62 115,-112 85,0 84,19 101,-50l88 0c10,-20 10,-23 24,-39 72,-82 77,-40 135,-80l36 -27c35,-15 21,5 58,-17l49 -52c2,-2 5,-4 6,-6 44,-46 51,-29 100,-52l93 -83c57,-30 45,0 100,-51 38,-35 35,1 42,-60 20,0 41,2 60,-2 51,-12 93,-64 104,-111 44,0 71,-1 101,-25 2,-2 4,-5 6,-7 26,-19 68,-19 95,-43l43 -46c40,-40 79,-21 123,-66 44,-47 38,-51 85,-66 72,-24 91,-89 144,-108 21,-8 47,-5 71,-5l51 -75c37,-32 72,-16 111,-53 41,-39 102,-81 115,-137l88 0 44 -57c80,-81 54,-4 140,-87 30,-29 64,-78 103,-99 32,-16 32,-3 66,-22 61,-35 94,-128 166,-149 35,-10 45,-4 76,-37l12 -14c51,-55 97,-47 133,-82l127 -124c29,-27 25,8 41,-60l88 0 72 -92c69,-68 107,-49 150,-90l100 -101c170,-173 74,-14 183,-133 82,-90 147,-153 189,-164l90 -61c9,-10 16,-16 25,-26l105 -108c93,-101 95,-41 154,-99l151 -152c131,-134 66,-10 209,-156l278 -277c2,-2 4,-4 6,-6 2,-2 5,-4 7,-6 62,-61 -42,53 13,-12 24,-29 12,-6 21,-42l88 0c12,-23 10,-16 13,-51 59,-5 38,-15 60,-40l126 -127c34,-34 74,-47 78,-98 47,-3 47,-4 51,-50 59,-5 38,-16 60,-40l126 -127c34,-34 74,-47 79,-98 46,-4 46,-4 50,-50 59,-5 38,-16 60,-41l126 -126c34,-34 75,-47 79,-98 46,-4 46,-4 50,-50 59,-5 39,-16 61,-41l125 -126c35,-34 75,-47 79,-98 46,-4 47,-4 50,-51 59,-4 39,-15 61,-40l125 -127c35,-33 75,-46 79,-97 47,-4 47,-4 51,-51 65,-5 22,3 55,-33 56,-64 109,-72 109,-181 63,-7 19,3 53,-35l139 -138c2,-2 4,-5 6,-7l88 -88c2,-2 5,-4 7,-6 126,-124 28,-86 117,-172 2,-2 5,-5 7,-7 2,-1 4,-4 6,-6l118 -121c39,-38 110,-84 132,-133 20,-46 17,-63 58,-106 27,-30 59,-60 88,-89 139,-137 9,-58 140,-187 233,-228 59,-116 207,-260 62,-62 94,-63 94,-170 47,-4 47,-5 51,-51 46,-4 46,-4 50,-50 39,-4 24,0 51,-13l0 -88c36,-9 43,-25 66,-47 37,-35 37,-38 47,-79 16,-61 -11,-12 32,-56l77 -75c2,-1 5,-4 7,-6 63,-61 3,-63 79,-134l55 -72c5,-14 0,-13 7,-31l58 -68c71,-63 22,-66 75,-127 1,-2 4,-4 6,-6l70 -56 0 -88c108,-9 -10,-37 101,-63l0 -88 73 -53c30,-29 15,9 34,-42 23,-59 12,-62 65,-111 67,-62 20,-56 74,-128 18,-24 3,6 14,-24l13 -50c1,-3 3,-6 5,-8 1,-3 3,-5 5,-7l13 -13c32,-33 61,-43 77,-87 45,-128 56,-43 56,-171 46,-3 47,-4 50,-50 39,-3 24,0 51,-13l0 -88 50 -14c7,-132 7,-50 42,-120l65 -112c71,-65 46,-81 89,-138 18,-25 12,-45 27,-74 32,-62 42,-19 42,-122 39,-3 24,0 50,-12l0 -89 50 -14 1 -87c87,-46 33,-43 78,-111l40 -86c12,-30 -3,0 14,-23 30,-39 18,-43 40,-86 32,-63 42,20 42,-122 39,-3 24,0 51,-13l0 -88 50 -14 0 -87c91,-48 36,-18 69,-95 16,-37 30,-29 44,-81 15,-52 29,-28 49,-91l15 -47c2,-3 4,-5 6,-7 43,-56 31,18 31,-158l50 -14c3,-123 12,-72 38,-113l32 -81c86,-107 18,-75 52,-150 24,-54 6,11 33,-42 15,-30 10,-40 10,-79 44,-5 44,-8 50,-50 3,-21 0,-77 0,-101 68,-18 34,-27 55,-84 14,-36 36,-29 45,-69 10,-53 -12,-66 20,-106 23,-29 31,7 31,-107 84,-19 63,-65 63,-164 38,-10 21,-5 51,-25 0,-294 50,22 50,-290 75,-6 47,-25 50,-101 5,-116 32,-14 50,-102 4,-22 -2,-51 3,-73 17,-86 44,-5 50,-101 1,-24 -1,-63 -1,-89 92,-22 63,-135 63,-215 37,-10 20,-5 50,-25 0,-219 53,-78 51,-239 0,-34 -1,-67 -1,-101 38,-10 21,-6 51,-26 0,-101 -21,-135 25,-189 29,-33 25,12 27,-74 0,-37 -2,-78 -2,-115 33,-44 47,-14 61,-78 6,-28 2,-103 2,-136 22,-68 51,37 51,-227 37,-10 20,-5 50,-25l0 -240c99,-11 32,-188 52,-276 16,-72 52,-9 49,-152 -4,-207 45,-107 52,-214 5,-82 -1,-192 -1,-278 18,-58 64,12 63,-189 -1,-84 0,-168 0,-252 78,-21 50,-147 50,-215 0,-88 0,-176 0,-264 79,-9 50,-127 50,-202l126 0c10,37 6,20 26,50l164 0c57,19 -37,51 176,51l14 50c56,1 108,-11 144,19 45,37 -17,32 145,32 21,40 21,55 76,62 37,5 110,1 151,1 10,37 5,20 25,50l126 0c10,37 5,20 25,50l139 0c6,78 87,51 151,51 10,37 5,20 25,50l164 0c58,19 -37,51 177,51 9,41 9,48 54,59 34,8 74,4 110,4 10,37 5,20 25,50l189 0c8,75 91,51 151,51 10,37 5,20 25,50 294,0 -22,50 290,50 5,53 7,50 62,52 37,2 88,-1 127,-1 45,32 9,34 59,55 42,17 63,0 101,12 64,20 -8,24 70,44 22,5 84,2 111,2 5,48 12,48 62,52 35,2 90,-1 127,-1 57,19 -37,50 176,50 7,78 69,40 125,52 64,13 12,45 101,50 32,2 81,-1 115,-1 43,32 12,41 68,58 36,12 82,5 121,5 8,75 91,51 151,51 10,37 5,20 25,50 176,0 90,8 159,43 3,1 6,3 9,4 20,7 -3,1 21,4l152 -1c10,38 5,21 25,51 146,0 96,-12 139,25 43,37 -9,25 151,25 22,93 135,63 214,63 10,38 6,21 26,51 146,0 95,-12 138,25 43,37 -9,25 152,25 10,37 5,21 25,51l100 1c52,11 14,28 67,45 25,8 47,1 72,4 103,12 2,30 89,49 22,5 121,1 151,1 44,33 9,34 59,55 50,22 85,2 129,34 42,32 97,25 152,25 9,81 132,50 202,50 10,38 5,21 25,51 22,0 57,-3 77,-1 82,5 26,-5 62,26 36,31 -20,21 62,26 24,2 63,-1 89,-1l14 50 151 0c52,6 18,-4 44,19 58,49 4,45 169,45 9,74 91,50 152,50 10,37 5,21 25,51l164 0c52,38 -2,35 64,49 18,4 88,1 112,1 10,37 5,20 25,50 239,0 74,37 189,51 18,3 67,0 89,0 61,92 118,63 227,63 10,37 5,20 25,50 255,0 54,43 201,52 24,1 63,-1 89,-1 6,77 88,50 151,50 10,37 5,21 25,51l190 0c10,128 153,-28 163,100 55,5 79,13 152,13 10,37 5,20 25,50 176,0 90,8 159,43 45,24 131,8 181,8 10,37 5,20 26,50 293,0 -22,51 290,51l14 50c37,0 116,-5 150,0 93,11 11,42 103,60 76,16 52,-16 118,33 43,32 77,21 144,21 10,37 5,20 25,50l164 0c58,19 -37,50 177,50l14 50c23,1 51,-1 75,0 63,1 37,-6 69,19 45,38 -17,32 144,32 22,41 21,56 76,63 38,5 110,0 151,0 10,38 5,21 25,51l126 0c10,37 6,20 26,50l138 0c7,78 88,51 152,51 10,37 5,20 25,50l164 0c57,19 -37,51 176,51 20,83 65,63 164,63 10,37 5,20 25,50 163,0 89,-5 152,38 2,1 5,4 7,5l182 7c10,38 5,21 25,51 176,0 90,8 159,43l181 7 14 50 112 2c57,12 26,52 139,61 125,11 -28,51 265,51 10,37 5,21 25,51 22,0 57,-3 77,-2 104,7 19,47 124,53 24,2 63,-1 89,-1 8,100 72,22 144,58 52,26 -18,25 59,42 16,4 79,1 100,1 49,93 127,63 227,63 8,75 90,50 151,50 10,38 5,21 25,51 22,0 57,-3 77,-1 104,6 19,46 124,52 24,2 63,-1 89,-1l14 50 180 8c42,21 4,35 70,44 21,2 77,-1 102,-1 19,83 64,63 163,63 10,37 6,21 26,51l164 0c57,18 -37,50 176,50 10,37 5,20 25,50 176,0 90,8 159,43l182 8 14 50 137 0c15,28 21,38 38,63l126 0c10,38 5,21 25,51l189 0c10,37 5,20 25,50 198,0 86,45 215,51 135,6 3,50 227,50l14 50c24,0 78,-3 100,0 114,14 -51,63 264,63 8,75 91,51 151,51 10,37 5,20 25,50 22,0 71,-3 89,0 66,8 29,22 70,43 3,2 6,3 9,4 47,17 123,4 173,4 10,37 5,20 25,50 22,0 57,-2 77,-1 81,5 26,-5 62,26 47,42 65,26 138,26 24,35 25,55 77,62 34,5 112,1 150,1 10,37 5,20 26,50 22,0 56,-2 76,-1 105,6 20,46 124,53 24,1 63,-2 89,-2 7,82 36,42 114,51 106,11 -8,45 112,51 23,2 55,-3 78,-2 105,6 19,46 124,53 24,1 63,-1 89,-1 15,28 21,38 38,63l164 0c58,19 -37,50 177,50 6,61 49,51 100,51l0 542c-26,7 -34,10 -50,25zm-20966 -8800c-189,0 -85,14 -190,49 -55,19 -46,9 -87,52 -67,70 -228,251 -303,290l0 88c-77,7 -50,88 -50,152 -37,9 -21,5 -51,25l0 630c0,102 21,136 -25,189 -29,34 -24,-11 -26,75 -1,32 1,69 1,102 0,110 13,603 0,643 -21,63 -64,-29 -63,214 0,92 0,185 0,277 -61,17 -52,62 -51,139 4,413 -51,124 -51,327 0,67 1,135 1,203 -44,60 -52,-7 -51,112 0,55 1,110 1,165 -38,10 -21,5 -51,25l1 190c-10,78 -53,22 -52,150 1,46 1,93 1,139 -27,37 -55,30 -63,89 -5,36 0,110 0,151 -50,5 -50,14 -52,74 -1,40 1,87 1,127 -37,10 -20,6 -50,26l0 189c-78,6 -51,87 -51,151 -37,10 -20,5 -50,25 0,30 0,59 1,89l-8 80c-2,3 -4,6 -5,8 -44,64 -38,-14 -38,164 -29,15 -38,21 -63,37l0 127c-38,10 -21,5 -51,25 0,293 -50,-22 -50,290 -38,10 -21,5 -51,25 0,171 -19,96 -52,200 -1,3 -2,6 -3,10 -28,70 -46,-21 -46,181 -83,19 -63,64 -63,164 -64,17 -35,18 -53,72 -14,43 -31,43 -49,102 -12,36 -2,11 -12,27 -36,56 -37,-16 -37,164 -79,19 -39,7 -51,62 -13,57 10,24 -50,64l0 126c-82,44 -35,18 -67,97 -22,53 -46,30 -46,130 -39,4 -24,0 -51,13l0 88c-75,18 -36,30 -56,82l-90 162c-12,32 -6,45 -30,72 -33,36 -17,-2 -37,63 -19,64 16,-31 -5,20 -24,59 -46,43 -46,131 -39,3 -24,0 -51,12l0 89c-85,19 -32,36 -60,91 -7,13 -16,13 -29,34 -1,2 -3,6 -4,8 -1,3 -2,7 -3,10l-5 21c-16,58 -8,3 -42,71 -21,42 -8,57 -45,93 -2,2 -5,4 -7,6l-26 24c-53,47 -36,76 -76,127 -20,26 -18,57 -18,95 -46,3 -47,4 -50,50 -39,3 -24,0 -51,13l0 88 -50 14 0 87c-104,55 -18,60 -122,155 -70,65 -20,20 -47,92l-72 79c-40,45 -7,63 -74,128 -27,25 -49,43 -60,78l-104 123 0 88c-114,27 50,11 -178,214 -52,46 -24,78 -95,144 -53,49 -48,95 -50,101 -30,63 -116,82 -146,182 -9,32 -25,42 -48,66 -55,57 -63,35 -63,138 -47,4 -47,4 -51,51 -46,3 -46,4 -50,50 -108,9 10,37 -101,63l0 88 -72 54c-2,2 -5,4 -7,6l-69 70c-2,1 -4,4 -6,6 -27,31 3,26 -60,41 0,10 1,42 0,50 -10,64 -118,142 -166,187 -75,72 -27,77 -99,153l-164 165c-20,19 -36,33 -59,54 -48,46 -25,7 -42,72 -12,46 -58,83 -157,183 -51,51 -217,197 -246,245l-8 17c-20,54 -14,57 -55,97l-396 399c-2,1 -4,4 -6,6 -2,2 -5,4 -6,6 -2,2 -5,5 -7,6 -212,212 -743,758 -895,895 -74,66 -13,-42 -140,87 -77,78 -373,397 -431,414 -77,23 -20,-12 -80,46l-251 253c-46,35 -55,0 -104,47l-56 58c-2,2 -4,5 -6,6 -2,2 -5,5 -7,7 -52,51 -116,101 -149,165l-89 0 -193 210c-27,32 -13,-27 -21,42 -57,0 -76,1 -111,41l-12 13c-2,2 -4,4 -6,6 -2,2 -5,5 -6,6l-13 13c-11,11 -14,15 -26,25 -37,32 -35,-5 -40,60l-89 0c-27,53 -5,19 -44,57l-67 71c-82,67 -13,-45 -172,118l-65 61c-3,2 -6,3 -9,4 -60,22 60,-17 -21,4 -49,13 -2,-15 -46,17l-75 76c-45,47 -54,43 -109,68 -48,21 -18,13 -53,47 -216,207 -75,21 -243,186 -2,2 -5,4 -7,6 -2,2 -4,5 -6,7l-13 12c-2,2 -5,4 -7,6 -27,32 -13,-27 -21,42 -89,0 -86,14 -137,64 -27,25 -22,-6 -27,49l-88 0c-10,20 -10,22 -24,39l-26 25c-1,2 -4,5 -6,6 -2,2 -4,5 -6,7 -77,68 -8,-48 -165,112 -12,13 -25,26 -37,39 -33,33 -52,25 -93,45 -16,7 -13,8 -22,16 -28,25 -45,60 -79,72 -84,31 -38,-8 -110,67l-120 69c-2,1 -5,4 -7,6 -35,33 -46,10 -61,77l-89 0c-11,23 -9,16 -12,51 -46,3 -47,4 -51,50l-88 0c-53,100 -113,98 -141,110l-82 45c-45,15 -64,46 -98,79 -54,54 -67,7 -128,73 -28,30 -34,45 -70,56 -59,18 -66,-12 -73,53 -20,0 -41,-2 -61,2 -40,10 -26,10 -46,30 -30,29 -47,38 -57,82 -52,0 -66,-5 -95,18 -72,56 -57,9 -150,102 -63,62 -21,9 -88,38l-123 67c-38,29 17,4 -38,25 -18,7 -29,3 -49,13 -38,18 -13,8 -41,36 -2,1 -4,4 -6,6 -25,25 -33,27 -41,60l-88 0c-11,23 -10,16 -12,51 -121,0 -56,8 -122,42 -3,1 -6,2 -9,3 -19,7 -16,2 -32,7 -74,20 -64,83 -163,114l-53 35c-34,21 -62,18 -96,43 -23,17 -8,10 -44,19 -55,14 -43,-28 -61,52l-89 0c-26,55 -13,42 -60,78l-72 29c-73,26 -18,25 -65,49 -38,18 -53,14 -86,39 -22,16 -4,8 -34,17 -1,0 -20,4 -21,4 -56,18 7,12 -111,53 -31,11 -3,-3 -32,19 -24,19 -4,13 -38,24 -59,18 -66,-13 -73,53 -94,0 -75,22 -171,57 -72,26 -17,25 -64,49l-59 16c-43,22 -28,27 -82,44 -56,18 6,12 -111,53 -31,11 -3,-3 -32,19 -47,36 -104,11 -112,78 -99,0 -80,28 -140,49 -108,36 -31,33 -135,66 -41,13 -38,31 -101,51 -42,13 -23,21 -61,40 -29,14 -12,2 -40,9 -45,12 -38,-1 -52,49 -28,0 -100,-4 -123,4 -50,17 -10,24 -89,49 -51,16 -42,35 -89,49 -68,20 -45,2 -77,62 -191,0 -87,19 -168,47 -21,8 -49,4 -72,4l-14 50 -87 0c-11,23 -9,16 -12,50 -59,5 -51,28 -87,65l-57 57c-15,15 -7,8 -25,25 -40,35 -41,7 -46,68 -46,4 -46,4 -50,50 -39,4 -24,0 -50,13l0 88 -50 14c-1,38 9,97 -8,130 -19,39 -56,16 -56,96l0 403c0,61 24,68 63,88 0,175 2,81 42,160 43,84 -22,29 83,132l25 25c2,2 4,4 6,6 17,17 21,21 38,38 14,14 19,19 31,32l138 139c32,32 1,16 45,31 79,27 28,-28 84,55 146,0 96,-12 138,25 43,37 -9,25 152,25l14 50c55,2 107,-10 144,19 45,38 -17,32 144,32 23,43 33,49 77,62 61,18 -29,-14 20,6 82,33 -7,46 181,46 10,37 5,20 25,50 255,0 54,43 200,52 25,1 64,-1 90,-1 6,68 16,49 88,50 102,1 43,15 97,42 54,27 39,0 91,47 39,35 60,25 127,25 53,38 -2,35 64,49 19,4 89,1 113,1 8,75 90,50 151,50 10,38 5,21 25,51 146,0 96,-12 139,25 36,31 -20,21 62,26 24,2 63,-1 89,-1l14 50c39,1 98,-9 130,8 44,22 1,47 96,55 73,6 57,8 102,37 36,23 82,14 137,14 7,59 5,37 63,51 55,13 25,-7 63,50 294,0 -22,50 290,50l15 50 137 1c15,28 21,38 38,63l126 0c10,37 5,20 25,50l138 0c4,46 4,47 50,52 20,2 77,-1 102,-1 10,37 5,20 25,50 27,0 87,-4 110,4 47,16 31,33 79,47 50,14 29,29 79,47 23,7 95,3 123,3 24,50 -7,47 52,61 21,5 87,2 112,2 10,37 5,21 25,51 22,0 57,-3 77,-2 155,10 -69,52 213,52l14 50c23,0 52,-1 75,-1 95,2 40,42 125,52 18,3 67,0 88,0 23,43 33,49 77,62 67,20 27,51 201,51 10,38 5,21 25,51 22,0 57,-3 77,-1 104,6 19,46 124,52 24,2 63,-1 89,-1 6,78 88,51 151,51 10,37 5,20 26,50l126 0c52,100 49,36 147,67 64,20 -11,46 180,46 10,38 5,21 26,51 293,0 -22,50 290,50 3,39 -1,24 12,51l88 0 15 50c248,3 84,51 226,63 23,1 36,-3 58,4 30,9 1,-2 24,14 45,33 73,33 156,33 10,37 6,20 26,50l126 0c10,37 5,20 25,50l100 1c25,6 13,3 26,12 38,26 -9,38 114,38l14 50c248,3 83,50 226,63 146,12 41,51 239,51 4,44 8,44 50,50 21,3 76,0 101,0 10,38 5,21 25,51 146,0 96,-12 139,25 36,31 -20,21 62,26 24,2 63,-1 89,-1l14 50c239,5 59,4 224,65 28,11 36,25 52,49 185,0 79,-1 161,41 32,17 88,9 129,9 10,38 5,21 25,51 22,0 57,-3 77,-1 96,6 15,32 101,50 22,4 51,-2 73,3 88,17 -14,44 102,49 76,3 95,-25 101,50 54,5 78,13 151,13 10,37 5,20 26,50 184,0 79,0 160,41 33,17 88,10 130,10 9,37 5,20 25,50 255,0 54,42 200,52 24,1 64,-2 90,-2 3,39 0,24 12,51l89 0c19,83 64,63 163,63 10,37 6,20 26,50 254,0 53,43 200,52 24,1 63,-1 90,-1 5,44 8,44 50,50 21,3 76,0 101,0 10,37 5,21 25,51 255,0 54,42 201,51 24,2 63,-1 89,-1 14,61 9,49 65,62 70,16 28,-17 74,52l126 0c10,37 5,20 25,50l139 0c6,77 87,50 151,50 10,38 5,21 25,51 294,0 -22,50 290,50 20,84 65,63 164,63 15,58 12,37 63,51 55,15 24,-9 63,50 294,0 -22,51 290,51l14 50c56,1 108,-11 144,19 46,37 -17,31 145,31 42,81 59,63 176,63 8,75 91,51 152,51 9,37 5,20 25,50 20,0 44,-1 64,-1l62 14c38,25 -9,38 113,38 9,100 73,22 144,58 54,26 -24,43 159,43 53,99 50,36 147,67 64,20 -10,46 181,46 10,37 5,21 25,51 171,0 96,19 199,52 48,15 18,27 69,45 23,8 94,3 123,3l14 50c248,3 85,52 226,63 33,3 58,1 82,19 46,33 74,32 157,32 8,75 90,51 151,51 10,37 5,20 25,50 146,0 96,-12 139,25 36,32 -20,22 62,27 24,1 63,-1 89,-1l14 49c286,6 25,34 263,64 55,7 17,-3 46,18 25,18 2,32 106,32 5,45 8,45 50,51 21,3 77,0 101,0 10,37 5,20 25,50 147,0 96,-12 139,26 43,37 -9,25 151,25l14 50c142,2 105,-19 151,25 22,22 0,24 52,36 23,5 72,2 99,2 9,37 5,21 25,51l138 0c5,44 9,44 51,50 21,3 76,0 101,0 10,37 5,20 25,50 179,0 103,14 160,42 33,17 2,1 29,9 3,1 7,1 11,2 83,27 -13,48 191,48 38,79 8,63 164,63 10,38 5,21 25,51 22,0 56,-3 77,-1 104,6 19,46 123,52 25,2 64,-1 90,-1 10,38 5,21 25,51 179,0 103,13 160,42 33,16 2,0 29,8 4,1 7,1 11,2 83,27 -12,49 191,49 19,83 65,63 164,63 10,37 5,20 25,50 22,0 57,-2 77,-1 104,6 19,46 124,53 24,1 63,-2 89,-2 6,78 88,51 151,51 10,37 5,20 25,50 23,0 57,-2 77,-1 105,7 20,46 124,53 24,1 63,-1 89,-1 20,83 65,63 164,63 16,57 12,37 63,50 55,16 24,-8 63,51 147,0 96,-12 139,25 43,37 -9,25 151,25 10,37 5,20 26,50 22,0 56,-2 76,-1 97,6 28,42 112,52 18,3 67,0 89,0 52,77 85,63 176,63 10,37 6,20 26,50l126 0c12,45 4,35 41,47 16,6 18,2 32,6 31,9 12,0 34,17 38,29 -18,22 56,32 21,2 76,-1 101,-1l15 50c23,1 51,-1 75,-1 63,2 37,-6 68,20 46,37 -17,32 145,32 43,81 59,63 177,63 8,75 90,51 151,51 10,37 5,20 25,50 146,0 96,-12 139,25 43,37 -10,25 151,25l14 50 453 2c31,0 52,2 75,-14 45,-30 -22,-38 151,-38 14,-20 20,-35 43,-45 30,-12 45,-8 73,-28 76,-58 103,2 111,-78 126,0 80,-39 164,-63l51 -25c35,-28 65,-22 100,-51 26,-21 2,-19 50,-25 19,-3 68,0 89,0 41,-61 17,-50 114,-50 11,-23 9,-16 12,-51 69,0 72,-11 114,-37l47 -16c76,-25 35,-37 83,-56l21 -4c44,-13 33,-23 71,-42 36,-18 57,-14 89,-38l100 -51c22,-17 -1,-10 32,-19 13,-3 46,-1 61,-1 11,-23 10,-16 13,-51l138 0c37,-55 9,-34 62,-51 90,-30 40,-37 94,-58l50 -13c32,-16 21,-32 60,-41 12,-2 48,-1 62,-1l14 -50 87 0c11,-23 10,-16 13,-51 50,0 81,-8 101,-25l13 -12c2,-1 5,-3 7,-5l40 -10c42,-12 63,-39 100,-52 64,-22 18,-3 53,-35 37,-33 48,-11 88,-38 27,-17 1,-13 34,-30 2,-1 5,-2 8,-3l72 -4 15 -50 86 0c12,-23 10,-16 13,-51l139 0c42,-63 71,-43 121,-80 50,-37 81,-14 118,-84l88 0 15 -50 86 0c12,-23 10,-16 13,-51 128,0 73,-27 140,-48 61,-19 38,-17 84,-42l80 -34c3,-2 10,-10 13,-12 3,-1 6,-4 8,-5 2,-1 6,-3 8,-4 77,-33 47,22 95,-69l139 0 14 -50c111,-2 75,-28 140,-49 62,-20 60,-38 100,-50 78,-24 54,-33 102,-50 22,-8 13,2 40,-10 29,-14 22,-28 61,-40 47,-16 72,-8 85,-66l89 0c11,-23 9,-16 12,-50l113 -1c43,-10 29,-33 78,-48l63 -25c26,-20 10,-15 49,-27 51,-16 41,-29 81,-45 47,-19 76,9 83,-56 132,0 67,-33 174,-65 42,-13 23,-21 61,-40 29,-15 49,-9 73,-28 26,-19 -17,0 28,-23 29,-14 12,-2 40,-10 58,-17 33,-30 101,-50 44,-13 38,4 52,-49l121 -5c38,-15 33,-32 70,-44l80 -46c35,-28 47,-10 101,-50 24,-17 44,-12 74,-27 38,-19 36,-31 82,-44 40,-12 42,-34 80,-46 58,-18 66,13 73,-53 114,0 78,-28 140,-49l74 -40c24,-21 48,-17 80,-33 82,-41 -11,-42 160,-42l26 -36c28,-31 37,-17 49,-65 50,0 111,9 146,-18l114 -62c22,-15 55,-16 87,-39 33,-24 13,-23 40,-37l40 -10c40,-12 23,-21 61,-40 30,-15 56,-11 81,-32 39,-30 6,-27 100,-27 11,-23 9,-15 12,-50 119,0 73,-9 114,-37l56 -20c49,-18 31,-22 54,-34 30,-16 25,-4 57,-19 103,-49 -34,-54 186,-54 29,-127 84,26 113,-101 126,0 74,-27 141,-48l55 -21c39,-29 75,-29 109,-55l20 -17c74,-44 57,14 104,-73l88 0 14 -50 87 -1c11,-23 10,-15 12,-50 15,0 51,2 63,-1 61,-14 23,-13 44,-31 41,-33 67,-18 133,-18 28,-42 45,-41 84,-55 32,-12 33,-32 68,-45 9,-3 63,-13 75,-14 3,-39 0,-24 13,-50l88 0 14 -50c125,-7 50,-7 120,-43 37,-18 52,-14 86,-40 3,-1 5,-4 7,-5 49,-31 82,6 101,-64 60,0 143,24 151,-50 79,0 98,3 113,-63 114,0 76,-28 141,-49l74 -39c27,-17 59,-14 83,-31 54,-37 67,-27 101,-50 52,-36 -16,-13 67,-34 52,-14 45,4 51,-50 79,0 98,4 114,-63 11,0 42,2 51,1 25,-3 0,3 21,-4 34,-12 20,-24 50,-39 28,-14 51,-10 73,-27 35,-27 -13,-32 145,-32 56,-83 6,-27 84,-54 45,-17 29,-28 101,-50l41 -23c64,-46 34,1 120,-68 23,-19 -5,-3 24,-14 28,-11 20,2 50,-13 55,-28 -13,-6 42,-34 33,-16 27,-1 59,-17 55,-27 -13,-6 42,-33 31,-16 27,-2 60,-16 32,-15 25,-24 42,-33 54,-29 83,14 92,-61 26,0 46,4 70,-5 68,-25 -2,-10 51,-37 73,-37 57,20 105,-71 210,0 75,-19 190,-51 61,-16 15,-2 65,-35 30,-20 43,-13 101,-50 42,-28 91,1 98,-66 40,0 49,6 79,-9 46,-23 6,-7 28,-23 37,-26 65,-16 102,-49 41,-39 57,-19 100,-51 44,-33 69,-26 103,-49 51,-35 -14,-11 66,-34 44,-13 38,3 52,-49 77,0 97,10 157,-33 42,-29 56,-6 102,-49 36,-35 75,-35 113,-63 16,-13 -5,-1 14,-11l103 -49c28,-15 55,-14 80,-33 38,-31 6,-27 99,-27 11,-23 10,-16 13,-51 116,0 85,-37 140,-48 39,-9 76,3 106,-20 44,-33 -9,-13 39,-37 32,-16 27,0 59,-17 63,-31 -20,-42 122,-42l14 -50 87 0c11,-23 10,-16 13,-50 50,0 81,-9 101,-25 2,-2 4,-5 6,-7l90 -36c60,-41 75,-33 117,-71 37,-33 48,-12 88,-39 20,-12 13,-23 42,-33l72 -4 15 -50c203,-4 83,-16 200,-51 125,-36 -35,0 121,-54l53 -37c73,-39 53,23 103,-72l88 0 15 -50 86 -1c12,-23 10,-16 13,-50 125,0 74,-27 141,-49 63,-20 36,-21 81,-44 32,-16 28,-1 60,-16 26,-11 12,-7 22,-16l21 -17c77,-42 53,22 103,-73l89 0 14 -50c200,-4 92,-19 200,-51l21 -4c2,-1 6,-3 8,-4 32,-16 40,-32 83,-44 40,-12 65,-39 100,-50 34,-11 41,-31 71,-43 107,-44 49,27 95,-69l89 0 14 -50c117,-6 66,-23 160,-53 48,-15 18,-27 69,-45 23,-8 82,-3 110,-3 38,-57 8,-37 63,-50 58,-14 56,7 63,-51 79,0 98,4 113,-63 113,0 76,-28 141,-48l40 -11c2,-1 5,-3 8,-5l19 -18c2,-2 5,-4 7,-6 26,-17 58,-13 83,-30 54,-37 67,-27 101,-51 52,-36 -16,-13 67,-34 52,-13 45,5 51,-49 27,0 75,3 100,-1 66,-9 50,-41 94,-58l50 -13c2,-1 5,-3 8,-4l13 -12c33,-27 72,-31 107,-57 22,-16 4,-8 33,-17l41 -10c3,-1 6,-3 8,-4l43 -33c3,-1 7,-2 10,-3 58,-18 66,10 73,-53 78,0 95,-19 143,-71l49 -52c13,-13 6,-7 19,-19l13 -12c35,-30 36,-4 41,-60 46,-4 46,-4 50,-51 55,-4 44,-24 80,-58 40,-38 34,-41 34,-106 44,-4 44,-8 50,-50 3,-21 0,-76 0,-101 29,-7 50,-12 50,-50l0 -442c0,-48 -4,-58 -50,-63 0,-152 -16,-101 -54,-211 -16,-47 -41,-60 -78,-98 -20,-19 -28,-27 -44,-44l-176 -177c-15,-13 -7,-6 -19,-19l-68 -33c-3,-1 -7,-1 -10,-2 -37,-15 -34,-32 -70,-44 -15,-5 -13,0 -31,-7 -3,-1 -6,-2 -9,-3 -2,-2 -5,-4 -8,-5 -2,-2 -4,-4 -7,-6 -2,-2 -4,-5 -6,-6 -43,-36 11,-25 -151,-25 -38,-79 -8,-63 -164,-63 -10,-38 -5,-21 -25,-51 -23,0 -57,3 -77,1 -156,-9 68,-51 -213,-51 -10,-38 -5,-21 -26,-51 -22,0 -56,3 -76,1 -156,-9 68,-51 -214,-51 -6,-78 -87,-51 -151,-51 -15,-28 -21,-38 -38,-63l-126 0c-10,-37 -5,-20 -25,-50l-139 0c-3,-39 1,-24 -12,-50l-88 0 -15 -50c-23,-1 -51,1 -75,0 -63,-1 -37,6 -68,-19 -38,-31 18,-23 -56,-33 -18,-2 -67,1 -89,1 -53,-100 -50,-37 -147,-67 -64,-20 8,-25 -70,-44 -22,-6 -84,-3 -111,-3 -10,-37 -5,-20 -25,-50 -22,0 -57,2 -77,1 -155,-10 69,-52 -213,-52l-14 -50c-230,-4 -68,-8 -211,-52 -53,-17 -52,-56 -128,-61 -118,-8 -26,-51 -227,-51 -10,-37 -5,-20 -25,-50 -22,0 -57,2 -77,1 -155,-10 69,-52 -213,-52 -3,-39 0,-24 -13,-50l-88 0 -14 -50c-38,-1 -97,9 -130,-8 -45,-22 1,-46 -96,-55 -147,-13 -42,-51 -239,-51 -8,-75 -91,-51 -151,-51 -10,-37 -5,-20 -26,-50 -146,0 -95,12 -138,-25 -43,-37 9,-25 -151,-25l-15 -50c-49,-2 -147,25 -150,-39 -2,-48 21,-36 88,-102 2,-1 5,-4 6,-6 2,-1 5,-4 6,-6 17,-25 14,-57 14,-87 65,-7 37,-36 56,-83 13,-32 25,-27 48,-91 16,-46 33,-39 47,-91 18,-65 -23,20 13,-37l38 -64c13,-45 34,-43 47,-79l3 -72c67,-16 63,-35 63,-114 62,-6 25,-4 68,-46 8,-8 18,8 31,-44 6,-28 -2,-58 3,-85 16,-76 14,-6 41,-60l22 -67c23,-37 1,11 24,-26l11 -27c1,-3 1,-7 2,-10l13 -38c24,-36 1,11 25,-25 18,-27 12,-55 12,-89 67,-15 63,-34 63,-113 59,-6 37,-5 51,-63 14,-55 -7,-25 50,-63 0,-47 -7,-100 19,-133l37 -77c27,-70 45,-21 45,-131l50 -14 1 -137c134,-71 -11,-56 113,-139 0,-38 -9,-94 13,-126 24,-36 13,18 34,-41 8,-22 3,-49 3,-72 46,-4 47,-4 52,-49 2,-21 -1,-78 -1,-102 37,-10 20,-5 50,-26l0 -126c36,-19 31,-2 51,-38 24,-42 15,-53 17,-58l8 -17c17,-28 28,-4 37,-64 4,-22 1,-75 1,-100 44,-5 44,-8 50,-50 3,-21 0,-77 0,-101 38,-10 21,-5 51,-26 0,-146 -12,-95 25,-138 37,-43 25,9 25,-151l50 -15c1,-23 -1,-51 -1,-75 2,-100 54,-48 64,-175 10,-125 51,28 51,-265 37,-10 20,-5 50,-25l0 -164c19,-58 51,37 51,-177 37,-10 20,-5 50,-25 0,-38 -3,-91 -1,-127 7,-113 50,10 50,-202 0,-64 -8,-69 52,-74 7,-78 13,-143 13,-240 22,-67 50,38 50,-227 37,-10 21,-5 51,-25l0 -290c37,-10 20,-5 50,-25l0 -240c114,-9 8,-234 69,-309 37,-45 33,17 32,-157 0,-63 0,-126 0,-189 21,-63 64,28 63,-215 0,-96 0,-193 0,-289 41,-5 31,6 46,-30 9,-21 5,-59 5,-83l-1 -518c46,-5 51,-14 51,-63l0 -1387c0,-45 -16,-22 -32,-43 -33,-46 3,-28 -54,-110 -23,-33 -25,-74 -59,-105l-32 -31c-71,-69 -7,-70 -92,-148l-48 -27c-31,-10 -8,4 -39,-12 -1,0 -39,-33 -41,-35 -10,-9 -43,-43 -44,-43 -26,-17 -60,-14 -83,-32 -82,-65 -81,-34 -112,-64 -9,-10 -16,-24 -20,-30l-189 0c-10,-38 -5,-21 -25,-51 -22,0 -71,3 -89,1 -64,-9 -28,-16 -62,-39 -3,-1 -5,-4 -8,-5l-30 -7c-15,-2 -35,1 -51,0 -66,-8 -33,-31 -79,-47l-72 -4c-30,1 -69,5 -93,-7 -55,-28 23,-43 -159,-43 -43,-81 -59,-63 -177,-63 -5,-50 -13,-50 -74,-52 -40,-1 -87,1 -127,1 -10,-37 -5,-20 -26,-50 -293,0 23,-51 -289,-51l-15 -49c-32,-1 -66,-1 -100,0 -8,0 -44,0 -50,0 -24,-3 -1,2 -21,-5 -3,-1 -6,-2 -9,-3 -41,-21 -4,-35 -70,-44 -21,-3 -76,1 -101,1 -19,-84 -65,-63 -164,-63 -10,-38 -5,-21 -25,-51 -294,0 22,-50 -290,-50 -6,-71 -33,-53 -114,-50 -150,4 -54,-43 -189,-51 -109,-7 -17,-45 -125,-52 -24,-1 -63,1 -89,1 -21,-44 -2,-53 -63,-62 -30,-5 -104,-1 -139,-1 -52,-38 2,-35 -64,-49 -18,-4 -88,-1 -112,-1 -8,-75 -91,-50 -152,-50 -10,-38 -5,-21 -25,-51 -180,0 -95,-22 -167,-47 -20,-7 2,-1 -21,-4l-152 1c-10,-38 -5,-21 -25,-51l-126 0c-16,-29 -15,-47 -56,-58 -36,-10 -77,2 -109,-17 -30,-18 -2,-35 -87,-39 -39,-2 -87,1 -127,1 -10,-37 -5,-21 -25,-51 -22,0 -56,3 -77,2 -155,-10 69,-52 -213,-52l-14 -50c-48,-1 -125,12 -171,-4l-17 -9c-34,-23 1,-30 -62,-38 -21,-3 -77,0 -101,0 -20,-83 -65,-63 -164,-63 -10,-37 -6,-20 -26,-50l-126 0c-10,-38 -5,-21 -25,-51l-189 0 -14 -50 -111 -1c-53,-12 -15,-28 -68,-46 -25,-8 -47,-1 -72,-4 -118,-13 60,-50 -252,-50 -15,-28 -21,-38 -38,-63l-126 0c-10,-37 -5,-21 -25,-51l-139 0c-3,-45 -3,-46 -49,-51 -20,-3 -77,1 -102,1 -10,-37 -5,-20 -25,-50l-164 0c-58,-19 37,-51 -177,-51l-14 -50c-141,-3 -105,19 -150,-25 -22,-22 0,-25 -52,-36 -22,-5 -62,-2 -86,-2 -72,-24 67,-51 -227,-51 -10,-37 -5,-20 -25,-50 -176,0 -90,-8 -159,-43l-30 -8c-6,-1 -42,0 -50,0 -34,0 -68,0 -102,0l-14 -50c-55,-1 -107,11 -144,-19 -45,-37 17,-31 -144,-31 -24,-36 -25,-55 -76,-63 -35,-5 -112,-1 -151,-1 -10,-37 -5,-20 -25,-50 -147,0 -96,12 -139,-25 -43,-37 9,-25 -151,-25 -4,-46 -4,-47 -50,-52 -20,-2 -77,1 -102,1 -10,-37 -5,-20 -25,-50l-126 0c-21,-40 -21,-55 -76,-63 -37,-5 -110,0 -151,0 -8,-75 -91,-51 -151,-51 -10,-37 -5,-20 -25,-50 -22,0 -71,3 -89,0 -66,-8 -29,-22 -70,-43 -46,-24 -131,-8 -182,-8 -10,-37 -5,-20 -25,-50 -294,0 22,-50 -290,-50 -10,-42 -10,-49 -54,-60 -34,-8 -74,-3 -110,-3 -10,-38 -5,-21 -25,-51 -293,0 -120,-22 -229,-48 -24,-5 -84,-2 -111,-2 -10,-38 -6,-21 -26,-51 -21,0 -70,3 -88,1 -66,-9 -29,-23 -70,-44 -46,-23 -132,-7 -182,-7l-14 -50c-205,-4 -91,-1 -175,-51 -29,-17 -35,-8 -76,-12 -121,-13 24,-51 -265,-51 -10,-37 -5,-20 -25,-50l-126 0c-10,-38 -5,-21 -25,-51 -294,0 22,-50 -290,-50l-14 -50c-24,-1 -78,3 -100,0 -55,-7 -33,-12 -62,-39 -40,-38 -103,-25 -177,-25 -53,-17 19,-50 -177,-50 -9,-38 -5,-21 -25,-51 -21,0 -70,3 -89,1 -63,-8 -28,-16 -62,-39 -45,-30 -137,-12 -189,-12 -10,-37 -5,-21 -25,-51 -23,0 -57,3 -77,2 -82,-5 -26,5 -62,-27 -28,-24 5,-18 -50,-25 -18,-3 -67,0 -89,0 -61,-92 -118,-63 -227,-63 -10,-37 -5,-20 -25,-50 -146,0 -96,12 -139,-26 -42,-37 10,-25 -151,-25 -5,-48 -12,-47 -62,-51 -35,-3 -90,1 -127,1 -52,-39 2,-36 -64,-50 -19,-4 -89,-1 -112,-1 -11,-128 -154,28 -164,-101 -54,-4 -78,-12 -152,-12 -10,-37 -5,-21 -25,-51l-189 0c-8,-74 -91,-50 -151,-50 -10,-37 -5,-20 -25,-50 -23,0 -57,2 -77,1 -105,-7 -20,-46 -124,-53 -24,-2 -63,1 -89,1l-15 -50c-336,-4 -119,-34 -253,-61 -75,-15 -52,17 -118,-33 -43,-31 -77,-20 -144,-20 -10,-37 -5,-20 -25,-50 -162,0 -89,4 -151,-38 -46,-31 -137,-13 -190,-13l-14 -50c-228,-4 -106,-39 -199,-51l-152 1c-20,-84 -65,-64 -164,-64 -10,-37 -5,-20 -25,-50l-126 0c-10,-37 -5,-20 -26,-50l-138 0c-4,-46 -4,-47 -49,-52 -21,-2 -78,1 -102,1 -10,-37 -6,-20 -26,-50l-164 0c-57,-19 37,-51 -176,-51 -22,-93 -135,-63 -214,-63 -10,-37 -6,-20 -26,-50l-138 0c-8,-75 -91,-51 -152,-51 -10,-37 -5,-20 -25,-50 -22,0 -56,2 -77,1 -155,-10 69,-51 -213,-51l-14 -50c-37,-1 -116,4 -150,0 -93,-12 -11,-43 -103,-61 -76,-15 -52,16 -119,-33 -42,-32 -77,-20 -143,-20 -11,-96 -125,-30 -189,-51 -58,-19 37,-50 -177,-50 -7,-89 -98,-28 -151,-63 -39,-26 7,-34 -75,-39 -32,-2 -80,1 -114,1 -57,-19 18,-63 -189,-63 -9,-75 -91,-50 -152,-50 -10,-38 -5,-21 -25,-51 -21,0 -71,3 -89,1 -65,-9 -33,-32 -78,-48 -20,-7 2,-1 -21,-4l-152 1c-10,-38 -5,-21 -26,-51 -293,0 23,-50 -289,-50 -22,-93 -135,-63 -215,-63 -10,-38 -5,-21 -25,-51 -146,0 -96,12 -139,-25 -43,-37 10,-25 -151,-25 -10,-37 -5,-21 -25,-51 -193,0 -107,-40 -189,-51l-152 1 -14 -50c-141,-3 -105,19 -150,-25 -54,-53 -63,-38 -151,-38 -10,-38 -5,-21 -25,-51l-189 0c-8,-28 -12,-50 -51,-50l-453 0c-38,0 -44,21 -51,50z"/>
   <path class="fil0" d="M40711 26765c-38,58 -8,37 -63,50 -58,14 -56,-7 -63,51 -114,0 -78,28 -140,49 -65,22 -54,25 -80,46 -23,19 6,3 -24,14l-143 59c-37,12 -30,2 -41,47 -25,0 -82,-4 -103,-2 -45,5 -45,7 -49,52 -31,0 -56,-5 -81,7 -23,12 -11,20 -41,35l-40 10c-28,9 -14,1 -35,16 -24,16 -10,13 -27,23 -47,27 -47,8 -91,48 -52,47 5,6 -61,27 -40,13 -27,19 -52,36 -27,18 -55,12 -89,12l-14 50 -87 1c-11,23 -9,16 -12,50 -115,0 -74,5 -107,32 -26,21 12,16 -56,20 -20,1 -55,-1 -77,-1 -83,124 -67,-21 -138,113l-89 0 -14 50 -86 1c-12,22 -10,15 -13,50 -127,0 -74,23 -131,46l-41 9c-36,14 -13,18 -51,37 -45,23 -26,-1 -95,44 -70,47 -62,-14 -111,78l-88 0 -14 50c-199,4 -93,12 -180,46l-132 58c-28,8 -14,0 -35,15l-66 35c-32,10 -35,24 -62,39 -2,1 -6,3 -8,4 -55,23 -78,-5 -96,68 -85,0 -84,-19 -100,51 -127,0 -74,23 -131,46l-213 102c-43,15 -58,-1 -72,54 -100,0 -145,-21 -164,63 -31,0 -57,-5 -81,7 -38,19 -18,28 -60,41l-157 70c-54,37 -67,27 -101,50 -52,36 16,13 -67,34 -52,14 -45,-4 -51,50 -79,0 -98,-4 -114,63 -11,0 -42,-2 -51,-1l-71 43c-2,1 -6,2 -9,3 -18,8 -15,3 -30,7 -30,10 -12,0 -34,17 -27,21 19,9 -35,28 -23,8 -83,4 -110,4 -38,57 -8,36 -64,50 -57,14 -56,-8 -62,51 -80,0 -69,15 -122,42 -26,13 -21,4 -49,14 -72,26 -17,25 -64,49l-59 16c-43,22 -28,27 -82,45 -56,17 6,11 -111,52 -30,10 -38,33 -71,44 -58,18 -65,-14 -72,53 -173,0 -136,31 -201,51 -44,14 -67,49 -104,60 -26,8 -11,-4 -40,11 -57,28 9,11 -92,46l-45 31c-2,2 -5,4 -7,5l-29 9c-58,15 -56,-8 -62,51 -56,0 -94,-13 -101,51 -77,0 -106,31 -171,56 -71,28 -16,32 -105,59 -29,10 -9,1 -26,12 -37,23 10,0 -27,24l-59 16c-36,13 -29,3 -41,47 -25,0 -82,-3 -102,-1 -46,5 -45,6 -49,52 -67,0 -70,2 -107,31 -22,17 -4,8 -34,17 -87,27 -38,26 -101,50 -85,34 -63,42 -94,57 -28,14 -51,9 -76,26 -53,37 17,12 -67,33 -44,11 -34,-22 -51,50l-88 0c-11,23 -10,16 -13,51 -23,0 -50,-4 -72,3 -52,18 -16,30 -68,45 -44,13 -59,-1 -74,53 -112,0 -123,-14 -164,63l-88 0 -14 50 -87 0c-11,23 -10,16 -13,51 -128,0 -72,27 -140,48 -14,4 -14,0 -32,6 -28,10 -2,-2 -25,13 -45,32 -74,32 -107,57l-29 21c-74,36 -50,-16 -95,69l-88 0 -15 50 -86 0c-12,23 -10,16 -13,51 -191,0 -118,27 -202,50 -65,18 -9,-7 -58,30 -2,1 -5,4 -7,6l-56 19c-28,10 -3,-3 -25,13 -24,17 -10,13 -27,23 -63,37 -84,-14 -104,73l-88 0c-12,23 -10,16 -13,50 -120,0 -56,9 -122,43 -33,17 -50,7 -81,31 -25,19 -5,13 -39,25 -54,18 -56,-12 -73,53 -67,0 -100,-12 -144,20 -67,49 -45,10 -127,75 -23,18 -64,19 -88,37l-114 63c-29,22 -48,14 -109,55l-81 32c-24,16 -11,14 -28,23 -32,18 -24,3 -59,17 -70,26 2,8 -52,35 -80,40 -44,-20 -106,71l-126 0c-35,67 -40,34 -75,101l-127 0c-38,57 -8,37 -63,50 -58,14 -56,-7 -63,51 -93,0 -74,22 -170,57 -73,26 -17,25 -65,48 -29,15 -22,3 -50,13 -3,1 -6,3 -9,4 -2,1 -5,3 -8,5l-84 41c-32,11 -33,26 -101,51 -29,11 -37,33 -70,43 -58,18 -66,-13 -73,53 -201,0 -104,25 -194,59l-50 13c-2,1 -5,3 -8,5l-19 18c-2,1 -5,4 -7,6l-67 21c-37,19 -18,27 -60,40l-92 47c-55,22 -76,-10 -83,56 -99,0 -80,29 -140,49 -48,16 -27,-5 -68,33 -42,38 -57,18 -101,50 -26,20 18,1 -27,24 -29,14 -49,9 -74,27 -26,19 18,1 -27,23 -29,15 -13,3 -40,10 -45,12 -39,-2 -52,49 -222,0 -90,17 -191,48 -24,8 -13,-2 -41,10 -44,19 6,-5 -29,22 -21,16 -3,8 -31,19 -36,14 -24,-6 -62,26 -29,25 7,6 -25,26l-17 8c-3,1 -7,2 -10,3 -60,18 -43,26 -81,45l-81 7 -14 50 -87 1c-11,23 -9,15 -12,50 -120,0 -74,11 -114,37l-83 31c-24,16 -10,13 -27,23 -30,17 -24,4 -57,19 -103,48 35,54 -186,54 -29,127 -84,-26 -113,101 -124,0 -74,17 -122,42l-19 6c-64,20 -36,22 -82,44 -45,23 -26,-1 -95,44 -2,2 -5,4 -7,5 -3,1 -6,3 -9,4 -76,33 -46,-22 -95,69l-88 0c-30,127 -84,-26 -113,101 -192,0 -118,27 -202,50 -51,15 -57,32 -122,55 -28,11 -2,-2 -25,13 -54,37 -54,20 -96,43 -38,20 -12,7 -35,53l-88 0 -14 50c-111,2 -75,29 -139,49l-67 34c-22,16 -4,7 -34,17 -77,23 -53,32 -101,49 -23,8 -13,-2 -40,11 -30,13 -23,27 -61,40 -20,6 -18,-1 -42,8 -53,20 -18,3 -44,57 -166,0 -91,-10 -164,38l-67 21c-3,2 -6,4 -8,5 -37,23 11,1 -26,24 -69,44 33,-8 -48,15l-101 51c-3,1 -7,1 -10,2 -36,14 -47,37 -81,46 -57,14 -56,-9 -62,51 -79,0 -98,-4 -114,63 -11,0 -42,-2 -51,-1 -64,9 -23,19 -71,43l-58 16c-27,14 -29,31 -61,40 -56,17 -57,-10 -74,53 -24,0 -80,-3 -101,0 -42,6 -45,6 -50,50 -62,0 -53,-9 -94,20l-77 37c-72,26 -17,25 -64,49l-59 16c-35,18 -24,28 -61,40l-48 15c-47,30 18,6 -84,42 -30,10 -38,33 -71,43 -58,19 -65,-13 -73,54 -151,0 -54,37 -151,50 -47,5 -52,-8 -88,13 -65,38 0,50 -114,50 -54,0 -13,-29 -71,-55 -33,-15 -88,-8 -130,-8 -5,-45 -9,-44 -51,-51 -21,-3 -76,1 -101,1 -9,-38 -5,-21 -25,-51 -22,0 -56,3 -77,1 -81,-5 -25,5 -61,-26 -43,-37 9,-25 -152,-25l-14 -50c-165,-4 -104,12 -150,-26 -29,-24 -68,-22 -95,-44 -69,-56 -44,-28 -130,-46 -31,-6 -13,-1 -34,-16 -17,-13 -2,-23 -56,-32 -23,-4 -75,-1 -101,-1 -10,-37 -5,-20 -25,-50 -22,0 -56,2 -77,1 -81,-5 -26,5 -62,-26 -42,-37 10,-26 -151,-26 -6,-77 -87,-50 -151,-50 -10,-37 -5,-20 -25,-50l-126 0c-19,-36 -3,-31 -38,-51 -43,-24 -53,-15 -59,-17l-17 -8c-72,-45 -6,-38 -164,-38 -5,-44 -8,-44 -50,-50 -21,-3 -76,0 -101,0 -10,-38 -5,-21 -25,-51 -294,0 22,-50 -290,-50l-14 -50c-286,-5 -25,-34 -263,-64 -55,-7 -17,3 -46,-18 -25,-18 -2,-32 -106,-32 -6,-77 -87,-50 -151,-50 -10,-38 -5,-21 -25,-51l-164 0c-58,-19 37,-50 -177,-50l-14 -50 -87 -1c-14,-28 -21,-38 -37,-63l-127 0c-9,-37 -5,-20 -25,-50l-138 0c-7,-78 -88,-51 -152,-51 -10,-37 -5,-20 -25,-50 -27,0 -87,4 -110,-4 -51,-17 -15,-20 -50,-38 -27,-14 -50,-10 -73,-27 -27,-21 19,-9 -35,-28 -23,-8 -94,-4 -123,-4 -24,-50 7,-47 -52,-61 -21,-5 -87,-2 -112,-2 -10,-37 -5,-20 -25,-50 -294,0 22,-51 -290,-51l-14 -50c-234,-3 -84,-44 -225,-51 -115,-5 -42,-15 -96,-43 -33,-16 -91,-7 -131,-7 -24,-50 6,-47 -53,-61 -20,-5 -86,-2 -111,-2 -17,-65 -65,-37 -107,-70 -48,-36 18,-31 -158,-31 -4,-45 -4,-47 -49,-52 -20,-2 -77,2 -102,2 -10,-38 -5,-21 -25,-51 -255,0 -54,-42 -201,-51 -24,-2 -63,1 -89,1 -20,-84 -65,-63 -164,-63 -10,-38 -5,-21 -25,-51 -255,0 -54,-42 -201,-51 -24,-2 -63,1 -89,1 -7,-78 -88,-51 -152,-51 -17,-64 -65,-36 -107,-69 -47,-36 17,-31 -145,-31 -52,-78 -85,-63 -176,-63 -9,-75 -91,-51 -152,-51 -10,-37 -5,-20 -25,-50 -255,0 -54,-43 -200,-52 -25,-1 -64,1 -90,1l-14 -50c-56,-1 -107,11 -144,-19 -45,-37 17,-32 -144,-32 -41,-59 -28,-63 -127,-63 -8,-74 -90,-50 -151,-50 -10,-37 -5,-21 -25,-51 -255,0 -54,-42 -201,-51 -24,-2 -63,1 -89,1l-14 -50c-38,0 -97,9 -130,-8 -45,-22 1,-46 -96,-55 -131,-11 -29,4 -101,-38 -36,-21 -83,-13 -138,-13 -6,-58 -5,-37 -63,-51 -55,-13 -25,7 -63,-50 -198,0 -85,-44 -214,-50 -136,-6 -4,-51 -227,-51 -14,-57 -26,-57 -90,-62 -140,-10 -25,-17 -117,-46 -73,-22 -49,25 -129,-35 -42,-32 -77,-20 -143,-20 -10,-38 -6,-21 -26,-51 -27,0 -87,5 -110,-3 -68,-25 17,-36 -79,-47 -19,-2 -42,2 -61,-2 -67,-13 -16,-49 -140,-49 -19,-78 -95,-63 -164,-63 -10,-37 -6,-20 -26,-50 -146,0 -95,12 -138,-25 -43,-38 9,-26 -152,-26 -6,-77 -87,-50 -151,-50 -10,-37 -5,-21 -25,-51 -163,0 -97,-2 -152,-37 -32,-21 -62,-14 -88,-38 -7,-7 2,-14 -33,-30 -33,-15 -89,-8 -131,-8 -4,-45 -8,-44 -50,-50 -21,-4 -76,0 -101,0 -10,-38 -5,-21 -25,-51 -146,0 -96,12 -139,-25 -42,-37 10,-25 -151,-25 -10,-38 -5,-21 -25,-51 -281,0 -2,-50 -278,-50 -40,-60 -27,-63 -126,-63 -8,-81 -132,-51 -201,-51 -10,-37 -5,-20 -26,-50l-138 0c-7,-77 -88,-50 -152,-50 -17,-65 -64,-37 -107,-70 -47,-36 17,-31 -145,-31 -42,-81 -59,-63 -176,-63 -8,-75 -91,-51 -151,-51 -10,-37 -6,-20 -26,-50 -214,0 -69,-51 -239,-51 -7,-77 -88,-50 -151,-50 -10,-37 -6,-20 -26,-50l-126 0c-53,-100 -50,-37 -147,-67 -64,-21 11,-47 -181,-47 -10,-37 -5,-20 -25,-50 -293,0 22,-51 -290,-51 -6,-77 -87,-50 -151,-50 -20,-74 -61,-32 -108,-69 -13,-11 4,-1 -17,-20 -40,-36 -107,-13 -147,-43 -45,-32 -73,-32 -157,-32 -8,-75 -90,-51 -151,-51 -10,-37 -5,-20 -25,-50 -294,0 22,-50 -290,-50l-14 -50c-249,-4 -85,-52 -226,-63 -23,-2 -37,2 -59,-5 -29,-9 -1,3 -24,-14 -45,-33 -73,-32 -156,-32 -8,-75 -91,-51 -152,-51 -17,-65 -64,-37 -107,-69 -47,-37 19,-32 -157,-32l-14 -50c-25,0 -64,3 -88,1 -77,-4 -29,7 -63,-26 -54,-53 -63,-38 -150,-38 -10,-37 -6,-20 -26,-50l-138 0c-8,-75 -91,-51 -152,-51 -10,-37 -5,-20 -25,-50 -294,0 22,-51 -290,-51 -16,-70 -16,-50 -101,-50 -19,-83 -64,-63 -164,-63 -10,-38 -5,-21 -25,-51 -293,0 22,-50 -290,-50 -10,-37 -5,-21 -25,-51 -191,0 -97,-39 -189,-50 -42,-5 -71,1 -101,-25 -28,-24 -56,-25 -101,-25 -19,-84 -64,-63 -164,-63 -10,-38 -5,-21 -25,-51 -294,0 22,-50 -290,-50 -6,-78 -87,-51 -151,-51 -10,-37 -5,-20 -25,-50 -294,0 22,-51 -290,-51 -20,-83 -65,-63 -164,-63 -10,-37 -5,-20 -25,-50 -28,0 -87,4 -110,-4 -55,-19 -9,-7 -36,-27 -26,-21 -61,-18 -88,-38 -26,-21 20,-9 -35,-28 -22,-8 -94,-4 -122,-4l-14 -50c-56,-1 -108,11 -144,-19 -37,-30 18,-23 -56,-32 -18,-3 -67,0 -89,0 -16,-23 -22,-46 -55,-58 -35,-12 -83,-5 -121,-5 -8,-74 -91,-50 -152,-50 -10,-38 -5,-21 -25,-51 -146,0 -96,12 -138,-25 -43,-37 9,-25 -152,-25l-14 -50c-107,0 -438,-14 -541,-1 -24,3 -1,-3 -21,4 -3,1 -6,3 -9,4 -72,37 22,43 -171,43 -24,104 -54,12 -63,101 -81,0 -91,13 -143,71 -12,13 -11,14 -24,27 -30,29 -48,4 -48,116 -54,5 -28,4 -55,33 -2,2 -4,5 -6,7l-30 33c-41,76 39,37 -60,104l0 126c-39,20 -63,27 -63,88l0 454c0,72 42,60 59,105l34 79c17,24 10,8 19,44 14,55 -27,43 52,62l0 88c31,16 19,6 45,31 60,58 61,95 169,95 8,69 -5,12 28,48 77,85 88,12 149,103 27,0 87,-4 110,4 54,19 8,7 35,28l54 21c84,27 -12,48 192,48 19,84 64,63 164,63 9,38 5,21 25,51 293,0 -22,50 290,50 6,75 24,47 101,50 116,5 14,32 102,50 22,4 50,-2 73,2 98,20 -43,49 190,49 14,61 9,49 65,62 70,16 28,-17 74,52 294,0 -22,50 290,50 6,78 87,51 151,51 10,37 5,20 25,50 23,0 57,-2 77,-1 105,7 19,46 124,53 24,1 63,-1 89,-1 20,83 65,63 164,63 10,37 5,20 25,50 294,0 -22,50 290,50 7,78 88,51 152,51 18,70 26,34 83,55 31,11 1,-5 24,14 23,18 32,38 71,43 187,24 16,52 250,52 8,75 91,50 152,50 10,38 5,21 25,51 294,0 -22,50 290,50l14 50 87 1c47,88 119,63 214,63 15,55 45,50 113,50 9,75 91,50 152,50 10,38 5,21 25,51 294,0 -22,50 290,50 6,75 25,47 101,50 112,5 19,33 106,59 31,9 41,1 70,5 81,13 -3,-9 57,32 42,29 82,18 145,18 6,59 5,37 63,51 55,13 25,-7 63,50 265,0 106,7 250,53 97,30 -26,48 191,48 10,42 10,48 55,59 34,8 73,4 109,4 10,37 5,20 25,50 23,0 57,-2 77,-1 82,5 26,-5 62,27 43,37 -9,25 151,25 10,37 5,20 26,50 179,0 102,13 159,42 27,14 51,10 74,28 27,20 -20,9 35,28 23,7 94,3 122,3 20,83 65,63 164,63 10,37 5,21 26,51l126 0c10,37 5,20 25,50l138 0c7,77 88,50 152,50 10,38 5,21 25,51 37,0 89,-8 119,7 43,22 20,27 81,45 88,28 4,61 203,61 9,75 91,51 152,51 10,37 5,20 25,50 294,0 -22,51 290,51 10,37 5,20 25,50 238,0 74,36 189,51 18,2 67,-1 88,-1 43,81 60,63 177,63 8,75 91,51 151,51 10,37 5,20 25,50l100 1c53,12 15,28 68,46 22,8 49,4 72,4 8,100 72,22 144,58 52,25 -18,25 59,42 16,3 79,1 100,1 42,80 59,63 176,63 8,74 91,50 151,50 10,37 5,21 26,51 179,0 102,13 159,42 33,16 3,0 30,8l20 5c31,12 0,-4 24,14 27,21 -20,9 35,28 23,8 94,3 122,3l15 50c38,1 97,-9 130,8 43,22 0,47 96,55 32,3 57,1 82,19 26,18 -15,-4 20,18 36,23 81,14 136,14 10,38 6,21 26,51 197,0 85,44 214,50 135,6 4,51 227,51 20,74 61,31 108,68 102,84 55,20 139,50 71,26 -3,45 182,45 8,75 90,51 151,51 10,37 5,20 25,50 255,0 54,43 201,52 24,1 63,-1 89,-1l14 50c249,3 84,50 226,62 131,12 29,-4 101,38 36,21 83,14 138,14 7,58 5,36 63,50 55,14 25,-7 63,50 146,0 96,-11 139,26 36,31 -20,21 62,26 24,2 63,-1 89,-1 4,45 4,46 49,52 21,2 78,-2 102,-2 15,28 21,38 38,63l126 0c10,38 5,21 26,51l138 0c4,45 4,46 49,51 21,3 78,-1 103,-1 9,38 5,21 25,51 171,0 96,19 199,52 48,15 18,27 69,45 23,8 94,4 123,4 19,83 64,63 163,63 10,37 6,20 26,50 146,0 96,-12 138,25 36,31 -19,21 62,27 24,1 63,-2 90,-2l14 50c234,3 84,45 225,51 135,6 4,51 227,51 20,83 65,63 164,63 15,57 12,37 63,50 55,16 24,-8 63,51l139 0c4,45 3,46 49,51 20,3 77,-1 102,-1 10,37 5,20 25,50 146,0 96,-11 139,26 36,31 -20,21 62,26 24,2 63,-1 89,-1 20,83 65,63 164,63 10,37 5,20 25,50 172,0 96,20 200,53 47,15 17,27 69,45 22,8 94,3 122,3l14 50c23,1 52,-1 76,-1 63,2 36,-6 68,20 46,37 -17,32 145,32 42,81 59,63 176,63 8,75 91,51 152,51 9,37 5,20 25,50l100 1c25,5 12,2 26,11 36,25 -18,14 41,35 22,7 49,3 72,3 9,101 73,23 144,58 52,26 -18,25 59,42 16,4 79,1 100,1 42,81 59,63 176,63 9,75 91,51 152,51 10,37 5,20 25,50 294,0 -22,51 290,51 8,100 72,22 144,57 53,27 -25,43 158,43 43,81 60,63 177,63 6,59 5,37 62,51 56,14 26,-7 64,50 37,0 89,-8 119,8 54,27 -20,38 95,43 135,6 4,50 227,50l14 50c249,3 85,52 226,63 136,11 49,51 239,51 16,57 12,37 63,51 55,15 24,-9 63,50 23,0 57,-3 77,-1 156,9 -68,51 213,51l14 50 138 1c14,28 21,38 37,63l127 0c9,37 5,20 25,50l138 0c9,75 91,51 152,51 10,37 5,20 25,50 22,0 56,-2 77,-1 155,10 -69,52 213,52l14 49 87 1c24,50 -7,47 52,61 21,5 87,2 112,2 10,37 5,20 25,50 22,0 56,-2 77,-1 155,10 -69,52 213,52 10,37 5,20 25,50 22,0 57,-2 77,-1 81,5 26,-5 62,27 47,41 65,25 138,25 21,39 28,63 89,63l403 0c92,0 56,-50 114,-62l113 -1 14 -50 87 -1c11,-23 10,-15 12,-50 51,0 82,-9 102,-25 2,-2 4,-5 6,-7 2,-1 4,-4 6,-5l83 -31c52,-35 -12,-11 66,-35 67,-20 17,0 53,-36 39,-39 44,-10 87,-38 20,-13 12,-24 42,-34l72 -3 15 -50c23,-1 51,1 75,0l181 -83c24,-18 64,-18 90,-36 78,-54 86,-12 131,-96l88 0 14 -50 87 -1c12,-23 10,-15 13,-50 206,0 -18,-51 239,-51l40 -48c29,-29 23,-2 36,-52 156,0 126,16 164,-63l88 0 14 -50c111,-2 75,-29 139,-49 63,-20 61,-38 101,-51l170 -82c49,-36 100,-5 118,-84 85,0 85,20 101,-50 25,0 53,2 77,1 5,0 32,-1 36,-2 43,-10 29,-32 78,-47 14,-5 14,-1 32,-7 34,-12 39,-33 80,-46 72,-22 31,-25 123,-53 40,-12 35,3 41,-48 77,0 65,-7 117,-46 44,-33 -3,-3 46,-17 66,-17 9,-10 72,-42 38,-19 53,-15 86,-40 22,-16 4,-8 33,-17l133 -57c29,-10 37,-32 70,-43 58,-18 66,13 73,-53 200,0 104,-24 194,-58l50 -13c2,-2 5,-4 7,-5l20 -18c29,-22 62,-22 101,-51 29,-22 44,-11 109,-54 2,-2 5,-4 8,-5l28 -10c58,-14 56,8 63,-51 93,0 114,-40 150,-51 64,-20 46,-39 94,-58l77 -36c25,-18 45,-12 74,-27 51,-26 -3,-6 33,-30 3,-1 5,-3 8,-5 53,-26 136,30 144,-57l81 -8c2,-1 5,-3 7,-5 36,-23 -8,-1 26,-25 30,-20 47,-10 81,-32 45,-28 75,-26 114,-63 26,-23 -12,-4 27,-23 46,-23 47,-11 86,-40l102 -49c23,-17 -1,-10 32,-18 14,-4 46,-2 61,-2 12,-23 10,-16 13,-51 14,0 50,2 62,-1 95,-21 -33,-49 178,-49 78,-118 74,9 138,-113l89 0c29,-127 83,26 113,-101 126,0 74,-24 131,-46 3,-1 7,-2 10,-3l54 -21c26,-19 -17,-1 28,-23 42,-21 44,-9 95,-44 2,-1 5,-3 7,-5 2,-1 6,-3 8,-4 75,-35 51,16 96,-69l88 0 14 -50c24,0 79,3 100,0 59,-7 38,-29 80,-46l84 -42c27,-17 59,-14 83,-30 24,-17 10,-14 27,-23 31,-18 7,-2 39,-12 47,-15 48,-33 112,-52 67,-20 24,2 53,-60l89 0 14 -50c125,-6 50,-7 120,-42 32,-16 52,-12 80,-34 2,-2 4,-5 6,-6 46,-35 89,0 108,-70 60,0 143,25 151,-50 79,0 98,4 113,-63 113,0 76,-28 141,-48l74 -40c26,-17 59,-13 83,-30 54,-37 67,-27 101,-51 52,-36 -16,-13 67,-34 52,-13 45,5 51,-49 79,0 98,3 114,-63 172,0 42,-38 151,-50 15,-2 35,1 50,-1l31 -7c31,-15 15,-25 50,-38 58,-23 -60,17 20,-5 4,-1 7,-1 11,-2l101 -50c3,-1 7,-2 10,-3l120 -56c41,-20 19,-25 62,-39 80,-27 63,-40 95,-56 29,-14 15,-3 40,-10 42,-14 23,-21 61,-40 30,-15 49,-10 74,-28 44,-32 69,-26 102,-49 52,-35 -16,-13 67,-34 53,-13 46,5 51,-49 62,0 54,9 94,-20 57,-43 -7,-23 95,-31 79,-7 54,-39 137,-65 40,-12 34,-30 70,-43 26,-10 22,0 51,-13 24,-10 18,-16 35,-27 2,-2 5,-4 7,-6l81 -33c46,-35 104,-11 111,-77 115,0 78,-28 140,-49 65,-22 54,-25 80,-46l55 -21c68,-21 20,-44 102,-49 24,-2 64,1 90,1l14 -50 87 -1c11,-23 9,-15 12,-50 116,0 67,-12 122,-42 2,-2 6,-3 9,-4l93 -45c29,-16 7,-3 38,-13 64,-22 18,-3 53,-35 37,-33 47,-12 88,-38 36,-23 -11,-1 26,-25 2,-1 5,-4 7,-5l81 -7 14 -50 87 -1c11,-23 10,-16 13,-50l138 0c18,-26 22,-38 53,-48l69 -32c21,-16 3,-8 32,-19 52,-20 58,-12 86,-65l88 0 14 -50 87 -1c11,-23 10,-15 12,-50 24,0 51,4 73,-4 55,-19 12,-27 68,-44 61,-19 38,-18 84,-43 32,-18 24,-2 58,-18l51 -37c74,-35 50,17 95,-68l88 0 15 -50 86 -1c12,-23 10,-15 13,-50 25,0 53,2 77,1 70,-1 84,-41 124,-52 52,-14 57,-31 122,-54l52 -37c63,-36 84,15 104,-72l88 0c12,-23 10,-16 13,-51 125,0 74,-27 141,-48l54 -21c51,-38 65,-23 103,-49 94,-65 99,-14 118,-84 99,0 144,21 164,-63 113,0 76,-27 140,-48 63,-20 61,-38 101,-51 78,-23 54,-32 102,-49 76,-27 63,-39 101,-51 20,-6 18,1 42,-8 52,-20 17,-3 43,-57l88 0 15 -50c120,-5 70,-5 105,-33 26,-21 -12,-15 56,-19 20,-2 54,1 77,1 13,-21 20,-36 43,-46 29,-12 44,-7 72,-28 45,-34 -16,-9 60,-28 53,-14 46,4 52,-50 78,0 97,4 113,-63 23,0 50,4 72,-3 50,-17 17,-26 59,-42 3,-1 7,-2 10,-3 15,-5 12,0 31,-7 29,-11 14,-14 43,-32l128 -61c15,-5 16,-1 32,-7 36,-12 29,0 41,-46 39,0 96,7 129,-10 38,-18 23,-26 62,-39l145 -70c30,-11 0,4 23,-14 43,-31 44,-18 86,-40 40,-20 13,-22 51,-37 19,-7 16,-2 32,-7 40,-11 41,-33 80,-45 58,-19 66,13 73,-53 99,0 80,-29 140,-50 108,-36 31,-33 135,-66 41,-13 38,-31 101,-50 42,-14 23,-22 61,-40 49,-25 75,6 92,-59 64,0 145,27 152,-51 115,0 74,-26 140,-49 105,-36 34,-35 135,-66 43,-14 40,-33 101,-51 60,-17 32,-30 102,-48 44,-11 34,22 51,-50l88 0c12,-23 10,-16 13,-51 141,0 58,-7 122,-42 69,-38 56,21 105,-71l100 -1c25,-6 12,-3 26,-12 38,-25 -9,-38 113,-38l15 -50 86 0c12,-23 10,-16 13,-51l88 0 123 -104c41,-12 39,-19 66,-47 12,-12 13,-13 26,-25 82,-81 40,-36 67,-109l26 -37c2,-2 5,-4 7,-6l18 -19c27,-28 42,-30 53,-61 12,-35 5,-83 5,-121 45,-5 44,-8 50,-50 9,-56 -17,-144 8,-195 26,-54 43,6 43,-108 0,-48 -54,-17 -51,-151 1,-60 24,-144 -50,-152 0,-20 2,-41 -3,-60l-6 -19c-19,-37 -27,-22 -40,-61 -11,-31 6,-12 -15,-48 -23,-40 -18,-15 -31,-32 -7,-9 -5,-4 -10,-15l-59 -105c-21,-21 -42,-42 -63,-63l-62 -64c-34,-20 -59,-12 -89,-37 -29,-24 -57,-25 -101,-25 -3,-39 0,-24 -13,-51l-88 0 -14 -50c-69,0 -526,-16 -571,7 -54,28 26,43 -159,43z"/>
   <path class="fil0" d="M40699 22983l-15 50 -86 1c-12,23 -10,15 -13,50 -128,0 -73,28 -140,49 -58,17 -39,16 -84,42 -29,17 -24,4 -56,19 -61,29 -20,37 -75,52 -44,12 -59,-2 -73,52 -25,0 -82,-3 -103,-1 -45,5 -45,7 -49,52 -120,0 -74,11 -114,37l-219 109c-74,35 -50,-17 -95,68l-89 0 -14 50 -87 1c-11,23 -9,15 -12,50 -146,0 -67,46 -163,52 -20,1 -55,-2 -77,-2 -8,12 -7,19 -20,31 -23,22 -72,28 -101,50 -49,36 -100,5 -118,83 -113,0 -76,28 -141,49l-74 39c-26,17 -59,14 -83,31 -54,36 -67,27 -101,50 -52,36 16,13 -67,34 -52,13 -45,-5 -51,49 -79,0 -98,-3 -114,64 -195,0 -95,19 -201,50 -4,1 -7,1 -11,2l-19 6c-58,30 -5,24 -71,42 -4,1 -7,1 -11,2l-71 43c-2,1 -6,2 -9,3l-151 63c-48,23 -3,5 -29,22 -20,15 -6,8 -33,17 -69,23 -75,48 -135,67 -42,13 -23,21 -61,40 -29,14 -49,9 -74,27 -44,33 -69,26 -102,49 -106,73 -98,6 -118,83 -27,0 -89,-3 -111,3 -4,1 -7,2 -10,3 -3,1 -6,2 -9,4 -17,8 -13,10 -21,16 -31,24 -50,16 -88,38 -44,26 -35,38 -77,50 -3,1 -7,1 -10,2 -40,13 -34,30 -70,44l-102 49c-20,9 -14,2 -30,8 -30,9 -20,5 -42,21 -46,35 -104,11 -111,78 -115,0 -78,28 -140,49 -86,28 -59,45 -125,64l-50 25c-41,34 -77,25 -139,25 -41,61 -17,51 -114,51 -11,23 -9,16 -12,50 -69,0 -72,12 -114,38 -2,1 -5,3 -8,5 -2,1 -6,2 -9,3 -30,13 -32,3 -65,24 -3,2 -10,9 -14,11 -39,27 -55,10 -99,51 -26,24 12,5 -27,24 -46,23 -48,11 -86,40l-103 49c-26,20 -54,20 -93,20 -11,23 -10,16 -12,51l-139 0c-37,55 -9,33 -62,51 -90,29 -40,37 -94,57l-71 30c-29,25 -57,25 -101,25l-14 50 -87 1c-11,23 -10,16 -12,50 -24,0 -51,-4 -73,4 -55,19 -12,27 -68,45 -57,17 -39,16 -84,42 -29,17 -23,4 -56,19 -103,49 34,54 -186,54 -29,127 -84,-26 -113,101 -121,0 -74,11 -114,37l-58 18c-36,14 -13,19 -51,38l-82 31c-3,2 -10,10 -13,12 -71,47 -62,-14 -111,78l-88 0 -14 50 -87 1c-12,23 -10,16 -13,50 -52,0 -65,-4 -95,19 -34,27 -70,31 -113,63 -46,34 -88,0 -107,70 -25,0 -91,-4 -111,1 -59,15 -29,11 -53,62l-88 0 -14 49c-66,2 -69,4 -106,32 -28,22 -63,23 -101,51 -30,23 -73,26 -102,48l-101 51c-24,18 -43,14 -75,26 -52,21 -17,3 -43,58l-88 0 -15 50c-12,0 -48,-2 -60,1 -95,21 33,50 -178,50 -13,20 -20,35 -43,45 -29,12 -44,8 -72,28 -76,58 -103,-2 -111,78 -79,0 -98,-4 -114,63 -124,0 -74,17 -122,42l-93 46c-15,9 9,0 -26,11 -77,23 -57,34 -102,49 -44,15 -58,-1 -73,54 -189,0 -85,13 -191,49 -71,24 -70,49 -124,64l-57 32c-24,17 -44,12 -73,27 -39,19 -37,31 -82,44 -41,12 -42,34 -81,46 -58,18 -66,-14 -73,53 -114,0 -78,28 -140,49 -85,29 -59,45 -124,64 -105,30 -9,51 -190,51 -61,91 -14,22 -93,58 -78,36 27,43 -121,43 -11,23 -10,15 -13,50 -92,0 -86,30 -160,54 -73,23 -34,25 -67,47l-58 17c-35,14 -31,31 -91,48 -32,9 -42,30 -71,42l-77 36c-27,21 -55,21 -93,21 -12,23 -10,16 -13,50 -27,0 -46,-3 -70,6 -62,22 -24,40 -106,45 -74,5 -64,32 -109,55 -33,16 -27,0 -60,16 -62,32 21,42 -121,42l-15 50 -86 0c-12,23 -10,16 -13,51 -120,0 -74,11 -114,37l-166 73c-61,28 -20,36 -75,52 -44,12 -59,-2 -74,52 -24,0 -81,-3 -102,-1 -45,5 -45,6 -49,52 -128,0 -73,27 -140,48 -14,4 -14,0 -32,6 -28,10 -2,-2 -25,13 -45,32 -74,32 -107,57l-29 21c-74,36 -50,-16 -95,69l-89 0 -14 50 -87 0c-11,23 -9,16 -12,51 -35,0 -62,-5 -89,12 -36,24 11,2 -25,25 -52,34 -1,-9 -68,21l-60 40c-75,26 -62,36 -120,56 -76,26 -33,26 -66,48 -25,16 3,8 -38,12 -58,6 -108,-24 -114,51 -67,0 -70,2 -107,31 -29,22 -63,22 -101,51 -31,22 -74,26 -103,48 -22,17 -2,7 -32,18l-69 33c-24,17 -42,15 -74,26 -40,14 -35,19 -44,57l-88 0c-11,23 -10,16 -12,51 -199,0 -91,17 -192,48 -76,24 -56,35 -111,52 -51,16 -41,29 -81,45 -48,20 -76,-8 -83,56 -132,0 -68,33 -174,65 -30,10 -12,1 -34,17 -39,29 -71,29 -101,51 -44,32 -69,26 -102,49 -106,72 -98,6 -118,83 -27,0 -89,-3 -111,3 -40,10 -45,35 -80,46 -63,22 -78,49 -135,67l-34 17c-22,16 10,-4 -12,12 -30,23 -49,14 -110,55 -2,1 -5,3 -7,5l-81 33c-46,35 -104,11 -111,77 -115,0 -78,29 -140,49 -13,5 -12,1 -31,8 -70,25 -13,30 -104,59 -30,9 -10,0 -27,11l-85 41c-37,12 -30,2 -42,47 -25,0 -82,-4 -102,-2 -45,6 -45,7 -49,52 -88,0 -89,31 -161,54 -22,7 -3,-5 -35,15 -45,29 -74,27 -113,63 -30,28 -69,27 -101,51 -22,17 10,-4 -12,13 -24,17 6,2 -24,14l-79 34c-26,21 -54,21 -93,21 -11,23 -10,16 -13,50 -115,0 -78,29 -140,49 -13,4 -12,1 -31,7 -42,15 -32,3 -43,45l-176 0c-18,-67 -81,-50 -164,-50 -5,-45 -9,-45 -51,-51 -21,-3 -76,0 -101,0 -9,-37 -5,-20 -25,-50 -22,0 -56,2 -77,1 -81,-5 -25,5 -61,-26 -43,-37 9,-26 -152,-26 -6,-74 -24,-46 -101,-49 -112,-5 -19,-33 -105,-59 -32,-9 -42,-1 -70,-6 -91,-14 -19,-49 -203,-49 -6,-59 -5,-37 -62,-51 -56,-14 -26,7 -64,-50 -198,0 -85,-45 -214,-51 -115,-5 -41,-15 -96,-43 -32,-16 -91,-7 -131,-7 -18,-79 -95,-63 -164,-63 -10,-37 -5,-21 -25,-51 -21,0 -45,2 -64,2 -76,-2 -48,-29 -104,-48 -21,-8 -49,-4 -72,-4 -8,-99 -121,-28 -189,-50 -16,-6 -14,-31 -86,-53 -30,-9 -11,0 -34,-17 -47,-36 19,-31 -157,-31 -20,-84 -65,-63 -164,-63 -10,-38 -5,-21 -25,-51l-126 0c-10,-37 -6,-20 -26,-50l-138 0c-7,-78 -88,-51 -152,-51 -11,-44 -4,-34 -41,-46 -16,-6 -18,-2 -32,-6 -58,-17 -19,-40 -90,-49 -18,-2 -67,1 -89,1 -42,-81 -59,-64 -176,-64 -8,-74 -91,-50 -152,-50 -9,-37 -5,-20 -25,-50 -293,0 22,-51 -290,-51 -10,-37 -5,-20 -25,-50 -22,0 -70,3 -89,0 -71,-9 -30,-26 -80,-46 -84,-33 -21,2 -89,-50 -36,-27 -102,-8 -140,-36 -17,-12 -2,-23 -56,-31 -23,-4 -75,-1 -101,-1 -10,-37 -5,-21 -25,-51 -294,0 22,-50 -290,-50 -8,-100 -72,-22 -144,-58 -53,-26 25,-43 -158,-43 -53,-100 -50,-36 -148,-67 -63,-20 11,-46 -180,-46 -10,-38 -5,-21 -25,-51 -28,0 -87,5 -110,-3 -55,-19 -9,-8 -35,-28l-55 -21c-84,-27 12,-49 -191,-49l-14 -50c-249,-3 -85,-51 -226,-62 -73,-6 -57,-8 -102,-37 -36,-23 -82,-14 -137,-14 -10,-38 -5,-21 -25,-51 -37,0 -89,8 -119,-7 -43,-22 -4,-16 -41,-35 -36,-18 -54,-15 -86,-40 -26,-21 13,-16 -56,-20 -40,-2 -98,1 -140,1l-14 -50 -87 0c-53,-101 -52,-35 -146,-68 -3,-1 -6,-3 -8,-4l-21 -17c-17,-12 -17,-17 -41,-22 -25,-6 -83,-3 -111,-3 -9,-74 -91,-50 -152,-50 -10,-37 -5,-21 -25,-51 -255,0 -54,-42 -200,-51 -25,-2 -64,1 -90,1l-14 -50c-142,-3 -105,19 -150,-25 -23,-22 0,-25 -53,-36 -38,-7 -57,5 -91,-10 -26,-12 -22,-23 -81,-44 -100,-36 16,-49 -191,-49 -10,-38 -5,-21 -25,-51 -255,0 -54,-42 -201,-51 -24,-2 -63,1 -89,1 -6,-78 -88,-51 -151,-51 -15,-28 -21,-38 -38,-63l-126 0c-10,-37 -5,-20 -25,-50l-139 0c-6,-77 -88,-50 -151,-50 -10,-38 -5,-21 -26,-51 -158,0 -110,-5 -145,-31l-54 -21c-3,-1 -7,-2 -10,-3 -71,-28 20,-46 -181,-46 -20,-83 -65,-63 -164,-63 -10,-37 -5,-20 -25,-50 -255,0 -54,-43 -201,-52 -24,-1 -63,1 -89,1l-15 -50c-220,-4 -99,-39 -200,-50 -42,-5 -70,0 -101,-26 -28,-24 -56,-25 -100,-25 -20,-83 -65,-63 -164,-63 -10,-37 -6,-20 -26,-50 -146,0 -95,12 -138,-26 -43,-37 9,-25 -152,-25 -6,-77 -87,-50 -151,-50 -10,-38 -5,-21 -25,-51 -21,0 -45,2 -64,2l-62 -14c-36,-24 17,-4 -34,-30 -32,-16 -27,0 -59,-16 -86,-43 36,-55 -235,-55 -10,-37 -5,-21 -25,-51 -180,0 -103,-13 -160,-42 -33,-16 -2,0 -29,-8 -4,-1 -7,-1 -11,-2 -47,-15 -17,-27 -68,-45 -23,-8 -95,-3 -123,-3l-14 -50c-23,-1 -52,1 -75,0 -142,-3 25,-51 -214,-51 -42,-81 -59,-63 -176,-63 -5,-45 -8,-45 -50,-51 -21,-3 -77,0 -101,0 -10,-37 -5,-20 -26,-50 -254,0 -53,-43 -200,-52 -24,-1 -63,1 -90,1l-14 -50c-120,-4 -71,-4 -105,-32 -41,-33 -66,-18 -133,-18 -42,-81 -59,-63 -176,-63 -8,-75 -91,-51 -151,-51 -10,-37 -6,-20 -26,-50 -27,0 -87,4 -110,-4 -47,-16 -19,-26 -89,-49 -3,-1 -7,-1 -10,-3 -71,-27 20,-45 -181,-45l-15 -50c-38,-1 -97,9 -130,-8 -43,-22 0,-47 -96,-55 -32,-3 -57,-1 -82,-19 -45,-32 -73,-32 -157,-32 -10,-37 -5,-21 -25,-51 -37,0 -89,8 -118,-7 -55,-28 19,-38 -96,-43 -135,-6 -4,-50 -227,-50l-14 -50c-286,-6 -25,-34 -263,-64 -74,-9 -12,-19 -81,-45 -24,-9 -44,-5 -71,-5 -6,-78 -87,-51 -151,-51 -10,-37 -5,-20 -25,-50 -294,0 22,-51 -290,-51l-14 -50 -137 0c-15,-28 -21,-38 -38,-63l-126 0c-10,-37 -5,-20 -26,-50l-138 0c-8,-75 -91,-51 -152,-51 -11,-44 -4,-35 -41,-47l-66 -22c-47,-37 17,-32 -145,-32 -42,-80 -59,-63 -176,-63 -8,-74 -91,-50 -151,-50 -10,-38 -6,-21 -26,-51 -22,0 -56,3 -76,2 -105,-7 -20,-47 -124,-53 -24,-2 -63,1 -90,1 -10,-37 -5,-21 -25,-51 -188,0 -88,-14 -168,-45 -22,-8 -20,-1 -42,-10 -45,-17 -45,-53 -118,-58 -13,0 -23,1 -36,-2 -31,-6 -12,0 -34,-16 -17,-12 -2,-23 -56,-32 -23,-3 -75,0 -101,0 -10,-38 -5,-21 -25,-51 -255,0 -54,-42 -200,-51 -24,-2 -64,1 -90,1 -8,-101 -72,-23 -144,-58 -53,-27 25,-43 -158,-43 -58,-110 -69,-31 -157,-71 -48,-22 16,-18 -72,-41 -70,-18 -27,18 -74,-52l-126 0c-10,-37 -5,-20 -25,-50l-139 0c-6,-78 -87,-51 -151,-51 -10,-37 -5,-20 -25,-50l-126 0c-53,-100 -50,-37 -148,-67 -63,-20 11,-47 -180,-47 -10,-37 -5,-20 -25,-50 -159,0 -111,-5 -146,-32l-44 -19c-50,-14 -29,-29 -79,-47 -22,-7 -94,-3 -122,-3l-14 -50c-249,-3 -84,-50 -227,-63 -146,-13 -41,-51 -238,-51 -8,-75 -91,-50 -152,-50 -10,-38 -5,-21 -25,-51 -22,0 -56,3 -77,1 -81,-5 -26,5 -61,-26 -43,-37 9,-25 -152,-25l-14 -50c-88,0 -483,-15 -552,0l-69 45c-20,8 -20,2 -41,9 -68,24 -20,46 -131,46l-28 48c-36,40 -27,-17 -35,53 -132,0 -69,26 -164,76l0 88c-46,4 -46,4 -50,50 -39,4 -24,0 -50,13l0 88 -50 14c-1,39 9,97 -8,130 -19,39 -56,17 -56,96l0 454c0,55 30,57 50,88 2,2 4,5 5,8l10 40c1,3 2,7 3,10 13,35 30,24 42,59l4 72 49 14 1 87 92 72c49,53 19,54 122,54 7,60 7,26 41,61 1,1 4,4 6,6 62,62 70,-5 130,84 146,0 96,-12 138,25 43,38 -9,26 152,26l14 50c142,2 105,-19 150,25 23,22 -1,25 53,35 42,9 52,-6 89,12l83 43c99,35 -18,49 191,49 10,37 5,20 25,50 198,0 85,45 214,51 135,6 4,50 227,50 31,64 -14,43 65,62 70,17 27,-19 74,52 255,0 54,42 200,51 25,2 64,-1 90,-1 4,45 4,47 49,52 20,2 77,-1 102,-1 10,37 5,20 25,50 146,0 96,-12 139,25 36,31 -20,21 62,27 24,1 63,-2 89,-2 20,84 65,63 164,63 10,38 5,21 25,51 23,0 57,-3 77,-1 156,9 -68,51 213,51 7,78 88,51 152,51 12,44 4,34 41,47 16,5 18,1 32,5 31,9 12,0 34,17 38,30 -18,23 56,32 18,2 67,0 89,0 52,77 85,63 176,63 8,74 91,50 152,50 10,37 5,21 25,51 294,0 -22,50 290,50 10,37 5,20 25,50 155,0 99,22 200,53 88,27 4,61 203,61 9,75 91,50 152,50 10,38 5,21 25,51 294,0 -22,50 290,50l14 50c198,3 105,9 171,43 32,16 27,0 59,16 86,43 -35,55 235,55 6,58 5,37 63,51 55,13 25,-7 63,50l164 0c68,50 -11,50 126,50 6,78 88,51 151,51 10,37 5,20 26,50l126 0c52,100 49,36 147,67 64,20 -11,47 180,47 10,37 5,20 26,50 22,0 56,-2 76,-1 82,5 26,-5 62,26 43,37 -9,25 152,25 3,40 -1,24 12,51l88 0 15 50c38,0 97,-9 130,7 43,22 0,48 96,56 32,2 57,0 82,18 45,33 73,33 156,33 9,75 91,50 152,50 10,38 5,21 25,51 215,0 69,50 240,50l14 50 137 1c15,28 21,37 38,63l126 0c10,37 5,20 25,50l139 0c6,77 87,50 151,50 10,38 5,21 25,51 294,0 -22,50 290,50l14 50 137 1c15,28 21,38 38,63l126 0c10,37 5,20 25,50l139 0c3,39 0,24 13,51l88 0 14 50c234,3 84,44 226,50 135,6 3,51 226,51 38,79 8,63 164,63 10,37 5,20 26,50 22,0 56,-2 76,-1 105,7 20,46 124,53 24,1 63,-1 90,-1 9,37 5,20 25,50 27,0 87,-4 110,4 68,24 -17,36 79,46 19,3 42,-2 62,2 47,10 30,38 77,48 13,3 48,1 63,1 19,83 64,63 163,63 10,37 6,21 26,51 22,0 56,-3 76,-2 105,7 20,47 124,53 24,2 63,-1 90,-1 6,77 87,50 151,50 17,65 65,37 107,70 47,36 -16,31 145,31 16,24 22,47 55,58 36,12 83,5 122,5 8,75 90,51 151,51 10,37 5,20 25,50 255,0 54,43 201,52 24,1 63,-1 89,-1l14 49c56,2 108,-10 144,20 45,37 -17,31 145,31 51,78 85,63 176,63 8,75 91,51 151,51 18,65 65,37 107,69 48,37 -18,32 158,32l14 50c56,1 108,-11 144,19 46,37 -17,32 145,32 42,80 59,63 176,63 8,74 91,50 152,50 9,37 5,21 25,50 171,0 96,20 199,53 48,15 18,27 69,45 23,8 94,3 123,3 13,58 25,58 89,62 155,12 -13,27 188,52 88,11 14,50 202,50 10,38 5,21 25,51 198,0 85,44 214,50 135,6 4,51 227,51 12,52 22,56 77,61 139,13 40,-3 114,38 37,21 27,5 57,18 28,12 1,-2 23,15 55,44 80,31 158,31 8,75 90,51 151,51 10,37 5,20 25,50 146,0 96,-12 139,25 36,32 -20,22 62,27 24,1 63,-1 89,-1 19,78 95,63 164,63 10,37 5,20 25,50 172,0 96,20 200,53 47,15 17,27 69,44 22,8 94,4 122,4 10,37 5,20 25,50 147,0 96,-11 139,26 43,37 -9,25 151,25 20,83 65,63 164,63 10,37 5,20 25,50l127 0c9,38 5,21 25,51l138 0c4,39 0,24 13,50l88 0 14 50c24,1 52,-1 76,-1 142,3 -26,52 213,52 42,81 59,63 176,63 5,45 9,44 51,51 21,3 76,0 101,0 10,37 5,20 25,50 22,0 56,-2 77,-1 104,6 19,46 123,53 25,1 64,-2 90,-2l14 50c25,1 64,-2 88,0 87,5 26,14 83,43 29,15 13,2 40,10 39,13 21,15 58,43 36,28 102,9 140,36 67,48 55,33 157,33 10,37 5,20 25,50 22,0 57,-2 77,-1 104,7 19,46 124,53 24,1 63,-1 89,-1 6,77 88,50 151,50 10,37 5,20 25,50l126 0c53,100 50,37 148,67 63,20 -8,25 69,44 23,6 85,3 111,3 16,57 12,37 63,51 55,15 24,-9 63,50 147,0 96,-12 139,25 43,37 -9,25 151,25l14 50c39,1 98,-9 130,8 44,22 1,47 97,55 72,6 56,8 102,37 35,23 81,14 136,14 9,75 91,51 152,51 10,37 5,20 25,50 146,0 96,-12 139,25 42,37 -10,25 151,25l14 50 87 1c51,97 99,32 176,89 16,12 16,16 40,22 25,5 83,2 112,2 8,75 90,51 151,51 10,37 5,20 25,50 146,0 96,-12 139,25 43,38 -10,26 151,26l14 49 453 2c31,0 52,2 75,-14 45,-30 -22,-37 151,-37 41,-61 17,-51 114,-51 11,-23 10,-16 12,-50 116,0 74,-26 140,-50l102 -49c71,-27 72,-48 135,-67 29,-10 11,-1 33,-17l68 -33c44,-12 38,2 52,-49 48,0 108,11 145,-19 35,-27 48,-21 86,-40 58,-29 -11,-11 92,-46 29,-10 3,2 25,-13 77,-52 90,-19 131,-96l88 0 14 -50 87 -1c12,-23 10,-16 13,-50 146,0 66,-46 162,-52 21,-1 55,1 77,1 28,-41 45,-41 84,-55l143 -58c4,-39 0,-24 13,-51l88 0 14 -50c29,0 55,5 80,-7 29,-15 30,-29 80,-46 44,-13 40,-32 101,-50 36,-10 49,-34 81,-46 22,-8 13,2 40,-10 58,-27 46,-48 134,-55 3,-39 -1,-24 12,-51l88 0 15 -50 111 -1c43,-10 29,-33 78,-48l63 -25c26,-19 10,-15 49,-27 51,-16 41,-28 81,-45 47,-19 75,9 83,-56 78,0 97,4 113,-63 113,0 76,-28 141,-48l74 -40c26,-16 58,-13 83,-30 54,-37 67,-27 101,-51 52,-35 -16,-13 66,-34 53,-13 46,5 52,-49 84,0 108,14 164,-38 26,-25 39,-18 71,-30 3,-1 6,-2 9,-4 2,-1 5,-3 7,-4l20 -19c2,-1 5,-4 7,-5 17,-11 -3,-2 27,-11 25,-9 10,4 39,-11 45,-22 2,-4 28,-23 29,-22 44,-12 109,-54l36 -15c58,-15 56,8 63,-51 112,0 76,-19 121,-42 73,-37 58,19 106,-71 27,0 87,4 110,-4 26,-9 21,-20 42,-34 49,-32 53,1 102,-48 24,-23 40,-33 48,-66 61,0 143,25 152,-50 93,0 74,-21 170,-56 73,-27 18,-26 65,-49l59 -17c2,-1 5,-3 8,-5l136 -77c34,-19 48,-10 80,-34 25,-18 5,-13 39,-24 58,-18 66,13 73,-53 63,0 103,10 145,-19l46 -29c43,-17 32,-1 68,-34 46,-43 63,-23 115,-61 49,-37 87,7 105,-72l88 0c12,-23 10,-15 13,-50 23,0 50,4 72,-3 44,-16 10,-21 98,-53 57,-21 31,-24 50,-39 31,-24 56,-15 101,-50 43,-34 66,-19 145,-19 21,-89 42,-21 63,-101 177,0 107,8 158,-31 25,-19 43,-13 74,-27 28,-12 23,-26 60,-41 36,-14 24,6 62,-26 22,-19 4,-16 33,-30 2,-2 6,-3 9,-4 3,-1 7,-2 10,-3l21 -4c72,-23 33,-48 141,-48l14 -50 87 0c11,-23 9,-16 12,-51 23,0 50,4 72,-3 91,-32 -56,1 101,-51 37,-12 30,-2 42,-47l126 0c16,-25 23,-35 37,-63l89 0 14 -50 87 0c11,-23 9,-16 12,-51 127,0 74,-23 131,-45 3,-1 7,-2 10,-3 15,-5 13,0 31,-7 30,-12 0,4 24,-14 25,-19 -18,-1 27,-23l102 -49c3,-1 6,-3 9,-4 76,-33 46,22 95,-69l88 0 14 -50 87 0c11,-23 10,-16 12,-51 15,0 51,2 63,-1 94,-21 -34,-49 177,-49 18,-26 22,-38 53,-48 23,-8 12,2 40,-10 44,-20 -6,3 29,-22 24,-18 43,-15 74,-27 52,-20 17,-3 44,-57l88 0 14 -50c111,-2 75,-28 139,-49 63,-20 60,-38 101,-50 77,-24 54,-33 101,-50 23,-8 13,2 40,-11 30,-13 23,-27 61,-40 48,-15 73,-8 86,-65 25,0 80,3 101,0 59,-7 39,-30 80,-46l84 -42c69,-44 -33,8 48,-15l192 -98c57,-15 56,8 62,-51 79,0 98,3 114,-63 155,0 54,-42 189,-51 84,-5 42,-31 113,-50 73,-21 27,-24 123,-54 40,-12 36,3 41,-47 94,0 75,-22 171,-57 72,-26 17,-25 64,-49l59 -16c43,-21 28,-27 82,-44 29,-9 10,0 27,-11 47,-30 -18,-6 84,-42 31,-11 3,3 32,-19 47,-35 104,-11 112,-77 199,0 96,-18 190,-49 79,-27 63,-41 95,-57l50 -13c63,-24 8,-23 91,-47 4,-1 7,-2 10,-3l18 -7c51,-30 -2,-29 62,-39 9,-1 40,0 51,0 11,-23 10,-15 12,-50 98,0 82,-27 161,-54l71 -43c49,-19 28,11 78,-35 41,-39 57,-19 100,-51 23,-17 -10,4 13,-13l74 -26c3,-1 6,-3 8,-4 28,-17 -5,1 20,-18 27,-21 54,-21 93,-21 12,-23 10,-16 13,-50 187,0 119,-26 212,-53 3,-1 7,-1 10,-2l90 -50c61,-20 41,-40 114,-61l92 -47c55,-14 43,27 62,-52 11,0 42,2 51,0 25,-3 0,4 21,-4l50 -38c28,-14 51,-10 73,-28 35,-26 -13,-31 145,-31 47,-70 4,-35 74,-52 79,-19 34,3 65,-61l88 0 14 -50 87 -1c11,-23 10,-16 13,-50 126,0 75,-24 130,-46 46,-18 41,-6 80,-34 28,-22 68,-25 94,-44 39,-30 -18,-10 47,-29 14,-5 45,-9 65,-11 3,-39 -1,-24 12,-51l88 0 15 -50c143,0 60,-14 119,-43 29,-14 36,-5 68,-7 85,-5 43,-31 114,-51 73,-20 26,-24 123,-53 40,-12 35,3 41,-48 78,0 97,4 113,-63 67,0 70,-2 107,-31 22,-17 4,-8 34,-17l67 -34c2,-1 5,-4 7,-5 2,-2 5,-4 8,-5 2,-2 6,-3 9,-4 21,-8 19,-1 41,-9 35,-14 13,-19 50,-38 28,-14 52,-9 76,-25 52,-36 -16,-13 66,-34 53,-14 46,4 52,-50 79,0 98,4 113,-63 220,0 77,-9 213,-52 29,-10 11,-1 33,-17 45,-34 43,-20 87,-39 28,-13 27,-28 61,-41 14,-5 14,-1 31,-7 30,-11 2,3 31,-19l70 -30c71,-22 24,-26 81,-46 23,-8 10,3 40,-10 58,-27 16,-27 55,-46 3,-1 6,-2 9,-4l50 -13c35,-17 24,-28 61,-39l122 -54c45,-12 39,1 52,-49 25,0 80,3 101,0 42,-6 46,-6 51,-51 93,0 74,-21 170,-56 73,-27 18,-26 65,-49 28,-14 41,-5 67,-21l84 -42c3,-1 7,-2 9,-3 43,-20 23,-22 92,-48 29,-10 37,-33 70,-43 59,-18 66,13 73,-53 26,0 64,2 89,0 59,-5 54,-30 102,-48 22,-9 11,2 39,-12 57,-26 19,-32 96,-56l19 -6c2,-1 5,-3 7,-5 22,-13 13,-21 43,-32l32 -7c85,-25 12,-48 140,-48 12,-23 10,-16 13,-51l88 0c23,-43 12,-31 48,-65 2,-2 5,-5 7,-6l68 -33c51,-15 87,-65 124,-103 59,-60 10,-9 35,-78 11,-29 -5,-3 20,-31 2,-2 5,-4 6,-6l25 -25c68,-70 58,-85 58,-182 37,-10 20,-5 50,-25 0,-346 51,-52 51,-328 0,-52 -23,-17 -43,-58 -25,-51 1,-139 -8,-194 -6,-43 -5,-46 -50,-51l-9 -79c-19,-37 -27,-22 -40,-61 -11,-31 6,-12 -15,-48 -31,-54 -32,-22 -51,-87 -1,-3 -2,-7 -3,-10 -13,-35 -50,-59 -78,-86 -58,-60 -61,-86 -143,-110 -46,-13 -6,8 -40,-22l-62 -77 -139 0 -14 -50c-45,0 -524,-17 -571,7 -72,37 22,43 -171,43z"/>
   <path class="fil0" d="M40711 30548c-38,57 -8,36 -63,50 -58,14 -56,-8 -63,50 -114,0 -78,29 -140,49 -85,29 -59,46 -125,65 -27,8 4,-8 -29,8 -17,9 -12,10 -21,17 -41,34 -77,25 -139,25 -38,57 -8,37 -63,50 -58,14 -56,-7 -63,51 -92,0 -79,23 -170,57l-119 58c-40,23 -15,17 -32,31 -22,17 -42,16 -55,20 -48,15 -18,19 -61,40 -34,17 -50,8 -82,32 -46,35 -104,11 -111,77 -152,0 -55,38 -152,50 -89,12 -49,1 -123,41 -2,2 -5,3 -8,5l-89 50c-29,23 -30,2 -109,54 -3,1 -6,4 -8,5 -56,29 -71,-27 -91,60l-88 0c-12,23 -10,16 -13,51 -31,0 -56,-5 -81,7 -27,13 -8,12 -33,30 -2,1 -5,3 -8,5 -36,20 -28,-2 -73,27 -61,38 -78,31 -120,69 -41,38 -41,10 -115,62l-87 14c-11,23 -10,16 -12,50 -190,0 -91,17 -213,53 -28,8 -14,0 -35,15 -5,4 -18,17 -20,18l-56 20c-63,23 -41,50 -143,58 -3,39 0,24 -13,51l-88 0 -14 50c-126,2 -72,23 -129,46l-65 23c-36,27 -44,20 -87,40l-51 36c-77,33 -47,-22 -95,69l-139 0 -14 50 -87 1c-11,23 -9,16 -12,50 -128,0 -73,28 -141,49 -14,4 -14,0 -31,6l-52 36c-41,22 -32,5 -94,46 -30,19 -44,7 -76,24 -38,20 -13,7 -35,54l-88 0 -14 49c-171,1 -41,39 -150,51 -89,10 -52,-3 -114,38l-48 15c-40,12 -65,39 -101,50 -30,10 -20,6 -41,22 -3,2 -10,10 -13,12 -3,1 -5,4 -8,5 -55,29 -85,-5 -104,73 -30,0 -56,-5 -80,7 -38,19 -19,28 -60,41l-48 15c-2,2 -5,4 -7,6 -35,26 -72,29 -101,50 -44,33 -69,26 -102,49 -107,73 -98,7 -118,84 -201,0 -109,22 -184,56 -43,18 -52,12 -88,38l-44 19c-47,14 -42,31 -80,46l-86 40c-29,20 -62,19 -88,39 -46,35 -104,11 -111,77 -114,0 -79,11 -112,40 -37,33 -55,14 -109,55l-55 21c-39,12 -28,19 -53,35 -43,27 -83,0 -100,63 -25,0 -80,-3 -101,0 -42,6 -45,6 -50,51 -94,0 -75,21 -171,56 -72,27 -17,26 -64,49 -30,15 -23,2 -50,13 -3,1 -7,2 -9,4 -3,1 -6,3 -8,4l-85 42c-31,11 -33,26 -100,51 -29,10 -38,33 -71,43 -58,18 -65,-13 -73,53 -26,0 -46,-3 -70,5 -62,23 -23,40 -106,46 -74,5 -64,32 -109,54 -32,16 -27,0 -59,17 -63,32 20,42 -122,42l-14 50 -87 0c-11,23 -10,16 -13,51 -73,0 -70,3 -107,31 -2,2 -4,5 -7,6 -26,17 -59,14 -83,30 -60,42 -75,34 -117,72 -53,47 4,6 -62,27 -40,12 -27,19 -52,36l-37 13c-10,1 -40,-1 -51,-1l-15 50 -111 1c-30,7 -12,2 -32,18l-230 123c-68,39 -56,-19 -104,73l-88 0 -14 50 -87 0c-12,23 -10,16 -13,51 -120,0 -56,8 -122,42 -36,18 -51,14 -86,40 -2,1 -4,4 -7,5 -48,31 -81,-6 -100,64 -82,0 -114,-8 -160,42 -32,35 -38,2 -54,71 -196,0 -96,20 -202,51 -49,14 -61,38 -111,52l-63 39c-40,22 -42,12 -93,45l-16 9c-55,23 -78,-4 -95,69 -85,0 -85,-19 -101,51 -35,0 -62,-6 -88,12l-34 30c-28,14 -51,10 -73,27 -35,27 13,31 -146,31 -38,58 -8,37 -63,50 -58,14 -56,-7 -63,51 -79,0 -97,-3 -113,63 -31,0 -56,-5 -81,8 -37,19 -18,27 -60,41 -51,16 -54,34 -91,48l-132 57c-59,18 -31,31 -101,49 -53,14 -46,-5 -52,49 -79,0 -98,-3 -113,64 -25,0 -53,-2 -77,-2 -5,0 -32,2 -36,2 -30,7 -12,2 -33,18l-46 30c-51,16 -42,24 -81,44 -49,24 -48,8 -89,38 -44,33 -97,1 -105,71 -99,0 -80,29 -140,49 -108,37 -31,34 -135,67 -30,9 -12,0 -34,17l-67 33c-45,14 -38,33 -101,50 -45,12 -39,-2 -52,49 -25,0 -80,-3 -101,0 -42,6 -46,6 -51,50 -99,0 -80,29 -140,49 -108,37 -31,34 -135,67 -29,9 -12,0 -34,17 -25,19 18,1 -27,23 -29,14 -13,2 -40,10 -60,18 -31,32 -102,50 -52,13 -45,-5 -51,49 -56,0 -94,-13 -101,51 -27,0 -46,-4 -70,5 -68,25 1,10 -52,37 -72,37 -57,-20 -105,71l-126 0c-40,60 -8,36 -64,49 -56,13 -44,-27 -62,52l-88 0c-12,23 -10,16 -13,50 -115,0 -73,26 -140,50l-141 61c-57,27 -22,34 -95,55 -61,18 -32,31 -103,49 -44,11 -34,-23 -50,50 -25,0 -54,-2 -77,-1 -5,0 -33,1 -36,2 -42,9 -45,37 -89,50 -65,18 -10,-7 -59,29 -2,2 -4,5 -7,6 -2,1 -5,4 -7,5l-74 27c-75,51 -89,19 -131,96l-88 0 -14 50 -87 1c-11,23 -9,16 -12,50 -11,0 -43,-1 -51,0l-38 13c-36,24 11,1 -25,25 -3,1 -6,3 -8,4 -3,2 -6,3 -9,4 -59,23 59,-17 -20,5l-122 55c-28,10 -3,-3 -25,12l-65 37c-110,38 -2,54 -155,59 -55,2 -58,-2 -62,51 -113,0 -76,28 -141,48 -26,9 -11,-4 -40,11 -38,19 -19,27 -61,40 -77,24 -53,33 -101,50l-141 60c-43,15 -33,3 -46,56l-88 0c-11,23 -10,16 -13,50 -34,0 -61,-5 -88,13 -36,24 11,1 -26,24l-47 16c-81,25 6,48 -179,48 -41,61 -80,47 -132,83 -20,14 -6,7 -33,16 -15,5 -10,0 -30,8 -62,26 -16,36 -84,55l-82 44c-30,15 -50,9 -74,27 -26,19 18,1 -27,24 -32,15 -4,1 -30,8 -3,1 -7,1 -10,2 -4,1 -7,1 -10,2l-38 25c-23,17 -2,8 -33,19 -14,5 -13,1 -30,7 -51,19 -27,30 -91,47 -25,7 -3,-4 -30,9 -50,25 -29,36 -98,41 -138,9 -33,62 -177,62 -70,0 27,-63 -201,-63 -5,-44 -9,-44 -51,-50 -21,-3 -76,0 -101,0 -9,-38 -5,-21 -25,-51 -255,0 -54,-42 -200,-51 -24,-2 -64,1 -90,1l-14 -50c-210,-4 -85,1 -171,-43 -29,-14 -13,-2 -40,-10 -53,-17 -52,-56 -128,-61 -13,0 -23,1 -36,-2 -31,-6 -13,0 -34,-16 -67,-48 -55,-32 -157,-32 -10,-38 -5,-21 -25,-51 -255,0 -54,-42 -200,-52 -25,-1 -64,2 -90,2 -8,-101 -72,-23 -144,-58 -53,-27 25,-43 -158,-43 -53,-100 -50,-36 -148,-67 -63,-20 8,-25 -69,-44 -23,-6 -85,-3 -111,-3 -16,-57 -12,-37 -63,-50 -55,-15 -24,8 -63,-51 -294,0 22,-50 -290,-50l-14 -50c-286,-5 -25,-34 -263,-64 -72,-9 -29,-50 -152,-50 -8,-75 -91,-50 -151,-50 -10,-38 -5,-21 -25,-51l-164 0c-52,-38 2,-35 -64,-49 -19,-4 -89,-1 -113,-1l-14 -50 -87 -1c-51,-97 -99,-32 -175,-89 -42,-31 -98,-24 -152,-24 -9,-75 -91,-50 -152,-50 -10,-38 -5,-21 -25,-51 -22,0 -70,3 -89,1 -71,-9 -30,-27 -80,-47 -33,-12 -43,-3 -71,-29 -3,-2 1,-7 -25,-26l-164 0c-49,-36 -1,-32 -69,-57 -78,-28 -28,23 -82,-56 -294,0 22,-51 -290,-51 -10,-37 -5,-20 -25,-50 -211,0 -83,-30 -178,-49 -22,-5 -50,2 -73,-3 -88,-18 14,-44 -102,-49 -76,-4 -95,25 -101,-50 -54,-5 -78,-13 -151,-13 -17,-65 -65,-37 -107,-69 -38,-30 17,-23 -57,-32 -21,-3 -76,0 -101,0 -6,-77 -88,-50 -151,-50 -10,-38 -5,-21 -25,-51 -255,0 -54,-42 -201,-51 -24,-2 -63,1 -89,1 -20,-83 -65,-63 -164,-63 -10,-37 -5,-21 -25,-51 -255,0 -54,-42 -201,-51 -24,-2 -63,1 -89,1 -7,-77 -88,-50 -152,-50 -10,-38 -5,-21 -25,-51 -20,0 -45,2 -64,1 -76,-1 -48,-28 -103,-48 -22,-7 -49,-3 -73,-3 -19,-84 -64,-63 -163,-63 -10,-38 -6,-21 -26,-51l-126 0c-10,-37 -5,-20 -25,-50l-139 0c-6,-78 -87,-51 -151,-51 -10,-37 -5,-20 -25,-50 -255,0 -54,-42 -201,-52 -24,-1 -63,2 -89,2 -16,-67 -35,-64 -114,-64 -4,-44 -8,-44 -50,-50 -21,-3 -76,0 -101,0 -10,-37 -5,-20 -25,-50 -255,0 -54,-43 -201,-52 -24,-1 -63,1 -89,1l-14 -50c-56,-1 -108,11 -144,-19 -45,-37 17,-32 -145,-32 -22,-43 -32,-49 -76,-62l-29 -9c-75,-38 10,-42 -172,-42 -10,-37 -5,-21 -25,-51 -255,0 -54,-42 -201,-51 -24,-2 -63,1 -89,1 -8,-100 -72,-22 -144,-58 -52,-26 18,-25 -59,-42 -16,-4 -79,-1 -100,-1 -52,-100 -50,-36 -147,-67 -64,-20 11,-46 -180,-46 -10,-38 -6,-21 -26,-51 -21,0 -70,3 -88,1 -72,-9 -30,-27 -80,-46 -33,-13 -44,-4 -72,-29 -3,-2 2,-8 -24,-27l-164 0c-37,-27 -14,-23 -38,-37 -2,-2 -6,-4 -8,-5l-74 -27c-14,-10 3,0 -18,-20 -40,-35 -107,-13 -147,-42 -45,-33 -73,-32 -157,-32 -4,-45 -8,-45 -50,-51 -21,-3 -76,0 -101,0 -10,-37 -5,-20 -25,-50 -146,0 -96,12 -139,-26 -43,-37 9,-25 -151,-25l-14 -50 -87 0c-41,-77 -51,-63 -164,-63 -10,-38 -5,-21 -25,-51l-139 0c-5,-44 -8,-44 -50,-50 -21,-3 -76,0 -101,0 -10,-37 -5,-21 -25,-51 -146,0 -96,12 -139,-25 -43,-37 9,-25 -151,-25l-14 -50 -87 0c-44,-92 -47,-63 -214,-63 -10,-38 -5,-21 -26,-51l-138 0c-7,-58 -5,-37 -63,-51 -55,-13 -25,7 -63,-50 -37,0 -89,8 -119,-7 -54,-28 19,-38 -96,-43 -135,-6 -3,-51 -227,-51 -38,-79 -7,-63 -163,-63 -10,-37 -6,-20 -26,-50 -293,0 22,-50 -290,-50 -10,-38 -5,-21 -25,-51 -158,0 -110,-5 -145,-31 -17,-13 6,-1 -15,-11 -33,-17 -2,0 -29,-8l-20 -5c-42,-16 -8,-24 -59,-42 -23,-8 -94,-4 -123,-4 -19,-83 -64,-63 -164,-63 -10,-37 -5,-20 -25,-50 -293,0 22,-51 -290,-51 -5,-68 -15,-49 -88,-50 -102,-1 -43,-15 -97,-42 -30,-15 -21,-2 -50,-13 -27,-11 -25,-31 -58,-42 -33,-12 -75,-4 -110,-4 -52,-77 -85,-63 -177,-63 -8,-75 -90,-50 -151,-50 -10,-38 -5,-21 -25,-51 -294,0 22,-50 -290,-50 -10,-38 -5,-21 -25,-51 -239,0 -74,-36 -189,-51 -18,-2 -67,1 -89,1 -51,-77 -85,-63 -176,-63 -16,-58 -12,-37 -63,-51 -55,-15 -24,9 -63,-50 -294,0 22,-50 -290,-50l-14 -50c-56,-2 -108,10 -144,-19 -46,-37 17,-32 -145,-32 -42,-81 -59,-63 -176,-63 -8,-75 -91,-51 -152,-51 -10,-37 -5,-20 -25,-50 -294,0 22,-51 -290,-51l-14 -50c-121,-4 -71,-4 -105,-32 -26,-21 12,-15 -56,-20 -20,-1 -55,2 -77,2 -53,-100 -50,-37 -147,-67 -64,-21 10,-47 -181,-47 -10,-37 -5,-20 -25,-50 -294,0 22,-51 -290,-51 -3,-39 0,-24 -13,-50l-88 0 -14 -50 -137 -1c-15,-28 -21,-38 -38,-63 -294,0 22,-50 -290,-50 -5,-45 -8,-44 -50,-51 -21,-3 -77,0 -101,0 -10,-37 -5,-20 -25,-50 -294,0 22,-50 -290,-50 -19,-79 -95,-63 -164,-63 -10,-38 -5,-21 -25,-51 -147,0 -96,12 -139,-25 -43,-37 9,-25 -151,-25 -9,-75 -91,-51 -152,-51 -17,-65 -65,-37 -107,-69 -47,-37 19,-32 -157,-32 -20,-83 -65,-63 -164,-63 -10,-37 -5,-20 -26,-50l-126 0c-10,-37 -5,-20 -25,-50l-138 0c-4,-46 -4,-47 -50,-52 -20,-2 -77,1 -102,1 -7,-28 -12,-50 -50,-50l-568 0c-45,0 -39,34 -78,47l-89 50c-49,47 -26,-19 -34,54 -111,0 -105,38 -174,104 -2,1 -5,4 -7,5 -47,46 -20,60 -48,104 -20,31 -49,56 -86,64 0,14 1,51 -1,62 -14,62 -14,24 -31,45 -34,41 -19,66 -19,133 -39,21 -63,27 -63,88l0 454c0,75 34,62 51,88 23,34 12,98 12,139 111,26 -7,54 101,63l0 88c31,17 19,7 45,31 60,59 61,95 169,95 8,70 -4,12 29,48l34 53 89 0 14 50c165,3 104,-12 150,26 29,24 68,22 94,43 15,12 -6,4 25,27 24,19 33,15 70,18 13,0 23,-1 36,2 73,14 1,48 191,48 9,38 5,21 25,51 293,0 -22,50 290,50 8,101 72,23 144,58 53,27 -25,43 158,43 53,100 50,36 148,67 63,20 -11,47 180,47 10,37 5,20 25,50 158,0 111,5 145,31l88 38c27,21 -19,9 36,28 22,8 94,4 122,4l14 50c249,3 85,51 226,63 33,2 58,0 83,18 25,19 -15,-4 19,18 36,24 82,15 137,15 10,37 5,20 25,50l126 0c10,38 6,21 26,51 214,0 69,50 239,50l14 50c142,3 105,-19 151,25 54,53 63,39 150,39 10,37 6,20 26,50l138 0c8,75 91,50 152,50 10,38 5,21 25,51 294,0 -22,50 290,50l14 50c141,3 105,-19 150,25 55,54 64,39 151,39 12,44 5,34 41,47l66 22c38,29 -18,23 56,32 22,3 77,0 102,0 10,37 5,20 25,50 198,0 85,45 214,50 115,6 42,16 96,43 32,17 91,8 131,8 38,79 8,63 164,63 12,44 5,35 41,47l66 22c38,30 -18,23 56,32 22,3 77,0 102,0 6,75 24,46 101,50 116,5 14,31 102,49 22,5 50,-2 73,3 98,20 -42,49 190,49 20,83 65,63 164,63 10,37 5,21 25,51 294,0 -22,50 290,50 6,69 16,49 89,50 102,1 42,15 96,42 30,16 50,10 74,28 18,14 -11,-1 19,19l16 9c32,11 74,3 110,3 16,24 22,47 55,58 35,12 83,5 121,5 10,38 5,21 26,51l126 0c10,37 5,20 25,50l138 0c7,78 88,51 152,51 10,37 5,20 25,50 281,0 1,50 277,50 52,78 86,63 177,63 15,58 12,37 63,51 55,15 23,-9 63,50 146,0 96,-12 139,26 42,37 -10,25 151,25l14 50c56,1 107,-11 144,19 45,37 -17,32 144,32 43,80 60,63 177,63 8,74 91,50 151,50 10,37 5,20 25,50 192,0 87,19 168,47 22,8 49,4 72,4 8,100 72,22 144,58 52,26 -18,25 59,42 16,3 79,1 100,1 52,99 49,36 147,67 64,20 -11,46 180,46 10,38 5,21 26,51 171,0 96,19 199,52 48,15 18,27 69,45 23,8 94,4 122,4l15 49 137 1c15,28 21,38 37,63 23,0 57,-2 77,-1 82,5 26,-5 62,26 43,37 -9,25 151,25 9,75 91,51 152,51 10,37 5,20 25,50 22,0 57,-2 77,-1 81,5 26,-5 62,27 42,37 -10,25 151,25 18,78 95,63 164,63 10,37 5,20 25,50 191,0 87,19 167,47 22,8 49,4 73,4 3,45 3,46 49,51 20,3 77,-1 102,-1 10,37 5,20 25,50 22,0 57,-2 77,-1 104,7 19,47 124,53 24,2 63,-1 89,-1 19,83 65,63 164,63 10,37 5,20 25,50l126 0c10,38 5,21 25,51l139 0c3,39 0,24 13,50l88 0 14 50c56,1 108,-10 144,19 37,31 -18,23 56,33 18,2 67,-1 89,-1 42,81 59,63 176,63 5,45 8,44 50,51 21,3 77,0 101,0 10,37 5,20 26,50 22,0 56,-2 76,-1 82,5 26,-5 62,26 43,37 -9,25 152,25 9,38 5,21 25,51 22,0 56,-3 77,-1 81,5 25,-5 61,26 29,25 -4,19 50,26 18,2 68,-1 89,-1 23,43 32,49 77,62 61,18 -29,-14 20,6 2,1 6,2 8,3 75,38 -10,43 172,43 10,37 6,20 26,50 22,0 56,-2 76,-1 82,5 26,-5 62,26 43,38 -9,26 152,26 6,74 24,46 101,50 83,3 35,27 102,48l55 21c16,12 -4,16 40,36 39,18 107,8 155,8 53,18 -19,51 177,51 15,57 12,37 63,51 55,15 24,-9 63,50 22,0 57,-3 77,-1 81,5 26,-5 62,26 43,37 -9,25 151,25l14 50c38,1 97,-9 130,8 44,22 1,47 96,55 23,2 36,-2 59,5 68,21 0,46 180,46 10,37 5,21 25,51l126 0c18,64 65,36 107,69 48,37 -18,31 158,31l14 50c249,3 84,51 226,63 147,13 42,51 239,51 8,75 91,51 152,51 9,37 5,20 25,50 22,0 56,-2 77,-1 81,5 25,-5 61,26 36,32 -19,22 62,27 24,1 64,-1 90,-1l14 49c141,3 105,-18 150,26 23,22 -1,25 53,35 42,9 52,-6 89,12l83 43c28,10 12,1 33,18 56,44 3,31 158,31 10,37 5,20 25,50 22,0 56,-2 77,-1 81,5 26,-5 62,27 42,37 -10,25 151,25 5,67 47,48 101,50 7,0 18,0 24,1 70,14 5,62 190,62 10,37 5,21 25,51 39,0 95,-9 126,12 37,25 -17,14 42,35 21,7 49,3 72,3 6,75 24,47 101,50 116,5 14,32 102,50 22,4 50,-2 73,2 98,20 -43,49 190,49 20,84 65,63 164,63 10,38 5,21 25,51 22,0 57,-3 77,-1 82,5 26,-5 62,26 43,37 -9,25 151,25 6,69 16,50 89,51 110,1 52,46 151,50l63 13c38,25 -8,38 113,38 20,83 65,63 164,63 10,37 5,20 25,50l127 0c9,37 5,20 25,50l138 0c7,78 88,51 152,51 10,37 5,20 25,50 294,0 -22,51 290,51 15,66 34,63 113,63 9,74 91,50 152,50 10,37 5,21 25,51 294,0 -22,50 290,50l14 50c23,0 51,-1 75,-1 142,3 -25,52 213,52 21,39 28,63 89,63l403 0c75,0 62,-34 88,-51l62 -13c24,-1 52,1 77,1l14 -50c111,-2 75,-28 139,-49 63,-20 60,-38 101,-50 24,-8 13,2 41,-10 29,-13 22,-26 61,-40 76,-27 63,-38 101,-51 20,-6 18,1 41,-8 53,-20 18,-3 44,-57l88 0 15 -50c46,-1 106,10 143,-19 14,-11 12,-20 46,-30 14,-4 14,0 31,-7 35,-11 40,-33 81,-45 72,-23 31,-26 123,-54 40,-12 35,3 40,-47 79,0 98,3 114,-63 125,0 74,-27 141,-49 15,-5 12,0 31,-7 30,-11 0,4 23,-14 51,-38 65,-23 103,-49 5,-3 18,-17 19,-18 42,-27 82,-3 99,-65 169,0 94,-17 190,-49 90,-30 49,-40 136,-67 36,-11 40,-34 79,-46 54,-17 70,-39 122,-55 44,-12 29,-22 111,-52 28,-11 3,2 25,-13l87 -40c70,-26 -2,-8 52,-36 74,-36 58,20 106,-71 22,0 56,3 76,1 87,-5 27,-14 83,-43 48,-24 48,-7 88,-38 3,-1 5,-4 7,-6l66 -23c58,-26 10,-20 93,-45 40,-12 35,3 41,-48 114,0 78,-28 140,-49 12,-4 11,0 30,-7 70,-26 14,-31 105,-59 40,-13 28,-20 53,-35l59 -17c36,-12 29,-2 41,-47 64,0 145,27 151,-50 120,0 69,-20 131,-46 35,-16 20,5 65,-24 60,-37 77,-31 119,-69 53,-48 -4,-7 62,-27 46,-15 40,-43 89,-49 10,-1 40,0 51,0l14 -50 87 0c12,-23 10,-16 13,-50 34,0 61,5 88,-13 36,-23 -8,-2 26,-25 27,-18 51,-16 102,-49 50,-31 34,-2 105,-59 24,-19 45,-12 74,-27 75,-38 -11,-36 123,-41 55,-2 57,2 62,-51 128,0 72,-28 140,-49l57 -19c23,-16 10,-14 27,-23 33,-18 25,-3 58,-18l51 -37c74,-35 50,16 95,-69l89 0 14 -50 86 0c12,-23 10,-16 13,-50 23,0 50,4 72,-4 91,-31 -56,2 101,-50 37,-13 30,-3 41,-47l126 0c43,-64 5,-36 73,-54 58,-15 51,5 66,-60l88 0c12,-23 10,-16 13,-50 31,0 56,5 81,-8 37,-18 18,-27 60,-41 63,-19 60,-38 101,-50 77,-24 53,-33 101,-50l69 -32c21,-16 2,-8 31,-19 48,-18 71,0 87,-65 25,0 80,3 101,1 57,-8 31,-17 63,-38l101 -51c53,-33 -1,10 67,-20l82 -45c3,-1 7,-2 10,-3 3,-1 6,-2 9,-3 3,-1 6,-3 8,-4l63 -38c58,-15 56,8 63,-51 79,0 98,4 113,-63 23,0 51,4 72,-4 59,-20 4,-9 42,-33l82 -32c51,-38 64,-23 102,-49l77 -37c37,-13 29,-1 41,-47 27,0 89,3 111,-2 40,-10 45,-35 80,-47 63,-21 78,-48 135,-66l34 -17c22,-17 -10,4 12,-13 30,-22 49,-14 110,-54l87 -39c47,-35 105,-11 112,-77 79,0 98,4 114,-63 145,0 61,-14 121,-43 28,-14 35,-5 68,-7 83,-5 25,6 63,-25 45,-37 62,-21 109,-56 25,-18 -11,-1 23,-15 47,-19 75,9 82,-56 94,0 75,-21 171,-56 72,-27 17,-26 64,-49 38,-19 53,-15 87,-40 21,-16 4,-7 33,-17l48 -15c47,-29 -18,-6 84,-41 29,-11 38,-33 71,-44 58,-18 65,13 72,-53 171,0 97,9 165,-37l16 -9c41,-18 -30,10 20,-6 22,-6 6,7 38,-12 50,-29 16,-32 66,-47 26,-9 11,4 40,-11 45,-22 1,-3 27,-23l55 -21c3,-1 7,-1 10,-2l18 -8c35,-20 29,-28 64,-37 55,-14 43,28 61,-52 114,0 76,-27 141,-48 26,-8 11,4 40,-10 45,-23 -1,-1 28,-24 26,-20 39,-13 72,-28 56,-25 17,-31 95,-56 30,-9 12,0 34,-16 65,-49 102,-15 120,-82 64,0 145,27 151,-51 114,0 76,-28 141,-48 76,-24 11,13 69,-32l71 -30c64,-30 7,-22 55,-46 28,-14 51,-8 75,-25 54,-37 -16,-12 68,-33 44,-11 34,22 51,-51l88 0c11,-23 10,-15 13,-50 14,0 50,2 62,-1 94,-21 -34,-49 177,-49 47,-71 4,-35 74,-52 79,-20 34,2 65,-62l88 0 14 -50c65,-1 69,-3 106,-32 24,-18 44,-12 73,-27 38,-19 19,-27 61,-40 78,-24 54,-33 102,-50 76,-27 63,-38 101,-50 20,-7 18,0 42,-9 52,-20 17,-3 43,-57 187,0 94,-15 212,-53l27 -11c21,-13 13,-21 43,-32l50 -13c3,-2 6,-4 8,-5 37,-23 -11,-1 26,-24 3,-2 6,-4 8,-5l60 -16c35,-16 37,-33 71,-42 58,-15 56,8 62,-51 79,0 98,3 114,-63 120,0 56,-9 122,-42 29,-15 47,-8 73,-28l13 -12c2,-2 5,-5 7,-6 17,-11 -3,-2 27,-11 55,-18 39,-23 81,-44 31,-15 56,-12 82,-32 36,-27 44,-19 79,-35l82 -44c56,-14 50,0 64,-61 190,0 94,-3 173,-43 2,-1 6,-2 9,-3l20 -5c3,-1 7,-1 10,-2 4,-1 7,-1 10,-3 64,-24 8,-23 91,-47l55 -34c3,-1 5,-4 8,-5l93 -45c48,-32 91,3 99,-66 113,0 78,-11 111,-40 34,-30 37,-9 82,-31l71 -42c27,-8 -3,8 30,-9 16,-8 12,-9 21,-17 40,-33 77,-25 138,-25 39,-57 9,-36 64,-50 58,-14 56,8 63,-50 99,0 80,-29 140,-49 48,-17 27,5 68,-33 41,-39 57,-19 100,-51 44,-32 69,-26 103,-49 106,-72 97,-6 118,-83 208,0 72,-3 221,-57 57,-21 7,-2 39,-24 48,-33 40,-7 112,-65 29,-23 52,-13 81,-31 26,-16 24,-25 75,-39 31,-9 20,-5 41,-22 38,-30 6,-27 99,-27 12,-23 10,-16 13,-50 11,0 42,1 51,0l30 -8c32,-16 10,-18 41,-34l94 -44c3,-2 5,-4 8,-5 51,-28 32,-3 97,-55 24,-19 45,-12 74,-27 46,-23 1,-15 41,-34 3,-1 6,-3 9,-4l73 -3c55,-2 57,2 62,-51 23,0 50,4 72,-4 50,-17 17,-25 59,-42 3,-1 6,-1 10,-2l54 -21c44,-33 69,-30 122,-67 3,-2 5,-4 8,-6 2,-1 5,-3 8,-4 74,-35 50,17 95,-68l89 0 14 -50 87 -1c11,-23 9,-16 12,-50 120,0 57,-9 122,-42 30,-15 22,-2 50,-13 30,-12 37,-34 70,-44 55,-16 56,11 73,-53 26,0 63,3 88,0 61,-7 66,-48 126,-63 44,-11 34,23 51,-50 127,0 75,-24 131,-46 85,-33 33,6 109,-67 42,-40 54,-22 102,-50l31 -32c61,-65 29,-86 106,-158 65,-60 29,-58 63,-113 23,-37 10,19 33,-44 8,-24 5,-43 5,-70 45,-5 44,-8 50,-50 9,-56 -17,-144 8,-195 26,-54 43,6 43,-108 0,-73 -49,16 -52,-112 -1,-53 1,-111 1,-165 -30,-20 -13,-16 -50,-26 0,-167 -15,-114 -95,-219 -24,-31 -15,-63 -36,-90l-96 -94c-14,-15 -14,-13 -31,-32 -40,-42 -59,-30 -99,-52 -65,-35 -17,-42 -122,-42 -3,-39 0,-24 -13,-50l-88 0 -14 -50c-69,-1 -526,-16 -571,7 -54,27 26,43 -159,43z"/>
  </g>
 </g>
</svg>
