<?xml version="1.0"?>
<svg xmlns="http://www.w3.org/2000/svg" xmlns:xlink="http://www.w3.org/1999/xlink" xmlns:svgjs="http://svgjs.com/svgjs" version="1.1" width="512" height="512" x="0" y="0" viewBox="0 0 64 64" style="enable-background:new 0 0 512 512" xml:space="preserve" class=""><g><g xmlns="http://www.w3.org/2000/svg" id="Layer_32" data-name="Layer 32"><path d="m32 9.118 27.764 13.882-27.764 13.882-27.764-13.882zm-.447 29.782a1 1 0 0 0 .894 0l22.553-11.282 4.764 2.382-27.764 13.882-27.764-13.882 4.764-2.382zm-28.553-7.282 28 14v1.764l-28-14zm56.764 9.382-27.764 13.882-27.764-13.882 4.764-2.382 22.553 11.282a1 1 0 0 0 .894 0l22.553-11.282zm-26.764 6.382v-1.764l28-14v1.764z" fill="#10374b" data-original="#000000" style="" class=""/></g><g xmlns="http://www.w3.org/2000/svg" id="Layer_1" data-name="Layer 1"><text font-family="MyriadPro-Regular, Myriad Pro" font-size="10" transform="translate(5.92 -22.9)" svgjs:data="{&quot;leading&quot;:&quot;1.3&quot;}"><tspan letter-spacing="-.00698242188em" svgjs:data="{&quot;leading&quot;:&quot;1.3&quot;}">HY</tspan><tspan x="11.79" y="0" svgjs:data="{&quot;leading&quot;:&quot;1.3&quot;}">D</tspan><tspan letter-spacing=".00297851563em" x="18.45" y="0" svgjs:data="{&quot;leading&quot;:&quot;1.3&quot;}">R</tspan><tspan x="23.859" y="0" svgjs:data="{&quot;leading&quot;:&quot;1.3&quot;}">O</tspan><tspan letter-spacing="-.083984375em" x="30.75" y="0" svgjs:data="{&quot;leading&quot;:&quot;1.3&quot;}">L</tspan><tspan letter-spacing="-.01298828125em" x="34.629" y="0" svgjs:data="{&quot;leading&quot;:&quot;1.3&quot;}">Y</tspan><tspan x="39.909" y="0" svgjs:data="{&quot;leading&quot;:&quot;1.3&quot;}">SIS</tspan><tspan x=".985" y="12" svgjs:data="{&quot;leading&quot;:&quot;1.3&quot;}">RESIS</tspan><tspan letter-spacing="-.075em" x="23.535" y="12" svgjs:data="{&quot;leading&quot;:&quot;1.3&quot;}">T</tspan><tspan x="27.755" y="12" svgjs:data="{&quot;leading&quot;:&quot;1.3&quot;}">ANCE</tspan></text></g></g></svg>
