<?xml version="1.0" encoding="UTF-8"?>
<!DOCTYPE svg PUBLIC "-//W3C//DTD SVG 1.1//EN" "http://www.w3.org/Graphics/SVG/1.1/DTD/svg11.dtd">
<!-- Creator: CorelDRAW 2021 (64-Bit) -->
<svg xmlns="http://www.w3.org/2000/svg" xml:space="preserve" width="4.2332mm" height="4.2332mm" version="1.1" style="shape-rendering:geometricPrecision; text-rendering:geometricPrecision; image-rendering:optimizeQuality; fill-rule:evenodd; clip-rule:evenodd"
viewBox="0 0 42332 42332"
 xmlns:xlink="http://www.w3.org/1999/xlink"
 xmlns:xodm="http://www.corel.com/coreldraw/odm/2003">
 <defs>
  <style type="text/css">
   <![CDATA[
    .fil0 {fill:#10374B}
   ]]>
  </style>
 </defs>
 <g id="Слой_x0020_1">
  <metadata id="CorelCorpID_0Corel-Layer"/>
  <g id="_2789902367568">
   <path class="fil0" d="M259 21824c0,766 474,904 980,1072 513,171 960,338 1448,500l2880 1014c973,322 1912,672 2894,999 484,161 933,329 1448,500l1446 501c929,348 1913,674 2881,1012 509,178 964,338 1448,500l5775 2013c488,176 1128,467 1638,467 723,0 4878,-2762 5692,-3360 1662,-1221 2785,-2251 4241,-3705 3359,-3357 6065,-8463 6065,-13248 0,-800 76,-1247 -906,-1515 -2240,-613 -4990,-1580 -7262,-2210 -506,-141 -945,-303 -1451,-443 -458,-127 -970,-286 -1451,-444 -2266,-744 -4989,-1440 -7223,-2196 -255,-87 -459,-145 -727,-221 -650,-184 -3281,-1075 -3766,-1075 -356,0 -556,175 -724,381 -255,315 -159,1367 -245,1965 -281,1936 -388,2628 -1143,4488 -278,687 -1123,2246 -1586,2887 -472,654 -936,1296 -1471,1896l-790 895c-623,673 -1411,1295 -2053,1893l-1234 976c-1100,823 -2196,1516 -3381,2198l-2247 1173c-420,202 -1176,359 -1176,1087z"/>
   <path class="fil0" d="M22940 32191c-163,0 -3285,-1128 -4032,-1389 -245,-86 -425,-141 -672,-223l-16240 -5651c-467,-171 -456,-210 -948,-210 -580,0 -1213,1018 -436,1699 182,159 409,191 667,281l4327 1513c994,329 1903,661 2896,999 978,333 1907,683 2880,1015l7183 2499c385,139 4103,1466 4375,1466 447,0 1485,-556 1946,-789l1790 -842c395,-198 815,-380 1210,-579l2390 -1135c432,-178 769,-363 1188,-549l4774 -2278c1138,-485 3028,-1408 4191,-1966 221,-106 374,-194 595,-299 671,-322 913,-368 913,-1193 0,-417 -389,-789 -1000,-789 -323,0 -887,334 -1167,465l-2219 1043c-1427,719 -3061,1421 -4490,2141 -210,106 -370,157 -580,262 -1470,736 -2989,1391 -4454,2124l-5087 2385z"/>
   <path class="fil0" d="M22940 35980l-6730 -2323c-458,-152 -901,-318 -1368,-473 -2878,-956 -5937,-2108 -8788,-3052 -226,-75 -416,-156 -657,-237 -571,-195 -3848,-1388 -4138,-1388 -715,0 -1000,386 -1000,1105 0,680 1020,882 1716,1126l10816 3761c242,90 452,152 709,237l7223 2513c2618,868 1778,997 3600,219 420,-179 731,-381 1173,-563l5354 -2540c1330,-665 2843,-1315 4210,-1999 209,-105 370,-157 580,-263l1824 -859c191,-94 356,-178 561,-281l2999 -1421c836,-418 913,-467 913,-1193 0,-422 -395,-789 -1000,-789 -291,0 -2358,1021 -2806,1246 -1594,798 -3433,1580 -5070,2402l-3894 1843c-1206,608 -2731,1259 -3965,1876 -216,108 -2191,1053 -2262,1053z"/>
   <path class="fil0" d="M22940 39769c-177,0 -1652,-561 -2007,-678 -253,-84 -450,-151 -699,-247l-11483 -3989c-1993,-659 -4086,-1460 -6091,-2118 -650,-213 -1020,-441 -1612,-441 -580,0 -1213,1018 -436,1699 188,164 2349,878 2811,1031 260,86 487,152 745,254l1438 509c1000,330 1897,670 2895,1000 2328,769 4815,1715 7184,2499l1444 503c486,188 979,319 1443,504 961,383 2523,857 3586,1255 1194,448 1078,144 2119,-286l5398 -2548c214,-107 361,-183 610,-285l7171 -3406c200,-81 358,-173 568,-274l3000 -1421c260,-124 381,-119 586,-308 613,-569 398,-1673 -673,-1673 -389,0 -3306,1503 -3948,1788l-5613 2649c-213,107 -344,169 -568,273l-3360 1587c-382,192 -724,334 -1106,526 -388,196 -765,356 -1140,544 -204,103 -2212,1053 -2262,1053z"/>
   <path class="fil0" d="M33517 25508l7692 -3622c1106,-521 791,-1504 204,-1801 -156,-79 -261,-109 -457,-175 -483,-162 -2185,-816 -2493,-822 -53,199 -379,710 -503,917l-548 872c-564,855 -2124,2838 -2829,3539l-1066 1092z"/>
  </g>
 </g>
</svg>
