<?xml version="1.0" encoding="UTF-8"?>
<!DOCTYPE svg PUBLIC "-//W3C//DTD SVG 1.1//EN" "http://www.w3.org/Graphics/SVG/1.1/DTD/svg11.dtd">
<!-- Creator: CorelDRAW 2021 (64-Bit) -->
<svg xmlns="http://www.w3.org/2000/svg" xml:space="preserve" width="4.2332mm" height="4.2332mm" version="1.1" style="shape-rendering:geometricPrecision; text-rendering:geometricPrecision; image-rendering:optimizeQuality; fill-rule:evenodd; clip-rule:evenodd"
viewBox="0 0 42332 42332"
 xmlns:xlink="http://www.w3.org/1999/xlink"
 xmlns:xodm="http://www.corel.com/coreldraw/odm/2003">
 <defs>
  <style type="text/css">
   <![CDATA[
    .fil0 {fill:#13384B}
   ]]>
  </style>
 </defs>
 <g id="Слой_x0020_1">
  <metadata id="CorelCorpID_0Corel-Layer"/>
  <g id="_2826020962000">
   <path class="fil0" d="M26213 5249c238,86 1603,1565 1792,1754 431,432 1472,1370 1754,1792l-3546 0 0 -3546zm-19355 -3472l0 1477c-1143,0 -2807,-289 -2807,1552l0 32949c0,936 614,1551 1551,1551l12411 0c1922,0 1327,-1404 369,-1404l-12927 0 0 -33244 19429 0 0 4358c0,278 257,686 421,835 202,184 551,348 908,348l4211 0 0 14405c0,781 1404,952 1404,-147l0 -15515c0,-221 -490,-601 -646,-756l-2143 -2143c-211,-211 -2661,-2789 -2900,-2789l-17877 0 0 -1403 24896 0 0 23640c0,804 1404,614 1404,74l0 -23788c0,-801 -732,-1330 -1552,-1330l-24600 0c-821,0 -1552,529 -1552,1330z"/>
   <path class="fil0" d="M27617 37681c-1522,0 -2327,-121 -3620,-1256 -529,-466 -1329,-1753 -1329,-2734 0,-1588 66,-2331 1101,-3553 1473,-1741 4502,-2254 6600,-159 383,382 707,763 943,1273 243,528 369,1099 435,1787 145,1520 -1011,3391 -2430,4126 -414,214 -1077,516 -1700,516zm-6132 -4655c0,1362 363,2338 946,3266 502,803 1258,1456 2108,1882 1862,931 3698,836 5543,-98 303,-154 361,-248 638,-395 577,387 4015,4166 4358,4210 292,-67 739,-406 739,-739 0,-243 -1201,-1313 -1533,-1642l-1033 -1110c-398,-402 -817,-677 -1361,-1298l-283 -308c255,-483 368,-464 839,-1451 644,-1349 524,-3356 -149,-4707 -813,-1628 -2170,-2702 -3945,-3072 -2039,-425 -3991,276 -5187,1527l-632 772c-579,855 -1048,2007 -1048,3163z"/>
   <path class="fil0" d="M18604 6504l0 11969 1699 0 0 -11747c0,-1085 -1699,-780 -1699,-222z"/>
   <path class="fil0" d="M8483 25861c-108,462 -108,497 0,959 165,39 170,74 369,74l13890 0c407,0 402,-1107 0,-1107 -1577,0 -13787,-110 -14259,74z"/>
   <path class="fil0" d="M8410 22019l73 739c165,39 170,74 369,74l13742 0c199,0 204,-35 369,-74 108,-464 108,-498 0,-961 -165,-39 -170,-74 -369,-74l-13742 0c-226,0 -442,68 -442,296z"/>
   <path class="fil0" d="M14688 10568l0 7905 1700 0 0 -7683c0,-175 -117,-445 -203,-536 -345,-358 -1497,-178 -1497,314z"/>
   <path class="fil0" d="M8410 29849l73 739c231,20 262,74 517,74l10417 0c790,0 606,-1182 148,-1182l-10787 0c-171,0 -368,198 -368,369z"/>
   <path class="fil0" d="M8410 34578c804,187 8231,74 9677,74 199,0 204,-35 369,-74 60,-255 228,-1035 -221,-1035l-9605 0c-355,0 -220,697 -220,1035z"/>
   <path class="fil0" d="M10848 13745l0 4728 1698 0 0 -4506c0,-1086 -1698,-782 -1698,-222z"/>
  </g>
 </g>
</svg>
