<?xml version="1.0"?>
<svg xmlns="http://www.w3.org/2000/svg" xmlns:xlink="http://www.w3.org/1999/xlink" xmlns:svgjs="http://svgjs.com/svgjs" version="1.1" width="16" height="16" x="0" y="0" viewBox="0 0 512 512" style="enable-background:new 0 0 512 512" xml:space="preserve" class=""><g><g xmlns="http://www.w3.org/2000/svg"><path d="m492.459 160.372-27.809 11.256c11.513 28.441 17.35 56.828 17.35 84.372 0 124.617-101.383 226-226 226-54.445 0-107.108-20.397-148.275-56.718l45.283-6.603-4.329-29.686-87.679 12.785v79.222h30v-30.519c46.146 39.431 104.578 61.519 165 61.519 140.96 0 256-115.049 256-256 0-31.42-6.575-63.594-19.541-95.628z" fill="#ffffff" data-original="#000000" style="" class=""/><path d="m256 30c54.445 0 107.108 20.397 148.275 56.718l-45.283 6.603 4.329 29.686 87.679-12.785v-79.222h-30v30.519c-46.146-39.431-104.578-61.519-165-61.519-140.96 0-256 115.049-256 256 0 31.42 6.575 63.594 19.541 95.628l27.809-11.256c-11.513-28.441-17.35-56.828-17.35-84.372 0-124.617 101.383-226 226-226z" fill="#ffffff" data-original="#000000" style="" class=""/><path d="m256 211c-24.813 0-45 20.187-45 45s20.187 45 45 45 45-20.187 45-45-20.187-45-45-45zm0 60c-8.271 0-15-6.729-15-15s6.729-15 15-15 15 6.729 15 15-6.729 15-15 15z" fill="#ffffff" data-original="#000000" style="" class=""/><path d="m391 271v-30h-31.076c-2.552-17.763-9.56-34.106-19.862-47.849l22.004-22.004-21.213-21.213-22.004 22.004c-13.743-10.301-30.086-17.309-47.849-19.862v-31.076h-30v31.076c-17.763 2.552-34.106 9.56-47.849 19.862l-22.004-22.004-21.213 21.213 22.004 22.004c-10.301 13.743-17.309 30.086-19.862 47.849h-31.076v30h31.076c2.552 17.763 9.56 34.106 19.862 47.849l-22.004 22.004 21.213 21.213 22.004-22.004c13.743 10.301 30.086 17.309 47.849 19.862v31.076h30v-31.076c17.763-2.552 34.106-9.56 47.849-19.862l22.004 22.004 21.213-21.213-22.004-22.004c10.301-13.743 17.309-30.086 19.862-47.849zm-135 60c-41.355 0-75-33.645-75-75s33.645-75 75-75 75 33.645 75 75-33.645 75-75 75z" fill="#ffffff" data-original="#000000" style="" class=""/></g></g></svg>
