<?xml version="1.0" encoding="UTF-8"?>
<!DOCTYPE svg PUBLIC "-//W3C//DTD SVG 1.1//EN" "http://www.w3.org/Graphics/SVG/1.1/DTD/svg11.dtd">
<!-- Creator: CorelDRAW 2021 (64-Bit) -->
<svg xmlns="http://www.w3.org/2000/svg" xml:space="preserve" width="4.2332mm" height="4.2332mm" version="1.1" style="shape-rendering:geometricPrecision; text-rendering:geometricPrecision; image-rendering:optimizeQuality; fill-rule:evenodd; clip-rule:evenodd"
viewBox="0 0 42332 42332"
 xmlns:xlink="http://www.w3.org/1999/xlink"
 xmlns:xodm="http://www.corel.com/coreldraw/odm/2003">
 <defs>
  <style type="text/css">
   <![CDATA[
    .fil0 {fill:#10364B}
    .fil1 {fill:#A1A1A1}
   ]]>
  </style>
 </defs>
 <g id="Слой_x0020_1">
  <metadata id="CorelCorpID_0Corel-Layer"/>
  <g id="_2790132366432">
   <path class="fil0" d="M4965 2501c771,0 1277,48 1917,611l253 253c277,302 415,535 538,979 180,648 74,11069 74,12254 0,5457 0,10915 0,16373 -547,-366 -1230,-949 -2213,-949 -936,0 -1398,16 -2297,548 -522,309 -535,519 -569,295l20 -28090c56,-1167 1246,-2274 2277,-2274zm-3603 2275l0 31356c0,1746 1772,3603 3603,3603l31861 0c1643,0 3097,-1455 3097,-3098l0 -28510c0,-352 -73,-649 -174,-964 -163,-509 -565,-1064 -999,-1403 -276,-216 -342,-288 -726,-475 -284,-139 -893,-256 -1325,-256l-25728 0c-679,0 -845,968 -275,1223 484,217 5948,105 6596,105l19155 0c538,-2 1001,12 1470,425 307,270 679,738 679,1282l0 28636c0,434 -291,948 -535,1173 -267,247 -697,534 -1172,534l-31924 0c-530,0 -1172,-361 -1543,-732 -1646,-1646 -325,-4325 1606,-4325 1030,0 1735,276 2304,1110 205,300 374,678 410,1107 42,505 57,944 763,944 398,0 569,-417 569,-506l0 -31292c0,-569 -384,-1540 -713,-1942l-651 -677c-117,-92 -132,-123 -234,-208 -399,-329 -1348,-713 -2005,-713 -1228,0 -2197,292 -2989,1120 -111,116 -103,121 -199,244 -506,645 -921,1322 -921,2239z"/>
   <path class="fil0" d="M25755 14701c22,-902 -119,-3894 40,-4519 261,-75 8013,-3 8976,0 94,368 36,5513 36,6353 0,2123 27,4264 -2,6384l-2215 64c-774,0 -1569,-99 -1674,600 -41,268 150,595 387,687 271,104 2976,31 3437,45 161,241 67,2242 67,2524 0,1007 58,7315 -31,7749l-7053 31c-606,-17 -797,544 -572,943 253,447 784,317 1457,317 893,0 6774,99 7130,-77 440,-219 329,-821 329,-1441l0 -23389c0,-483 88,-1361 -57,-1714 -200,-488 -806,-373 -1460,-373l-21556 0c-202,0 -704,-23 -870,16 -704,170 -521,1355 -521,2197l0 23390c-3,1819 131,1391 4046,1391l8976 0c1646,4 902,-364 1404,-2200 399,-1458 1467,-2849 2810,-3511 1047,-516 972,-424 2045,-674 0,448 -42,2997 44,3306 186,677 1003,668 1235,122 115,-271 48,-2945 48,-3365 0,-887 106,-1387 -819,-1395 -2195,-20 -3966,1090 -5299,2610 -180,206 -336,407 -492,645 -91,137 -118,229 -197,373 -358,646 -235,362 -536,1170 -98,262 -180,523 -235,840 -177,1017 419,751 -2663,751 -3013,0 -6026,0 -9040,0l-1 -9610c-10,-769 -197,-631 1329,-631l10558 1c1093,10 1010,-318 1010,-1897 0,-605 81,-1422 -202,-1758 -357,-425 -1048,-184 -1120,372 -62,476 -5,1428 -5,1955l-11569 0 0 -12770 11569 0c0,1159 0,2318 0,3477 0,646 -122,1212 267,1503 396,297 1004,58 989,-492z"/>
   <path class="fil1" d="M25755 14701c10,-13 20,-52 22,-44 3,9 17,-34 20,-45l29 -4399 8914 0c0,243 -79,12281 45,12662 3,11 11,31 20,44 29,-2120 2,-4261 2,-6384 0,-840 58,-5985 -36,-6353 -963,-3 -8715,-75 -8976,0 -159,625 -18,3617 -40,4519z"/>
   <path class="fil1" d="M27723 34619l7053 -31c89,-434 31,-6742 31,-7749 0,-282 94,-2283 -67,-2524l0 10236 -6927 28c-14,4 -36,16 -46,19 -11,4 -31,12 -44,21z"/>
  </g>
 </g>
</svg>
